<svg xmlns="http://www.w3.org/2000/svg" viewBox="0 0 448 512" height="16" class="icon icon-academia"><path d="m244.37672,427.34892c0,6.85088-.0434,13.70309-.0434,20.59736 60.02632,.0888 120.05267,0 180.07713,.0454 0,-6.85224-.0438,-13.70312-.0438,-20.55359-12.06644,-2.43171-26.96382,-5.83525-31.60485,-18.96208C346.66088,293.77258 299.89339,179.2894 254.41048,64.36557c-33.23972,-.574514-66.47946,-.353915-99.71919,-.131943 6.18782,13.880334 11.36,28.199521 17.76975,41.991263-38.94164,101.17732-78.50253,202.17745-118.020033,303.13465-4.464358,12.8629-19.095914,15.73716-30.807997,18.16705 0,6.76369-.04346,13.57115-.04346,20.37823 38.278575,.17726 76.55669,.0438 114.83526,.0884-.0434,-6.93902-.0434,-13.83511-.0867,-20.73078-12.02307,-1.85545-25.81435,-1.63484-35.58287,-9.94522-7.69069,-7.42534-4.28717,-19.00735-1.10559,-27.71497 7.64732,-19.75723 14.89733,-39.69289 23.25109,-59.1861 46.36839,.26544 92.68975,-.0435 139.05815,.13195 6.36638,15.82391 12.73088,31.69164 19.0959,47.5608 4.24377,10.69508 8.08982,22.67478 4.64108,34.16673-8.93007,14.81057-28.28949,13.92695-43.31878,15.07404zM 138.73505,293.64014c17.76974,-47.20819 36.59849,-94.06111 54.01387,-141.40129 18.78674,47.16345 37.70409,94.28169 56.53422,141.40129a11615.148,11615.148 0 0 1-110.54809,0z"/></svg>
