<svg xmlns="http://www.w3.org/2000/svg" viewBox="0 0 448 512" height="16" class="icon icon-academia-square"><path d="M48 32C21.5 32 0 53.5 0 80L0 432C0 458.5 21.5 480 48 480L400 480C426.5 480 448 458.5 448 432L448 80C448 53.5 426.5 32 400 32L48 32zM 207.79297 96C221.64286 95.990765 235.49191 96.065306 249.3418 96.304688C287.24422 192.07456 326.21734 287.4763 364.63477 383.0625C368.5023 394.00152 380.91729 396.8388 390.97266 398.86523C390.97266 404.57395 391.00781 410.28199 391.00781 415.99219C340.98742 415.95439 290.96725 416.02908 240.94531 415.95508C240.94531 410.20985 240.98047 404.50009 240.98047 398.79102C253.50488 397.83511 269.63835 398.57261 277.08008 386.23047C279.95403 376.65384 276.74937 366.67038 273.21289 357.75781C267.90871 344.53351 262.60415 331.30964 257.29883 318.12305C218.6585 317.97689 180.0583 318.23487 141.41797 318.01367C134.45651 334.25801 128.41379 350.87158 122.04102 367.33594C119.38971 374.59229 116.55398 384.24386 122.96289 390.43164C131.10332 397.35696 142.59601 397.17255 152.61523 398.71875C152.65123 404.46515 152.6513 410.21162 152.6875 415.99414C120.78869 415.95694 88.891007 416.06764 56.992188 415.91992C56.992187 410.24735 57.027344 404.57586 57.027344 398.93945C66.787415 396.91454 78.980872 394.51791 82.701172 383.79883C115.63242 299.66783 148.59941 215.50194 181.05078 131.1875C175.70932 119.69438 171.3987 107.76225 166.24219 96.195312C180.09207 96.102824 193.94308 96.009235 207.79297 96zM 197.95703 169.5332C183.44421 208.98335 167.75343 248.02703 152.94531 287.36719A9679.2904 9679.2904 0 0 0 245.06836 287.36719C229.37659 248.10086 213.61265 208.83608 197.95703 169.5332z"/></svg>
