<svg xmlns="http://www.w3.org/2000/svg" viewBox="0 0 448 512" height="16" class="icon icon-acclaim-square"><path d="M48 32C21.5 32 0 53.5 0 80L0 432C0 458.5 21.5 480 48 480L400 480C426.5 480 448 458.5 448 432L448 80C448 53.5 426.5 32 400 32L48 32zM 224 96C237.0204 105.04933 354.93407 216.22197 361.14258 227.14453L361.14258 287.32812C352.53794 287.53886 238.17196 167.70163 224 162.00977C209.8284 167.70163 95.462032 287.53887 86.857422 287.32812L86.857422 227.14453C93.065922 216.22197 210.97962 105.04933 224 96zM 224 224.67188C237.02039 233.72119 354.93408 344.89385 361.14258 355.81641L361.14258 416C352.53794 416.21074 238.17196 296.37301 224 290.67969C209.8284 296.37301 95.462032 416.21071 86.857422 416L86.857422 355.81641C93.065922 344.89385 210.97962 233.7212 224 224.67188z"/></svg>
