<svg xmlns="http://www.w3.org/2000/svg" viewBox="0 0 448 512" height="16" class="icon icon-acm-square"><path d="M48 32C21.5 32 0 53.5 0 80L0 432C0 458.5 21.5 480 48 480L400 480C426.5 480 448 458.5 448 432L448 80C448 53.5 426.5 32 400 32L48 32zM 224 96L384 256L224 416L64 256L224 96zM 224.01367 157.51953C169.85627 157.51953 125.93945 201.43843 125.93945 255.625C125.93945 309.78204 169.85627 353.66992 224.01367 353.66992C278.20025 353.66992 322.06055 309.78241 322.06055 255.625C322.06055 201.43843 278.20025 157.51953 224.01367 157.51953zM 224 167.33984C272.6522 167.33984 312.0918 206.77981 312.0918 255.43164C312.0918 304.08239 272.65184 343.52344 224 343.52344C175.34818 343.52344 135.91016 304.08239 135.91016 255.43164C135.91016 206.77945 175.34818 167.33984 224 167.33984zM 164.88867 233.50195C161.86482 233.50195 158.93148 233.77059 155.99805 234.31055C153.0646 234.8494 150.96763 235.27092 149.65039 235.68945L149.65039 245.95703L150.72852 245.95703C152.76472 245.08895 154.79841 244.3101 156.86523 243.80078C158.96121 243.20359 160.75708 242.90234 162.34375 242.90234C165.81568 242.90234 168.39276 243.35131 170.12891 244.25C171.83407 245.11808 172.73242 246.76507 172.73242 249.07031L172.73242 249.33789C168.86966 249.54754 165.30853 249.96816 161.95508 250.38672C158.6618 250.83588 155.78716 251.64375 153.39258 252.78125C151.05778 253.91876 149.26074 255.47647 147.97266 257.42188C146.71522 259.33777 146.08594 261.88344 146.08594 265.08594C146.08594 268.9487 147.34471 272.06226 149.83008 274.60742C152.28482 277.09278 155.39781 278.4082 159.14062 278.4082C161.17646 278.4082 162.73188 278.25892 163.83984 277.92969C165.00797 277.6898 166.1152 277.24146 167.3125 276.61328C168.54077 275.98401 169.46829 275.4446 170.15625 274.81641A129.5972 129.5972 0 0 1 172.61133 272.81055L172.61133 277.27148L185.9043 277.27148L185.90625 277.26953L185.90625 248.32031C185.90625 243.35066 184.22831 239.60902 180.8457 237.1543C177.49373 234.7597 172.19383 233.50195 164.88867 233.50195zM 261.58594 233.58789C259.16183 233.58789 257.00781 234.12589 255.12109 235.14453C253.20519 236.19415 251.13854 237.65976 248.98242 239.48633L248.98242 234.78711L235.7207 234.78711L235.7207 277.26758L248.98438 277.26758L248.98438 247.12109C249.94178 246.46264 250.9577 245.86467 252.00586 245.32617C253.05369 244.84649 254.10297 244.60742 255.21094 244.60742C256.61895 244.60742 257.72592 244.78632 258.56445 245.23438C259.34173 245.65291 259.91153 246.28307 260.33008 247.21094C260.71944 248.10928 260.89758 249.30802 261.01758 250.74414C261.10688 252.21086 261.13672 253.94831 261.13672 256.01367L261.13672 277.26953L274.39844 277.26953L274.39844 247.12305C275.5666 246.34432 276.64479 245.68546 277.63281 245.23633C278.64999 244.78821 279.6376 244.60742 280.65625 244.60742C282.06318 244.60742 283.20122 244.78823 283.97852 245.23633C284.75725 245.65485 285.38626 246.28505 285.74609 247.21289C286.13546 248.11123 286.37414 249.31 286.46484 250.74609C286.55391 252.21281 286.58398 253.94829 286.58398 256.01367L286.58398 277.26758L299.81836 277.26758L299.81836 249.63477C299.81836 246.58137 299.54921 244.15627 298.91992 242.26953C298.35193 240.38282 297.48267 238.76607 296.25586 237.38867C295.2077 236.16184 293.86219 235.20372 292.30469 234.54492C290.71656 233.94738 288.95066 233.58789 286.97461 233.58789C284.66791 233.58789 282.39521 234.21585 280.11914 235.50391C277.9032 236.79052 275.47874 238.617 272.93359 240.98242C271.88538 238.49706 270.41866 236.67017 268.38281 235.44336C266.46693 234.21545 264.16063 233.58789 261.58594 233.58789zM 214.61523 233.58984C211.50205 233.58984 208.50817 234.00887 205.66406 234.87695C202.75978 235.71441 200.2736 237.03352 198.14844 238.79883C195.90297 240.62574 194.19822 242.96057 192.91016 245.80469C191.59292 248.70969 190.99414 252.09216 190.99414 256.19336C190.99414 259.93471 191.56248 263.25754 192.75977 266.04297C193.95706 268.79776 195.60362 271.10303 197.75977 272.98828C199.91555 274.81485 202.43141 276.16329 205.30469 277.06055C208.21005 277.92971 211.47206 278.4082 214.97461 278.4082C216.82925 278.4082 218.29609 278.28735 219.43359 278.07812C220.54156 277.86884 221.79919 277.69 223.05664 277.27148C224.13508 277.00202 225.09207 276.64133 226.08008 276.25195C227.09764 275.80243 227.96562 275.41467 228.71484 275.08398L228.71484 263.76758L227.00977 263.76758C226.6204 264.21527 226.05114 264.72516 225.42188 265.26367C224.79369 265.86229 224.01576 266.37166 223.08789 266.91016C222.21982 267.41948 221.14089 267.89774 219.91406 268.28711C218.62599 268.61637 217.12912 268.82617 215.45312 268.82617C212.1303 268.82617 209.52487 267.77826 207.54883 265.71289C205.57278 263.61689 204.55469 260.41487 204.55469 256.19336C204.55469 252.21066 205.54258 249.0379 207.36914 246.70312C209.22378 244.30852 211.85958 243.14062 215.24219 243.14062C216.73808 243.14063 218.0863 243.35022 219.34375 243.70898C220.48125 244.12896 221.61963 244.48729 222.57812 245.08594C223.50598 245.56607 224.28243 246.10487 225.0918 246.76367C225.83956 247.30217 226.52911 247.87105 227.00781 248.37891L228.71484 248.37891L228.71484 237.03125C226.34942 235.83395 224.01385 234.96489 221.64844 234.45703C219.34463 233.88899 216.95112 233.58984 214.61523 233.58984zM 172.61328 257.33203L172.61328 266.16406C171.6548 267.09194 170.57776 267.8709 169.32031 268.34961C168.15364 268.94817 166.95428 269.12695 165.87695 269.12695C163.75178 269.12695 162.16537 268.79804 161.11719 268.04883C160.06938 267.30108 159.5 265.92332 159.5 263.94727C159.5 262.62968 159.86072 261.55338 160.51953 260.71484C161.11817 259.8763 162.01546 259.27804 163.18359 258.88867C164.50083 258.37935 165.87674 258.11052 167.22461 257.96094C168.57247 257.78193 170.36781 257.57068 172.61328 257.33203z"/></svg>
