<svg xmlns="http://www.w3.org/2000/svg" viewBox="0 0 448 512" height="16" class="icon icon-africarxiv-square"><path d="M48 32C21.5 32 0 53.5 0 80L0 432C0 458.5 21.5 480 48 480L400 480C426.5 480 448 458.5 448 432L448 80C448 53.5 426.5 32 400 32L48 32zM 187.12109 96.005859C192.07343 96.092505 197.11983 97.057021 202.2793 98.464844C199.60798 101.88111 194.60631 101.14314 192.26953 104.62109C196.38793 105.25807 199.84422 102.4239 204.73242 102.0918C199.28184 108.9706 204.17848 112.76517 208.89453 117.24805L99.882812 153.02344C103.43881 146.94911 107.10576 143.02605 110.5918 138.96289C110.606 138.95089 110.62067 138.93943 110.63477 138.92773C111.51778 135.40939 114.34167 133.8175 117.30664 132.42188C120.65277 130.84209 123.53279 128.77212 125.35742 125.4668C125.22335 120.85567 127.36265 118.1334 131.81055 116.72266C141.16105 113.74962 149.44488 108.15328 159.26758 106.04883C162.26977 105.40759 165.43514 102.75624 168.44336 100.92578L168.4375 100.94141C174.53988 97.232757 180.7538 95.894458 187.12109 96.005859zM 245.61914 117.71289L245.62109 117.71289C249.29876 119.72421 252.02718 123.29784 256.36328 124.22461L259.44727 124.47461C259.45677 124.47111 259.46561 124.46689 259.47461 124.46289L259.47461 124.47656A33.572039 33.572039 0 0 0 271.01758 121.94531C276.42736 119.78256 280.17108 121.36168 282.30469 126.76562C282.30469 126.76762 282.30329 126.77048 282.30273 126.77148C282.30673 126.76948 282.30855 126.76762 282.31055 126.76562C283.89615 130.47318 285.38978 134.21076 285.22656 138.36719L240.69727 163.16016C239.94526 163.57989 238.6977 163.4231 238.7793 164.80469L238.77539 164.80664C238.78469 164.80864 238.79373 164.80855 238.80273 164.81055C247.82679 163.58635 255.62115 158.87133 264.01562 155.86914C272.41008 152.86695 280.81152 149.53598 289.00195 145.88672C292.54044 144.31275 294.24801 145.17804 295.76367 148.28516C297.51252 151.91111 298.89398 155.62234 299.16797 159.67383C299.16307 159.68023 299.15739 159.68736 299.15039 159.69336C300.00993 165.12869 302.18007 170.09865 304.60156 174.97656L304.60156 175.00586C308.13424 178.60266 304.08464 179.00473 302.30664 179.92578C281.5692 190.61707 260.82135 201.31068 240.06836 212.00586C224.44144 220.0933 208.8005 228.14459 193.14258 236.1582C191.66771 236.9102 190.12826 238.71018 188.47852 237.80078C179.78675 232.99727 170.38929 236.06558 161.36523 235.14453C159.47065 234.95213 157.53508 235.10352 155.61719 235.10352C154.2228 236.12492 152.63737 236.1027 151.03125 235.96289C151.02135 235.96759 151.01195 235.97156 151.00195 235.97656L150.98047 235.96094C150.97187 235.9603 150.96408 235.95956 150.95508 235.95898L150.95898 235.95508C146.71978 236.6871 142.52619 236.63306 138.56641 234.78711C136.02475 233.62121 133.90417 233.97742 132.73828 236.43164C130.66297 240.75711 127.49228 240.23247 124.08203 238.7168C120.41411 237.09825 116.80874 235.34082 113.18164 233.64062C113.17524 233.64403 113.16811 233.64639 113.16211 233.65039C108.48102 232.06477 103.49045 231.0572 100.10352 226.97656C96.4834 224.5923 95.429569 222.74318 100.74023 221.0293C109.32124 218.25447 117.17336 213.36309 126.22656 211.80078L157.82812 195.70117L178.81445 183.40039C179.14992 182.61875 179.76488 182.20279 180.42969 181.85156A6.5348601 6.5348601 0 0 1 178.7207 182.00781C158.2553 190.98912 137.79347 199.97575 117.33594 208.96875C110.86521 211.81937 104.38915 214.6699 98.005859 217.71289C95.184384 219.05368 93.476973 219.19406 92.794922 215.52148C91.722295 209.72114 90.305542 203.97949 91.996094 198.07422C92.002434 198.07122 92.007772 198.06941 92.013672 198.06641A4.0281785 4.0281785 0 0 1 94.378906 194.3418C100.89045 190.20287 98.57741 184.36217 97.294922 178.8125C95.540244 171.21084 95.87701 170.51651 103.50781 168.02148C127.37375 157.25247 151.25136 146.49372 175.13672 135.74414C185.4316 131.13301 195.84304 126.73256 205.99219 121.80664C210.38762 119.67888 214.16441 119.05974 218.04102 122.33008C223.1768 126.6614 228.26541 125.55426 232.79492 121.66016C236.60687 118.36113 241.0262 117.99852 245.61914 117.71289zM 311.15625 188.04102L311.1582 188.04102C312.83895 187.9398 314.15308 188.84342 315.43555 191.11328C317.72653 195.19393 324.01635 198.38318 323.01367 202.26562C322.24419 205.26199 315.62184 206.78823 311.57031 208.91016C302.27812 213.77196 292.97371 218.61852 283.6582 223.44922C283.32834 224.20705 282.8437 224.81067 282.29102 225.3457C283.19545 225.05983 284.11976 224.8392 285.08594 224.75C297.96523 219.55398 310.84729 214.36604 323.73047 209.18945C325.39772 208.52495 327.14708 206.90023 328.79102 209.15625L328.77344 209.15625C332.28279 213.95392 337.55744 213.85353 342.66992 214.23828C342.66692 214.24728 342.6666 214.25467 342.66602 214.26367A29.79453 29.79453 0 0 0 342.6875 214.25A18.386216 18.386216 0 0 0 350.51758 211.03711C354.19596 208.57707 355.69282 210.32608 356.3457 213.73633L356.32812 213.70117C356.78853 216.10874 357.09156 218.58082 356.28125 221.01172C347.88683 226.58471 338.10078 229.17907 329.18164 233.63281C327.49109 234.47808 325.77061 235.27762 324.06836 236.09375C323.45418 236.89415 322.74132 237.47733 321.9707 237.92969C323.50167 237.63339 325.04619 237.40334 326.61523 237.30078L354.31641 228.78906C350.02591 235.37639 347.41994 241.70666 341.32812 245.44336C341.29425 245.46296 341.26096 245.48265 341.22656 245.50195C341.27116 245.48685 341.31332 245.46998 341.35742 245.45508C338.52426 249.45994 333.19197 250.93015 331.01758 255.59375L320.78125 269.81641C318.53689 275.08627 314.14121 279.14939 312.3457 284.66992C312.3427 284.67192 312.34084 284.67378 312.33984 284.67578C312.00303 286.47562 311.66101 288.26841 311.32422 290.0625C311.05606 294.24224 314.54147 299.15626 311.96484 302.20508C309.56888 305.03239 304.50514 305.67343 300.55859 307.11914C270.7077 318.09802 240.82717 329.01068 210.92188 339.85352C208.95151 340.57056 206.56892 343.10615 204.77344 340.95508A7.1061498 7.1061498 0 0 1 204.05664 332.85156C204.05864 332.85056 204.0605 332.85021 204.0625 332.84961C206.41707 324.33954 209.58159 316.04392 209.17383 306.92188C209.01061 303.27263 212.45124 302.27577 215.51172 301.58789A8.4177853 8.4177853 0 0 1 220.27344 299.4375A.58294913 .58294913 0 0 1 221.03906 299.18164A211.39485 211.39485 0 0 1 246.54297 287.7207A2.6407597 2.6407597 0 0 1 249.03711 286.55469C252.33077 284.69508 255.65941 282.9813 259.32617 282.00195L281.3418 271.58203A8.5343756 8.5343756 0 0 1 281.32617 271.58594L280.16016 270.38477C259.96096 276.91379 239.68616 283.23253 219.60938 290.11133C214.07136 292.00591 210.78813 291.93573 209.84375 285.49414L204.3125 278.56836L201.95117 275.42578C201.95587 275.42378 201.9618 275.42292 201.9668 275.41992C201.96 275.41792 201.95231 275.41606 201.94531 275.41406A21.569118 21.569118 0 0 1 198.44727 266.30273C198.48598 264.26809 198.52977 262.23186 198.57617 260.19336C198.5763 260.18756 198.57603 260.18178 198.57617 260.17578C198.57817 260.17478 198.58003 260.17246 198.58203 260.17188C198.47231 256.01223 199.11856 251.81891 196.98633 247.85156C195.35407 244.80274 198.77383 244.93626 199.99219 244.3125C219.32862 234.29744 238.76549 224.49217 258.17188 214.58203C274.68682 206.17008 291.2482 197.84063 307.66406 189.23047C309.0085 188.52438 310.14785 188.10172 311.15625 188.04102zM 356.28125 221.01172C356.08306 220.88931 355.89161 220.78461 355.69922 220.67969A1.020161 1.020161 0 0 0 356.28125 221.01172zM 312.84375 307.83203L312.8457 307.83203C314.0783 307.91345 314.53166 308.96172 314.67188 310.78125C315.28397 318.79098 314.4148 326.41551 308.8418 332.79297C308.8366 332.79697 308.83508 332.80073 308.83008 332.80273A14.154005 14.154005 0 0 1 308.85156 332.79883C305.00991 342.12605 298.74974 349.40773 289.55664 353.50586C267.95835 363.13036 246.12168 372.2134 224.51758 381.83203C219.79569 383.93064 219.0093 382.59494 219.30078 378.25195C219.4232 376.37487 218.96189 374.45709 218.76953 372.5625L218.76953 372.55469L218.75781 372.55469A9.1056653 9.1056653 0 0 0 218.76953 372.55273C217.16633 365.65726 214.30403 359.22877 211.19141 352.93359C209.91475 350.34529 210.45025 349.43608 212.93945 348.39844C245.53797 335.11886 278.1043 321.76516 310.63672 308.33789C311.56217 307.95716 312.28348 307.79503 312.84375 307.83203zM 348.71094 319.75391L348.71289 319.75391C349.08387 319.75106 349.47206 319.80361 349.88086 319.91797C353.43683 320.90898 351.63057 324.54657 351.57227 327.15234C350.58705 339.3243 348.45807 350.83664 335.32422 356.29883C333.42967 357.09165 331.73501 358.3569 329.95117 359.40039C329.59136 360.04091 329.11491 360.54018 328.58008 360.9668C329.40791 360.62333 330.35123 360.85807 331.17578 360.54883L331.18164 360.51953L341.67578 357.33594C342.00783 360.7439 341.1983 363.63568 340.09766 366.49609C338.89616 372.08038 338.92509 378.26756 331.66016 380.35156C325.66278 382.06345 323.5785 381.28492 320.80273 375.17188C320.79563 375.17188 320.79016 375.17324 320.78516 375.17383C319.83494 371.58869 320.81514 368.17972 321.71289 364.75781C322.22205 364.12751 322.82149 363.66119 323.46484 363.27148C322.93188 363.25737 322.39217 363.06328 321.83594 362.55273C320.39024 355.67392 325.10571 349.64162 324.39453 342.59375C324.05059 339.21847 328.93429 336.38962 332.49609 336.95508C337.56192 337.75954 338.84022 334.81709 340.4375 331.52344L340.44531 331.51758C341.35754 329.29023 342.13716 326.99724 343.21289 324.85742C344.41665 322.45496 346.11407 319.77361 348.71094 319.75391zM 289.51562 357.92969L289.52344 357.94141C290.18799 365.85203 284.25534 371.63957 284.91406 378.67578C284.17956 381.93446 280.3187 382.68137 279.24023 385.67188C279.23723 385.67388 279.23833 385.67769 279.23633 385.67969C280.09577 390.22875 277.54234 392.6986 273.91797 394.69727C268.27503 397.81018 262.71351 401.11003 257.11719 404.28125C252.71592 414.54117 243.16209 418.80197 235.1582 414.08008C232.89893 413.83614 230.89607 413.09345 229.47461 411.18555C229.47011 411.18455 229.46689 411.18459 229.46289 411.18359C229.46189 411.1832 229.45957 411.18208 229.45898 411.18164L229.45508 411.18359L229.45508 411.17773C225.62193 408.9747 222.4991 406.1722 221.29883 401.7207C218.47153 396.79481 219.44026 393.82193 224.93164 391.08789C246.30256 380.47235 267.41602 369.338 289.51562 357.92969z"/></svg>
