<svg xmlns="http://www.w3.org/2000/svg" viewBox="0 0 448 512" height="16" class="icon icon-archive-square"><path d="M48 32C21.5 32 0 53.5 0 80L0 432C0 458.5 21.5 480 48 480L400 480C426.5 480 448 458.5 448 432L448 80C448 53.5 426.5 32 400 32L48 32zM 221.32031 96L357.95312 127.28906L352.47656 136.92969L90.791016 136.92969L82.605469 129.11133L221.32031 96zM 93.767578 144.37305L354.23242 144.37305L354.23242 170.41797L93.767578 170.41797L93.767578 144.37305zM 103.70312 177.86133L121.04297 177.86133L124.14844 179.42969L125.70117 204.52148L127.25586 245.29492L127.25586 284.50781L125.70117 333.38672L125.44336 366.31641L121.04297 367.62695L105.51367 367.62695L100.85547 366.31641L99.044922 333.38672L97.488281 284.76758L97.488281 245.55859L99.044922 204.52148L100.46484 179.29492L103.70312 177.86133zM 170.67578 177.86133L188.01953 177.86133L191.125 179.42969L192.67773 204.52148L194.23242 245.29492L194.23242 284.50781L192.67773 333.38672L192.42383 366.31641L188.01953 367.62695L172.48828 367.62695L167.82617 366.31641L166.01562 333.38672L164.46484 284.76758L164.46484 245.55859L166.01562 204.52148L167.44336 179.29492L170.67578 177.86133zM 256.25977 177.86133L273.60156 177.86133L276.70508 179.42969L278.25977 204.52148L279.81445 245.29492L279.81445 284.50781L278.25977 333.38672L278.00391 366.31641L273.60156 367.62695L258.06836 367.62695L253.41016 366.31641L251.59766 333.38672L250.04688 284.76758L250.04688 245.55859L251.59766 204.52148L253.02344 179.29492L256.25977 177.86133zM 326.95703 177.86133L344.30078 177.86133L347.41016 179.42969L348.96094 204.52148L350.51172 245.29492L350.51172 284.50781L348.96094 333.38672L348.70508 366.31641L344.30078 367.62695L328.77148 367.62695L324.11133 366.31641L322.29492 333.38672L320.74414 284.76758L320.74414 245.55859L322.29492 204.52148L323.72266 179.29492L326.95703 177.86133zM 93.767578 378.79102L354.23242 378.79102L354.23242 397.39453L93.767578 397.39453L93.767578 378.79102zM 82.607422 401.11719L365.39453 401.11719L365.39453 416L82.605469 416L82.607422 401.11719z"/></svg>
