<svg xmlns="http://www.w3.org/2000/svg" viewBox="0 0 448 512" height="16" class="icon icon-archive"><path d="M393.67442,430.13954V448H54.32558l.004,-17.86046zm-13.39535,-26.7907v22.32558H67.72093v-22.32558zm-279.82718,-241.11628 3.72578,1.88307 1.86463,30.111 1.86468,48.92719v47.05495l-1.86468,58.65578-.31033,39.51552-5.28008,1.57342H81.81596l-5.59041,-1.57342-2.1713,-39.51552-1.8682,-58.3425v-47.05139l1.8682,-49.24403 1.70425,-30.27304 3.88621,-1.72103zm 267.90907,0 3.73007,1.88307 1.86146,30.111 1.86147,48.92719v47.05495l-1.86147,58.65578-.30675,39.51552-5.28478,1.57342h-18.6361l-5.59153,-1.57342-2.17884,-39.51552-1.86146,-58.3425v-47.05139l1.86146,-49.24403 1.7117,-30.27304 3.8834,-1.72103zm-187.5377,0 3.7261,1.88307 1.86486,30.111 1.86485,48.92719v47.05495l-1.86485,58.65578-.30676,39.51552-5.2842,1.57342h-18.63779l-5.59457,-1.57342-2.17148,-39.51552-1.86128,-58.3425v-47.05139l1.86128,-49.24403 1.71153,-30.27304 3.87947,-1.72103zm 102.69768,0 3.72609,1.88307 1.86486,30.111 1.86486,48.92719v47.05495l-1.86486,58.65578-.30675,39.51552-5.2842,1.57342h-18.6378l-5.59099,-1.57342-2.17505,-39.51552-1.86128,-58.3425v-47.05139l1.86128,-49.24403 1.71152,-30.27304 3.883,-1.72103zm 96.75813,-40.18605v31.25581H67.72093V122.04651ZM 220.78476,64l163.95943,37.5464-6.57274,11.56988H64.14879l-9.82321,-9.383z"/></svg>
