<svg xmlns="http://www.w3.org/2000/svg" viewBox="0 0 448 512" height="16" class="icon icon-arxiv-square"><path d="M48 32C21.500027 32 0 53.500027 0 80L0 432C0 458.49997 21.500027 480 48 480L400 480C426.49997 480 448 458.49997 448 432L448 80C448 53.500027 426.49997 32 400 32L48 32zM 119.65039 96.003906C125.28756 96.137972 130.62109 102.61523 130.62109 102.61523L220.51758 188.85547L285.72461 129.72852L285.84766 129.61719L285.97852 129.50977C289.14377 126.40068 293.32537 124.54049 297.75391 124.26953L297.75781 124.25781C298.44106 124.25881 299.12356 124.30403 299.80078 124.39453C306.35934 125.95563 311.92292 130.27688 315.05664 136.24609C317.64859 142.62383 315.2443 147.65458 310.2168 154.18555L310.15039 154.27539L310.07617 154.36133L253.82031 220.80469L270.11523 236.43555C281.14298 246.51325 281.08425 263.90174 269.98828 273.9043L255.10938 287.73828L338.19531 387.75C342.1008 391.80004 343.677 397.55913 342.37695 403.0332C340.75484 408.86672 336.2853 413.47986 330.50586 415.28516C328.97205 415.75521 327.37765 415.996 325.77344 416C321.33377 415.92934 317.08527 414.17362 313.89062 411.08984L219.31445 321.01953L157.94531 378.07617C155.54021 381.06395 151.94176 382.8419 148.10742 382.9375C142.12088 382.9965 136.70232 379.40351 134.42383 373.86719C132.18619 368.49175 134.66583 361.00412 138.67188 356.73633L190.26953 293.35938L171.77734 275.74609C159.33149 263.30343 159.90594 245.34868 173.28711 231.9707L189.16992 217.10742C189.16992 217.10742 117.40064 130.92467 110.3457 120.54492C105.52888 113.64687 103.95229 109.94978 106.14844 104.67969C108.4562 99.302919 113.80085 95.868679 119.65039 96.003906zM 297.75391 129.04492L297.75391 129.05859C294.40621 129.36416 291.27986 130.8604 288.94141 133.27539L223.98633 192.18164L250.36133 217.48438L306.41992 151.26562C311.61979 144.50803 312.06639 141.61313 310.61719 138.05078C308.14154 133.68067 304.02792 130.47409 299.18555 129.14062C298.71138 129.07843 298.23215 129.04692 297.75391 129.04492zM 192.43555 220.59766L176.54883 235.46289C165.67347 246.33825 163.98401 261.18519 175.15625 272.35742L317.18945 407.64258C319.49582 409.87355 322.55769 411.15477 325.76562 411.23047C326.89686 411.22878 328.02077 411.05873 329.10156 410.72461C333.35216 409.38528 336.62637 405.97076 337.78711 401.66797C338.97453 397.73533 337.23199 394.24478 334.44531 390.75586L192.43555 220.59766z"/></svg>
