<svg xmlns="http://www.w3.org/2000/svg" viewBox="0 0 448 512" height="16" class="icon icon-arxiv"><path d="m119.65,351.996c-5.84961,.13477-11.1943,-3.29883-13.502,-8.67578-2.19629,-5.27051-.61914,-8.9668 4.19727,-15.8652 7.05469,-10.3799 78.8242,-96.5625 78.8242,-96.5625l-15.8828,-14.8633c-13.3809,-13.3779-13.9561,-31.333-1.50977,-43.7754l18.4922,-17.6133-51.5977,-63.377c-4.00586,-4.26758-6.48535,-11.7559-4.24805,-17.1309 2.27832,-5.53613 7.69727,-9.12891 13.6836,-9.07031 3.83398,.0957 7.43262,1.87402 9.83789,4.86133l61.3691,57.0566 94.5762,-90.0703c3.19434,-3.08398 7.44336,-4.83984 11.8828,-4.91016 1.60449,.0039 3.19824,.245117 4.73242,.714844 5.7793,1.80566 10.249,6.41797 11.8711,12.252 1.2998,5.47363-.27637,11.2334-4.18164,15.2832l-83.0859,100.011996 14.8789,13.834c11.0957,10.0029 11.1543,27.3906 .12695,37.4688l-16.2949,15.6309 56.2559,66.4434 .0742,.0859 .0664,.0899c5.02734,6.53125 7.43164,11.5615 4.83984,17.9395-3.13379,5.96875-8.69727,10.29-15.2559,11.8516-.67676,.0908-1.35938,.13574-2.04297,.13671l-.004,-.0117c-4.42871,-.27051-8.61035,-2.13086-11.7754,-5.24023l-.13086,-.10743-.12304,-.11132-65.207,-59.127-89.8965,86.2402c0,0-5.33398,6.47754-10.9707,6.61133zm 178.104,-33.041c.47852,-.002 .95703,-.0332 1.43164,-.0957 4.84277,-1.33301 8.95605,-4.54004 11.4316,-8.91016 1.44922,-3.5625 1.00293,-6.45703-4.19727,-13.2148l-56.0586,-66.2188-26.375,25.3027 64.9551,58.9062c2.33887,2.41504 5.46484,3.91113 8.8125,4.2168v.0137zM 192.436,227.402 334.446,57.244c2.78711,-3.48926 4.5293,-6.97949 3.3418,-10.9121-1.16113,-4.30273-4.43457,-7.71777-8.68555,-9.05664-1.08105,-.333984-2.20508,-.503906-3.33594,-.505859-3.20801,.07617-6.26953,1.35645-8.57617,3.58789l-142.033,135.284999c-11.1719,11.1719-9.48242,26.0195 1.39258,36.8945z"/></svg>
