<svg xmlns="http://www.w3.org/2000/svg" viewBox="0 0 448 512" height="16" class="icon icon-biorxiv-square"><path d="M48 32C21.5 32 0 53.5 0 80L0 432C0 458.5 21.5 480 48 480L400 480C426.5 480 448 458.5 448 432L448 80C448 53.5 426.5 32 400 32L48 32zM 25.220703 96L109.04492 96C136.30742 96 157.65952 101.52477 173.09766 112.5625C188.52893 123.60666 196.25 138.92856 196.25 158.5332C196.25 173.85941 191.06435 186.70325 180.70312 197.06445C174.84098 202.92662 169.093 207.2053 163.46289 209.9082C157.82775 212.61297 148.92856 215.43204 136.75977 218.35742L159.40625 248.43945C164.13919 254.7511 170.55949 262.52527 178.67188 271.76367C187.68141 281.90426 197.37262 292.2693 207.74023 302.85938C216.97681 312.55046 224.24541 319.59221 229.54297 323.98438C234.8355 328.37973 242.89382 333.6188 253.71094 339.70117L198.95508 339.70117C189.93868 339.70117 180.24736 334.51994 169.88477 324.15234C157.71598 311.76154 145.32291 296.55396 132.70508 278.52344C124.14 267.03164 116.59226 256.44108 110.05859 246.75C104.87295 239.09215 97.43608 227.48181 87.75 211.93359C130.11306 206.07646 151.29297 189.62643 151.29297 162.58594C151.29297 137.35164 133.37973 124.72852 97.550781 124.72852L84.033203 124.72852L84.033203 309.91211C84.033203 316.46084 85.216231 321.76472 87.582031 325.82617C89.947791 329.89218 94.512741 334.51945 101.27344 339.70508L23.529297 339.70508L23.529297 339.70312C29.835927 334.97017 34.230161 330.46704 36.712891 326.18359C39.190581 321.90517 40.431641 316.71894 40.431641 310.63477L40.431641 127.0957C40.431641 121.91511 39.367944 116.84671 37.246094 111.88672C35.829524 109.63789 34.412747 107.49306 32.998047 105.46484C31.583307 103.43665 28.991603 100.28345 25.220703 96zM 268.42188 174.6875C286.22757 174.80783 302.13421 182.43934 311.83594 203.27734C320.57642 222.04967 328.31614 241.28683 336.52539 260.30859C337.73314 263.0969 339.04229 265.83854 340.93164 269.98633C347.0877 261.91099 353.24709 255.01211 358.06836 247.2793C370.95525 226.61076 391.13247 193.74798 395.81836 184.70508C398.20881 179.86525 401.69473 176.43265 403.89648 176.2207C406.10011 176.0086 408.91407 175.933 411.29492 177.41992C413.67533 178.90866 415.50523 182.50065 413.83789 189.53906C412.17055 196.5775 411.21346 199.13979 408.9043 204.5625C395.38748 234.14192 375.55674 259.61704 354.71094 284.25977C350.77834 288.90911 350.60497 292.31367 352.80859 297.57422C362.21552 320.04027 371.03429 342.75126 380.375 365.24609C383.4808 372.72347 387.31842 379.92117 391.15234 387.06836C395.0283 394.29547 397.79683 398.11599 409.56641 397.95703C414.41627 397.94123 423.63581 396.64631 424.41602 403.66602C425.26982 411.33897 415.95334 412.48279 410.40039 413.61523C404.13217 414.89334 400.9761 415.3814 394.56445 415.39648C379.78319 415.42798 362.31583 409.77147 355.08008 396.64062C347.67255 383.19918 343.67526 373.39699 336.87891 355.03711C332.41826 342.98388 327.40807 331.12086 322.16211 317.71094C319.20845 320.8816 316.42755 323.09073 314.625 325.92383C292.25261 356.2551 279.26261 380.79239 269.24219 398.01758C261.34176 411.59787 260.68067 417.5964 251.29883 415.63672C242.74381 412.14034 245.21338 400.66043 245.88672 397.75195C249.85586 380.61177 262.41666 363.774 272.20508 348.97266C283.14597 332.4286 296.59561 317.55935 308.58398 301.68359C310.35817 299.33288 311.57741 294.85714 310.56836 292.37305C299.81976 265.92593 288.64398 239.64785 277.42578 213.39258C271.32471 200.37553 267.17407 192.07633 243.17773 192.97852C239.20857 192.61763 236.80233 191.5729 236.86719 186.99023C236.86719 181.43231 240.61918 179.45797 243.36914 178.64258C251.84213 176.1283 260.32838 174.6328 268.42188 174.6875z"/></svg>
