<svg xmlns="http://www.w3.org/2000/svg" viewBox="0 0 448 512" height="16" class="icon icon-ceur-square"><path d="M48 32C21.5 32 0 53.5 0 80L0 432C0 458.5 21.5 480 48 480L400 480C426.5 480 448 458.5 448 432L448 80C448 53.5 426.5 32 400 32L48 32zM 64 96L170.66797 96L170.66797 149.33398L117.33398 149.33398L117.33398 362.66602L224 362.66602L224 416L64 416L64 96zM 224 96L330.66602 96L384 96L384 416L277.33203 416L277.33203 362.66602L330.66602 362.66602L330.66602 149.33398L224 149.33398L224 96z"/></svg>
