<svg xmlns="http://www.w3.org/2000/svg" viewBox="0 0 448 512" height="16" class="icon icon-ciencia-vitae-square"><path d="M48 32C21.5 32 0 53.5 0 80L0 432C0 458.5 21.5 480 48 480L400 480C426.5 480 448 458.5 448 432L448 80C448 53.5 426.5 32 400 32L48 32zM 142.10156 177.88477L167.29883 203.08203L114.39453 256L166.67188 308.91797L142.10156 334.11523L64 256L142.10156 177.88477zM 305.25781 184.18555A23.307631 23.307631 0 0 1 328.57227 207.48828A23.307631 23.307631 0 0 1 305.25781 230.80273A23.307631 23.307631 0 0 1 281.95508 207.48828A23.307631 23.307631 0 0 1 305.25781 184.18555zM 252.98047 224.50391L305.88477 277.41992L358.80273 224.50391L384 249.70117L305.88477 327.81445L228.41016 249.70117L252.98047 224.50391zM 184.31445 232.05664A23.307631 23.307631 0 0 1 207.61719 255.37305A23.307631 23.307631 0 0 1 184.31445 278.67578A23.307631 23.307631 0 0 1 161 255.37305A23.307631 23.307631 0 0 1 184.31445 232.05664z"/></svg>
