<svg xmlns="http://www.w3.org/2000/svg" viewBox="0 0 512 512" height="16" class="icon icon-clarivate"><path d="M235.35568,7.9999988C211.96101,42.200846 193.19105,79.944801 179.68464,120.05202 275.49233,137.92323 362.26687,192.9131 424.19743,275.05203 449.10589,242.12159 469.54208,205.42916 484.90552,166.1 417.08876,88.469713 330.55362,33.645185 235.35568,7.9999988ZM 424.19743,275.05203C362.26787,345.46121 275.48737,392.62982 179.68464,407.96447 193.26677,442.34555 212.07277,474.70922 235.54945,504 330.65447,481.98322 417.14431,434.99416 484.90552,368.50404 469.53878,334.78298 449.11151,303.28698 424.19743,275.05203ZM 98.632613,122.50623c-16.251934,.1984-32.455925,1.15072-48.631144,2.96939-30.518549,97.68654-30.544667,201.45338-.06617,299.15016 43.178448,4.85915 86.861501,3.8989 129.747651,-2.84043C146.69829,339.91162 142.18137,250.51158 166.70197,166.1c3.69619,-12.84476 8.02461,-25.46333 12.9165,-37.78132-26.7764,-4.20509-53.90065,-6.1256-80.987546,-5.81246z"/></svg>
