<svg xmlns="http://www.w3.org/2000/svg" viewBox="0 0 448 512" height="16" class="icon icon-clarivate-square"><path d="M48 32C21.500027 32 0 53.500027 0 80L0 432C0 458.49997 21.500027 480 48 480L400 480C426.49997 480 448 458.49997 448 432L448 80C448 53.500027 426.49997 32 400 32L48 32zM 210.68164 96C272.0996 112.54526 327.92893 147.916 371.68164 198C361.76975 223.37362 348.58364 247.0456 332.51367 268.29102C348.58726 286.5071 361.76762 306.82849 371.68164 328.58398C327.96477 371.48079 272.16466 401.79564 210.80664 416C195.66041 397.10274 183.52632 376.22232 174.76367 354.04102C236.57182 344.1477 292.55915 313.71625 332.51367 268.29102C292.55851 215.29821 236.57502 179.82081 174.76367 168.29102C183.47747 142.41541 195.58832 118.06504 210.68164 96zM 122.4707 169.875L122.47266 169.875C139.9474 169.67309 157.44627 170.91215 174.7207 173.625C171.56466 181.57209 168.7733 189.71307 166.38867 198C150.56895 252.45904 153.48327 310.13728 174.76367 362.95898C147.09522 367.30694 118.91173 367.92594 91.054688 364.79102C71.391159 301.76089 71.408294 234.81453 91.097656 171.79102C101.53263 170.61776 111.98625 170.00305 122.4707 169.875z"/></svg>
