<svg xmlns="http://www.w3.org/2000/svg" viewBox="0 0 256 512" height="16" class="icon icon-closed-access"><path d="m128.23457,64.000002c-56.609494,0-102.672708,46.060038-102.672708,102.672708v95.80414C13.767936,281.15345 6.9308953,303.25789 6.9308953,326.93246 6.9308953,393.68256 61.24827,448 128.00153,448c66.75488,0 121.06757,-54.31744 121.06757,-121.06753 0,-23.36039-6.65696,-45.19142-18.16336,-63.70974v-96.55002c0,-56.61267-46.06008,-102.672707-102.67117,-102.672708zm 0,41.117078c33.93778,0 61.55256,27.61306 61.55256,61.55563v56.18267c-18.0994,-10.78622-39.22999,-16.99355-61.7856,-16.99355-22.36252,0-43.324422,6.10272-61.321059,16.71912v-55.90824c0,-33.94256 27.616291,-61.55563 61.554099,-61.55563zm-.23319,141.86412c44.08316,0 79.94664,35.86494 79.94664,79.95126 0,44.08159-35.86352,79.95354-79.94664,79.95354-44.084751,0-79.953565,-35.87195-79.953565,-79.95354 0,-44.08634 35.868814,-79.95126 79.953565,-79.95126zm .39477,46.38808c-18.73403,0-33.921939,15.18766-33.921939,33.9296 0,18.73088 15.187909,33.91734 33.921939,33.91734 18.73565,0 33.92194,-15.18646 33.92194,-33.91734 0,-18.74194-15.18629,-33.9296-33.92194,-33.9296z"/></svg>
