<svg xmlns="http://www.w3.org/2000/svg" viewBox="0 0 448 512" height="16" class="icon icon-closed-access-square"><path d="M48 32C21.5 32 0 53.5 0 80L0 432C0 458.5 21.5 480 48 480L400 480C426.5 480 448 458.5 448 432L448 80C448 53.5 426.5 32 400 32L48 32zM 224.19531 96C271.37123 96 309.75391 134.38333 309.75391 181.56055L309.75391 262.01953C319.34258 277.45146 324.89062 295.64434 324.89062 315.11133C324.89063 370.73641 279.63103 416 224.00195 416C168.37424 416 123.10938 370.73642 123.10938 315.11133C123.10937 295.38252 128.8065 276.96032 138.63477 261.39648L138.63477 181.56055C138.63477 134.38333 177.02074 96 224.19531 96zM 224.19531 130.26367C195.91381 130.26367 172.90039 153.27508 172.90039 181.56055L172.90039 228.15039C187.89758 219.30339 205.36652 214.21875 224.00195 214.21875C242.7983 214.21875 260.4074 219.3904 275.49023 228.37891L275.49023 181.56055C275.49023 153.27508 252.4768 130.26367 224.19531 130.26367zM 224.00195 248.48438C187.26466 248.48437 157.37305 278.37272 157.37305 315.11133C157.37305 351.84599 187.26466 381.73828 224.00195 381.73828C260.73789 381.73828 290.62305 351.84599 290.62305 315.11133C290.62305 278.37273 260.73792 248.48438 224.00195 248.48438zM 224.33008 287.14062C239.94313 287.14063 252.59766 299.79774 252.59766 315.41602C252.59766 331.02509 239.94313 343.67969 224.33008 343.67969C208.71839 343.67969 196.0625 331.02509 196.0625 315.41602C196.0625 299.79774 208.71839 287.14062 224.33008 287.14062z"/></svg>
