<svg xmlns="http://www.w3.org/2000/svg" viewBox="0 0 448 512" height="16" class="icon icon-coursera-square"><path d="M48 32C21.5 32 0 53.5 0 80L0 432C0 458.5 21.5 480 48 480L400 480C426.5 480 448 458.5 448 432L448 80C448 53.5 426.5 32 400 32L48 32zM 151.28906 174.26953L152.03711 174.26953C153.33576 174.28043 154.66617 174.30262 155.98633 174.35742C157.19819 174.41211 158.43462 174.56407 159.64648 174.63867C159.84117 174.66107 160.05545 174.6821 160.24609 174.7168C168.1458 175.3982 175.82071 176.90437 183.13672 179.34961C183.98074 179.62013 184.79276 179.9228 185.61523 180.21484C185.88575 180.30161 186.15609 180.40856 186.41602 180.50586C193.29857 183.09254 199.54159 186.27341 205.07227 189.97461L181.95703 231.47852C174.58778 224.17307 165.34497 220.42924 153.36523 219.97461L151.01758 219.9082C143.47478 219.9082 136.89382 221.47771 131.11523 224.62695A16.946578 16.946578 0 0 0 130.24023 225.11328C128.1738 226.34665 126.19209 227.73242 124.29883 229.36719C116.5176 236.1739 112.65497 244.05253 112.23242 254.18164C112.23242 254.32164 112.21994 254.47331 112.21094 254.64648C112.01627 261.01059 113.41326 267.01665 116.5625 272.89258C119.35444 278.07545 123.0877 282.23275 127.95703 285.46875A37.708483 37.708483 0 0 0 129.80859 286.63672C135.77128 290.1644 142.4917 292.01495 150.32617 292.32812C151.27807 292.38283 152.20989 292.42578 153.11914 292.42578C166.12845 292.42578 176.24598 287.62062 185.19531 277.80469C189.21007 272.22078 192.8037 265.45707 196.1582 258.67188L197.8457 255.25195L198.64844 253.68359L198.62695 253.66211L213.91797 222.74414A159.01529 159.01529 0 0 1 217.35938 217.05078C219.10206 214.14944 221.47192 210.92575 224.03711 207.80859L224.08008 207.85156L224.08984 207.87305C225.32321 206.34763 226.6439 204.78905 228.0293 203.23047L229.90039 201.26172L230.25781 200.87109L230.99414 200.14648L230.97266 200.14648L232.54102 198.48047L233.68945 197.35352C235.28011 195.89193 236.76112 194.56327 238.125 193.48047C244.82343 188.09124 253.0179 183.59916 262.42188 180.20312C271.75111 176.77242 281.67358 174.82459 291.93359 174.35938C293.43892 174.30478 294.93133 174.2832 296.35938 174.2832C310.9688 174.2832 324.65908 177.27137 337.05078 183.19141C345.28555 187.16207 352.59099 192.1833 358.90039 198.25391C363.21922 202.39774 367.08296 207.01884 370.45898 212.10547C378.02291 223.51207 382.48118 236.14214 383.67188 249.63672L383.67188 249.6582L383.67188 249.67969C383.76917 250.92363 383.85536 252.14636 383.91016 253.40234A133.97395 133.97395 0 0 1 384 256.87695L384 257.49414C383.92417 278.21795 375.79569 295.72804 360.81836 311.0625C345.00653 327.20901 323.08097 336.63593 298.48242 337.66406C296.81593 337.72916 297.1403 337.73047 295.53906 337.73047C281.71928 337.73047 269.20902 334.78648 257.70508 329.87305C252.96481 327.81719 247.02374 324.50411 242.42383 321.13867C237.8345 317.76266 231.13672 311.00977 231.13672 311.00977L252.69336 271.36914C257.8558 276.72664 268.32121 288.71642 284.75977 292.13672L284.86719 292.09375C289.14153 293.03512 293.67576 293.34917 298.33984 292.94922C320.74107 291.01184 337.45023 273.16514 335.6543 253.08008C333.84746 232.99502 314.21566 218.27632 291.81445 220.20312C278.45988 221.35119 267.12956 228.15688 260.53906 237.71289L260.46289 237.83203C257.63886 241.84642 255.50729 245.66628 252.55273 251.04492L251.55664 252.83984L250.36719 255.13477L250.36719 255.21094C250.36719 255.21094 230.3234 292.86166 224.16602 303.20703L223.42969 304.26562L222.69336 305.34961L221.11328 307.33008L216.96875 312.01367C215.8648 313.17231 214.69654 314.29955 213.52734 315.41406L212.83594 316.07227C210.84533 317.88023 208.80003 319.57929 206.61328 321.14844L204.79492 322.39258L203.71094 323.11914C202.25117 324.13669 200.77928 325.08764 199.2207 325.98633C196.35255 327.59814 193.55142 329.04983 190.66211 330.2832C179.10492 335.23894 166.21517 337.7168 152.28711 337.7168C150.72853 337.7168 149.16994 337.67447 147.58984 337.60938C122.97013 336.58161 102.463 327.87893 86.695312 311.73242C71.587474 296.34314 63.991 278.01172 64 257.16797C64 255.92257 64.031338 254.65834 64.085938 253.38086C64.735258 238.4783 69.259755 224.59453 77.548828 212.08398C85.859444 199.57344 97.071654 189.86593 110.90234 183.19922C123.25029 177.3007 136.75575 174.32433 151.28906 174.26953z"/></svg>
