<svg xmlns="http://www.w3.org/2000/svg" viewBox="0 0 448 512" height="16" class="icon icon-crossref-square"><path d="M48 32C21.5 32 0 53.5 0 80L0 432C0 458.5 21.5 480 48 480L400 480C426.5 480 448 458.5 448 432L448 80C448 53.5 426.5 32 400 32L48 32zM 335.37891 96L335.37891 191.80273L266.39648 214.51953L124.125 165.64258L335.37891 96zM 112.62109 169.42969L254.86719 218.30664L112.62109 267.18359L112.62109 169.42969zM 266.39648 222.09375L323.85547 241.0293L181.58398 289.88672L124.14453 270.9707L266.39648 222.09375zM 335.37891 244.81641L335.37891 342.57031L193.10742 293.69336L335.37891 244.81641zM 181.58398 297.48047L323.85547 346.35742L112.62109 416L112.62109 320.19727L181.58398 297.48047z"/></svg>
