<svg xmlns="http://www.w3.org/2000/svg" viewBox="0 0 448 512" height="16" class="icon icon-cv-square"><path d="M48 32C21.5 32 0 53.5 0 80L0 432C0 458.5 21.5 480 48 480L400 480C426.5 480 448 458.5 448 432L448 80C448 53.5 426.5 32 400 32L48 32zM 146.88086 165.23438C166.51551 165.23438 183.96176 172.02263 196.80859 182.20508C208.68854 191.6569 214.25262 201.11234 219.10742 209.59766L185.18359 226.54688C182.75692 220.98152 179.83663 215.15976 172.33789 208.86523C164.0899 202.3133 155.85965 200.38086 148.81445 200.38086C121.18778 200.38086 106.64453 226.07442 106.64453 254.66797C106.64453 292.24121 125.80523 310.88867 148.81445 310.88867C171.11309 310.88867 180.09182 295.37817 185.89453 285.45312L219.59961 302.66016C213.28505 312.58559 207.22637 322.29529 193.65039 331.72852C186.3879 336.8192 169.67288 346.76562 145.91406 346.76562C100.58611 346.76562 64 313.80959 64 255.87109C64 205.2352 98.415334 165.23438 146.88086 165.23438zM 222.36328 170.5625L267.92773 170.5625L303.31055 292.24023L338.43555 170.5625L384 170.5625L324.62109 341.67383L281.00977 341.67383L222.36328 170.5625z"/></svg>
