<svg xmlns="http://www.w3.org/2000/svg" viewBox="0 0 448 512" height="16" class="icon icon-datacite-square"><path d="M48 32C21.5 32 0 53.5 0 80L0 432C0 458.5 21.5 480 48 480L400 480C426.5 480 448 458.5 448 432L448 80C448 53.5 426.5 32 400 32L48 32zM 200.96289 96.009766C217.91862 96.321421 238.04267 103.88028 261.21875 120.89844C211.06566 98.021586 185.05422 123.22306 177.86719 165.14062C178.35416 165.13793 178.84115 165.11914 179.32812 165.11914C321.82029 160.20562 443.55664 200.60828 421.71875 257.38672C405.36866 298.74273 324.0549 328.96045 230.31836 341.02734C266.09354 380.69713 312.31908 392.194 338.19531 335.99414C339.83318 335.44817 340.92276 335.45226 341.46875 334.90625C320.95914 459.74751 229.10408 421.806 179.15625 345.71875C128.5757 348.51627 77.159914 345.99916 32.464844 337.09375C29.189164 336.54777 26.462162 335.99714 23.732422 335.45117C69.962242 335.68583 119.68235 329.43335 163.78125 318.1875C159.52551 309.06574 155.90315 299.67354 153.11719 290.14258C117.71595 203.98532 134.63339 98.501571 197.61523 96.044922L197.61523 96.042969C198.71742 95.999977 199.83251 95.988989 200.96289 96.009766zM 177.66406 166.44141C171.87319 202.41104 179.65549 250.24216 197.88086 290.6875C200.16779 295.74872 202.67482 300.651 205.30273 305.43359C244.48806 291.08161 275.11015 272.25163 287.96289 250.28516C314.47172 204.69 250.85849 175.11529 177.66406 166.44141z"/></svg>
