<svg xmlns="http://www.w3.org/2000/svg" viewBox="0 0 448 512" height="16" class="icon icon-dataverse-square"><path d="M48 32C21.5 32 0 53.5 0 80L0 432C0 458.5 21.5 480 48 480L400 480C426.5 480 448 458.5 448 432L448 80C448 53.5 426.5 32 400 32L48 32zM 251.91406 96C268.59556 96 282.16797 109.57163 282.16797 126.25391C282.16797 138.08865 275.32435 148.32955 265.40039 153.29883L272.07617 188.47461C272.08627 188.47461 272.09256 188.47266 272.10156 188.47266L272.10352 188.47266C295.77553 188.47266 315.03516 207.73166 315.03516 231.40625C315.03516 255.07826 295.77554 274.33789 272.10352 274.33789C267.16195 274.33789 262.43496 273.45468 258.01367 271.91211L243.21875 296.96289C258.07334 309.31643 267.54883 327.92482 267.54883 348.70898C267.54883 385.81297 237.36289 416 200.25781 416C163.15273 416 132.96484 385.81297 132.96484 348.70898C132.96484 311.60499 163.15236 281.41797 200.25781 281.41797C212.04989 281.41797 223.13525 284.47556 232.7832 289.82617L246.83398 266.03516C236.15095 258.21777 229.17383 245.62755 229.17383 231.40625C229.17383 212.0848 242.00504 195.71636 259.5918 190.3457L253.1582 156.44727C252.74222 156.46497 252.3326 156.51172 251.91406 156.51172C235.23111 156.51172 221.65625 142.93846 221.65625 126.25586C221.65625 109.57182 235.23146 96 251.91406 96zM 251.91406 106.51367C241.02722 106.51367 232.16992 115.3694 232.16992 126.25586C232.16992 137.14232 241.02722 145.99805 251.91406 145.99805C262.79941 145.99805 271.65625 137.14232 271.65625 126.25586C271.65625 115.3694 262.80087 106.51367 251.91406 106.51367zM 272.10156 201.08984C255.3858 201.08984 241.78711 214.68902 241.78711 231.40625C241.78711 248.12202 255.38544 261.7207 272.10156 261.7207C288.81733 261.7207 302.41997 248.12239 302.41797 231.40625C302.41797 214.69048 288.81733 201.08984 272.10156 201.08984zM 200.25781 294.0332C170.10862 294.0332 145.58008 318.56087 145.58008 348.70898C145.58008 378.85564 170.10862 403.38281 200.25781 403.38281C230.40702 403.38281 254.93359 378.85564 254.93359 348.70898C254.93359 318.56124 230.40702 294.0332 200.25781 294.0332z"/></svg>
