<svg xmlns="http://www.w3.org/2000/svg" viewBox="0 0 448 512" height="16" class="icon icon-dblp-square"><path d="M48 32C21.5 32 0 53.5 0 80L0 432C0 458.5 21.5 480 48 480L400 480C426.5 480 448 458.5 448 432L448 80C448 53.5 426.5 32 400 32L48 32zM 105.66406 96.009766C107.80007 96.154751 110.66797 97.912109 110.66797 97.912109L203.33203 154.73242C212.39569 160.29071 214.49414 168.12109 214.49414 168.12109C223.498 201.92859 222.52132 198.45356 223.49805 201.92773L232.23047 234.51367L247.31836 290.82812C247.3959 291.11719 247.43658 291.38672 247.48828 291.66406C248.85259 298.89806 241.95508 302.125 241.95508 302.125L224.50391 310.23828C224.50391 310.23828 194.21377 324.31398 142.20117 348.48828C134.73802 351.95605 132.64258 344.13086 132.64258 344.13086L99.917969 222.00195C97.819214 214.17333 105.28125 210.70508 105.28125 210.70508L130.20898 199.12109L130.21289 199.11914L103.70117 100.18359C102.78349 96.758065 104.00273 95.897003 105.66406 96.009766zM 309.45117 162.78906C313.97225 162.86707 315.35742 168.03516 315.35742 168.03516L348.08203 290.16211C350.18078 297.99073 342.7197 301.45898 342.7207 301.45898L317.82812 313.0293C344.29604 411.80769 325.80592 342.80802 344.29688 411.81445C346.39445 419.64424 337.33398 414.08594 337.33398 414.08594L244.66992 357.26562C235.60626 351.70733 233.50781 343.87891 233.50781 343.87891L233.40625 343.46484L226.68945 318.33594L251.68555 306.64844C251.68555 306.64844 257.89934 302.4175 257.2168 296.1875C257.16394 295.91134 257.12718 295.63947 257.05078 295.35156L242.53711 240.95312L242.55859 240.9668L231.08789 198.17969L305.79883 163.67578C307.19774 163.02557 308.40785 162.77106 309.45117 162.78906z"/></svg>
