<svg xmlns="http://www.w3.org/2000/svg" viewBox="0 0 384 512" height="16" class="icon icon-dblp"><path d="m32.247025,40.012819c-2.2428,-.15223-3.88806,1.01161-2.64918,5.63608l35.79017,133.561671-.006,.003-33.65224,15.63787c0,0-10.07439,4.68192-7.24107,15.25055l44.17766,164.87452c0,0 2.82977,10.56543 12.90503,5.88394 70.217005,-32.6353 111.107235,-51.63872 111.107235,-51.63872l23.56059,-10.95302c0,0 9.31217,-4.3568 7.47035,-14.12271-.0698,-.3744-.12453,-.73759-.22928,-1.12784L203.1111,226.99466 191.32151,183.0029c-1.31859,-4.69013 0,0-12.15521,-45.64012 0,0-2.83181,-10.56955-15.06775,-18.07325L39.001635,42.581439c0,0-3.87101,-2.37289-6.75461,-2.56862zM 307.35817,130.16525c-1.40848,-.0243-3.0411,.31822-4.92962,1.196l-100.86067,46.58206 15.48604,57.76125-.0279,-.0186 19.59148,73.4394c.10312,.38867 .15484,.75503 .22619,1.12784 .92144,8.4105-7.46725,14.12272-7.46725,14.12272l-33.74519,15.77729 9.06605,33.92491 .13945,.55771c0,0 2.83181,10.56955 15.06775,18.07325l125.09672,76.70827c0,0 12.23242,7.50274 9.40069,-3.06747-24.9628,-93.15868-.003,-.01-35.73439,-133.36028l33.60575,-15.61926c-.002,0 10.0713,-4.68193 7.23798,-15.25056L315.33357,137.2483c0,0-1.87194,-6.97773-7.9754,-7.08305z"/></svg>
