<svg xmlns="http://www.w3.org/2000/svg" viewBox="0 0 448 512" height="16" class="icon icon-depsy-square"><path d="M48 32C21.5 32 0 53.5 0 80L0 432C0 458.5 21.5 480 48 480L400 480C426.5 480 448 458.5 448 432L448 80C448 53.5 426.5 32 400 32L48 32zM 224 96C246.42007 96 267.75969 100.61859 287.12891 108.94531L263.875 108.94531L263.875 205.93555C255.14435 197.07544 245.63633 190.43078 235.34961 186C225.06544 181.57066 214.06364 179.35352 202.34375 179.35352C176.86629 179.35352 155.22157 188.99413 137.40039 208.27148C119.58063 227.55138 110.66992 252.27642 110.66992 282.45117C110.66992 311.54711 119.87618 335.88551 138.29492 355.46289C156.71367 375.0403 178.54271 384.82812 203.77734 384.82812C215.02002 384.82812 225.45313 382.82244 235.08398 378.81055C244.70789 374.80125 254.30578 368.24598 263.875 359.14453L263.875 379.79883L312.9082 379.79883L312.9082 122.96484C355.77371 151.66885 384 200.53592 384 256C384 344.36518 312.36519 416 224 416C135.63482 416 64 344.36518 64 256C64 167.63482 135.63482 96 224 96zM 212.33203 224.61523C227.84543 224.61523 240.6738 229.88529 250.8125 240.41992C260.95667 250.95857 266.03125 264.72922 266.03125 281.73047C266.03125 299.09303 260.95667 313.13486 250.8125 323.84961C240.67233 334.56727 227.90235 339.92383 212.50781 339.92383C197.58905 339.92383 185.03012 334.4775 174.82617 323.58008C164.62221 312.6856 159.52148 298.79292 159.52148 281.91016C159.52148 265.14625 164.53474 251.40821 174.55859 240.68945C184.5839 229.97471 197.17485 224.61523 212.33203 224.61523z"/></svg>
