<svg xmlns="http://www.w3.org/2000/svg" viewBox="0 0 448 512" height="16" class="icon icon-doi-square"><path d="M48 32C21.5 32 0 53.5 0 80L0 432C0 458.5 21.5 480 48 480L400 480C426.5 480 448 458.5 448 432L448 80C448 53.5 426.5 32 400 32L48 32zM 224 96C312.36522 96 384 167.63482 384 256C384 344.36519 312.36522 416 224 416C135.63483 416 64 344.36519 64 256C64 167.63482 135.63483 96 224 96zM 156.41406 156.93359L156.41406 220.48242C153.02052 216.96092 147.2893 213.34456 144.08789 211.80859C138.51851 209.12087 130.70047 208.55273 124.36328 208.55273C113.47937 208.55273 103.2244 214.34332 94.837891 221.57812C84.274087 230.66864 78.992188 242.83291 78.992188 258.07031C78.992188 273.05177 83.834712 286.94854 94.142578 296.03906C102.78503 303.6563 112.64466 307.1582 123.7207 307.1582C130.57159 307.1582 137.87276 305.19762 143.25 302.18945C146.32197 300.46169 153.40284 296.61143 156.41211 292.83398L156.41211 304.89648L186.04883 304.89648L186.04883 156.93359L156.41406 156.93359zM 325.07031 157.54492C320.14112 157.54492 315.94758 159.27313 312.49023 162.73047C309.09707 166.12401 307.39839 170.28567 307.40039 175.21484C307.40039 180.144 309.09707 184.3376 312.49023 187.79492C315.94614 191.25227 320.13968 192.98047 325.07031 192.98047C330.06363 192.98047 334.25719 191.28382 337.65039 187.89062C341.10773 184.43328 342.83398 180.20816 342.83398 175.21484C342.83398 170.28529 341.10773 166.12366 337.65039 162.73047C334.19304 159.27313 329.99948 157.54492 325.07031 157.54492zM 247.04688 207.26953C228.73749 207.26953 214.61977 212.97785 204.69727 224.39258C196.50252 233.84845 192.4043 244.68885 192.4043 256.91406C192.4043 270.49006 196.47209 281.9365 204.60156 291.25781C214.46282 302.60438 228.29038 308.2793 246.08789 308.2793C263.82065 308.2793 277.61793 302.60561 287.47656 291.25977C295.60647 281.93869 299.67387 270.76012 299.67188 257.72461C299.67188 244.8231 295.57561 233.71392 287.38086 224.39258C277.32855 212.97676 263.88408 207.26953 247.04688 207.26953zM 309.32031 210.73633L309.32031 304.82227L340.81836 304.82227L340.81836 210.73633L309.32031 210.73633zM 133.41406 234.39062C139.04724 234.39063 146.2632 237.91213 150.23242 241.88281C154.20163 245.78824 155.74805 252.53285 155.74805 258.16602C155.74805 263.86337 152.44578 270.42076 148.47656 274.32617C144.5726 278.23158 137.79646 280.62305 132.09766 280.62305C125.75901 280.62305 121.48289 277.37802 117.51367 272.64062C114.24846 268.79936 112.39648 263.31589 112.39648 258.38672C112.39648 253.45609 114.02971 247.53461 117.29492 243.69336C121.3283 238.95596 127.13921 234.39258 133.41406 234.39258L133.41406 234.39062zM 246.08789 235.93945C251.84904 235.93945 256.74735 238.07148 260.7793 242.32617C264.87646 246.51414 266.92578 251.6459 266.92578 257.72461C266.92578 263.87149 264.90983 269.06807 260.875 273.32422C256.84197 277.51217 251.91466 279.60938 246.08789 279.60938C239.55856 279.60938 234.24366 277.04153 230.14648 271.9082C226.81856 267.78804 225.15234 263.06066 225.15234 257.72461C225.15234 252.45637 226.81856 247.76081 230.14648 243.64062C234.24403 238.5073 239.55856 235.93945 246.08789 235.93945z"/></svg>
