<svg xmlns="http://www.w3.org/2000/svg" viewBox="0 0 448 512" height="16" class="icon icon-dryad-square"><path d="M48 32C21.5 32 0 53.5 0 80L0 432C0 458.5 21.5 480 48 480L400 480C426.5 480 448 458.5 448 432L448 80C448 53.5 426.5 32 400 32L48 32zM 223.06445 96.007812C227.66981 96.055033 232.24284 96.31701 236.76367 96.792969C341.40384 107.7946 389.75046 193.54408 383.45703 266.66016C374.52364 370.38511 291.36335 416.38637 225.75 415.99805C227.97651 393.13847 231.23037 370.55895 245.07031 351.70117C253.15022 340.68637 265.80324 337.20684 279.50977 338.74609C291.29637 340.09796 300.72388 341.58375 312.53711 342.11914C318.9906 341.69098 326.25661 340.90012 333.58984 336.71094C316.42999 335.19845 283.79035 333.23085 283.07031 325.81641C283.60369 316.20691 294.48291 310.43796 305.20312 304.20117C323.56318 293.49416 337.25622 279.57521 345.34961 260.00781C345.8028 258.93699 349.04288 248.71258 348.88281 249.50195C328.85625 274.39594 306.67116 291.6879 285.95117 307.85547C279.01789 313.23587 270.0966 316.28743 261.73633 319.48633C258.45618 320.74452 251.80339 320.7435 250.91016 319.07031C249.24364 315.8985 249.53751 310.66626 250.9375 307.05273C256.27098 293.17352 264.14973 280.04315 267.75 265.80273C272.64342 246.55664 274.7371 225.90585 276.4707 206.09766C278.40407 184.06769 277.79113 162.15964 278.25781 139.99609C278.33761 136.48941 278.25647 130.14472 277.05664 126.26367C272.89672 131.04171 272.72461 138.76367 272.72461 138.76367C268.95118 159.6694 269.92358 188.99458 265.76367 188.00391C261.59029 187.01359 247.1908 143.28766 250.85742 117.99219C241.45736 123.80078 244.53793 144.47897 247.95117 156.75195C250.85799 167.17791 254.2561 178.04674 258.10938 187.65625C262.17595 197.77444 260.25679 209.56548 260.05664 220.51367C259.9232 227.56691 258.09633 234.68583 256.34961 241.60547C254.17633 250.14452 249.22958 252.56771 242.49609 246.90625C234.50952 240.20103 227.21666 232.17118 221.36328 223.51172C204.53666 198.60453 190.80305 172.22399 188.05664 141.42773C187.72342 137.82735 186.26925 134.33411 185.0293 129.62305C179.46941 143.79648 182.37567 150.83574 183.40234 160.52539C187.08244 195.0556 206.57648 222.33281 225.89648 249.5957C235.22982 262.79202 238.14904 276.55073 232.32227 292.79883C225.4557 311.96439 213.61529 318.29574 193.77539 310.80078C171.77533 302.46264 163.33642 284.16568 157.89648 262.45703C153.26991 243.96047 152.42904 222.57349 150.0957 191.58984C148.92248 175.8237 146.33628 165.41226 140.12305 164.3418C141.28316 171.87702 144.04387 183.81368 145.15039 192.13867C147.20372 207.58346 146.68339 217.92971 144.75 233.36133C144.17651 238.15291 140.89734 241.75216 139.23047 240.77539C125.99062 233.09306 121.12357 204.49199 119.76367 192.76758C112.49715 201.38677 120.69617 230.32359 138.41602 252.62109C144.57602 259.71456 147.53612 268.07814 151.96289 276.61719C155.45633 283.40291 154.89649 290.1221 149.50977 295.60938C143.92327 301.32428 135.8162 302.38287 128.49609 300.48242C124.41603 299.4116 119.39027 297.20305 113.2168 295.28906C119.69689 305.13973 129.93674 305.2201 137.66992 306.10352C145.43008 306.98696 152.04331 306.4375 159.83008 306.4375C172.57664 306.4517 179.25563 317.09097 185.62891 325.66992C202.74901 348.73047 202.52223 373.79758 194.78906 399.88281C193.82911 403.13514 193.33713 406.5354 192.45703 409.81445C192.16354 410.93867 191.34906 411.94329 190.78906 412.93359C102.09579 392.2822 55.683849 313.07523 65.230469 239.50391C77.755619 142.85153 153.98406 95.299507 223.06445 96.007812z"/></svg>
