<svg xmlns="http://www.w3.org/2000/svg" viewBox="0 0 448 512" height="16" class="icon icon-elsevier-square"><path d="M48 32C21.5 32 0 53.5 0 80L0 432C0 458.5 21.5 480 48 480L400 480C426.5 480 448 458.5 448 432L448 80C448 53.5 426.5 32 400 32L48 32zM 310.93945 96L332.16406 96L332.16406 182.12305L310.93945 182.12305L302.77539 135.5918L199.91797 135.5918L199.91797 251.50977L275.83594 251.50977L281.55078 217.22461L301.55078 217.22461L301.55078 307.42773L281.55078 307.42773L275.83594 273.55078L199.91797 273.55078L199.91797 364.98047C199.91797 385.38863 201.14269 387.83606 202.36719 389.06055C203.59168 390.28504 207.67319 391.50977 241.14258 391.50977L271.34766 391.50977C295.83746 391.50977 307.67434 389.8784 312.98047 384.57227C318.69476 378.85799 325.2254 363.3463 333.38867 329.46875L353.79688 329.46875L345.63281 414.36719L175.42773 414.36719C146.8563 414.36719 116.24394 415.18367 94.203125 416L94.203125 396L147.26562 391.91797L147.67383 391.50977L147.67383 135.5918L94.611328 131.50977L94.611328 111.10156C123.18276 112.32606 143.59108 113.14258 156.24414 113.14258L306.85742 113.14258L310.93945 96z"/></svg>
