<svg xmlns="http://www.w3.org/2000/svg" viewBox="0 0 320 512" height="16" class="icon icon-elsevier"><path d="M68.40816,418.61224V111.5102L4.7347,106.61224v-24.4898c34.28571,1.46939 58.77551,2.44898 73.95918,2.44898H259.42857L264.32653,64h25.46939V167.34694H264.32653L254.53061,111.5102H131.10204v139.10204h91.10204l6.85715,-41.14286h24v108.2449h-24l-6.85715,-40.65306h-91.10204v109.71429c0,24.48979 1.46939,27.42857 2.93878,28.89796 1.46939,1.46938 6.36734,2.93877 46.53061,2.93877h36.2449c29.38775,0 43.59184,-1.95918 49.95918,-8.32653 6.85715,-6.85714 14.69388,-25.46939 24.4898,-66.12245h24.48979l-9.79591,101.87755h-204.2449c-34.28572,0-71.02041,.9796-97.46939,1.95919v-24l63.67347,-4.89796z"/></svg>
