<svg xmlns="http://www.w3.org/2000/svg" viewBox="0 0 448 512" height="16" class="icon icon-figshare-square"><path d="M48 32C21.5 32 0 53.5 0 80L0 432C0 458.5 21.5 480 48 480L400 480C426.5 480 448 458.5 448 432L448 80C448 53.5 426.5 32 400 32L48 32zM 224.05273 96C231.5002 96.053215 237.33317 101.98743 237.29297 109.49414C237.27946 116.9341 231.25975 122.93416 223.89258 122.88086C216.56517 122.84077 210.4931 116.68082 210.5332 109.34766C210.59998 101.9744 216.68554 95.95988 224.05273 96zM 268.95117 103.13281C276.54535 102.99939 282.67151 108.94715 282.72461 116.48047C282.7779 124.01379 276.6657 130.17291 269.20508 130.13281C261.94447 130.07957 255.79141 123.96107 255.72461 116.73438C255.64432 109.45445 261.66391 103.25269 268.95117 103.13281zM 178.59375 103.17383C186.04123 103.13374 191.98111 109.02633 192.00781 116.51953C192.04794 123.973 186.10904 130.01331 178.71484 130.06641C171.36081 130.12001 165.35465 124.0806 165.31445 116.64062C165.28781 109.16089 171.14628 103.22713 178.59375 103.17383zM 243.36719 122.35938C249.53335 122.39911 254.76498 127.71915 254.73828 133.89258C254.69814 140.06562 249.4252 145.30572 243.23242 145.26562C237.09291 145.2124 231.76708 139.85301 231.83398 133.75977C231.91427 127.62644 237.29449 122.31928 243.36719 122.35938zM 204.62109 122.45312C210.854 122.45312 215.91278 127.64078 215.85938 133.94727C215.7926 140.22717 210.60082 145.32038 204.39453 145.17383C198.16162 145.0535 193.26392 139.8523 193.35742 133.49219C193.4906 127.39898 198.54836 122.45312 204.62109 122.45312zM 137.67383 123.8125C145.28152 123.75929 151.2207 129.70612 151.2207 137.35938C151.2207 145.06621 145.33497 150.94635 137.6875 150.90625C130.28017 150.87963 123.95292 144.49262 124.09961 137.19922C124.27295 129.95902 130.42673 123.8793 137.67383 123.8125zM 309.87305 123.82617C317.48036 123.69273 323.525 129.61357 323.5918 137.24023C323.68522 144.90697 317.81419 150.89205 310.19336 150.90625C302.73274 150.93287 296.43256 144.70602 296.47266 137.35938C296.51282 130.13267 302.63906 123.9595 309.87305 123.82617zM 280.10938 134.22656C286.3423 134.22656 291.45441 139.33268 291.50781 145.58594C291.54797 152.0525 286.47586 157.30717 280.10938 157.29297C274.03664 157.26635 268.73827 152.07881 268.57812 145.95898C268.40476 139.86574 273.94322 134.22656 280.10938 134.22656zM 167.59766 134.40039C173.79043 134.25347 179.00863 139.37246 179.04883 145.65234C179.07548 151.94571 174.04349 157.13228 167.81055 157.14648C161.63088 157.15963 156.53189 151.98674 156.55859 145.69336C156.59873 139.56004 161.49828 134.56038 167.59766 134.40039zM 223.94727 143.4668C229.366 143.4668 233.43594 147.6274 233.36914 153.10742C233.28885 158.30741 229.20472 162.3457 223.98633 162.3457C218.68767 162.3457 214.2843 157.89213 214.4043 152.71875C214.52472 147.65183 218.83546 143.4935 223.94727 143.4668zM 255.95117 148.50586L255.95312 148.50586C261.39852 148.54595 265.33371 152.62571 265.25391 158.18555C265.18713 163.27872 260.91614 167.55951 255.87109 167.59961C250.82606 167.61272 246.12955 162.95987 246.15625 157.91992C246.1694 152.80011 250.66599 148.47916 255.95117 148.50586zM 191.79492 148.55859L191.79492 148.56055C197.01366 148.41398 201.283 152.40009 201.42969 157.54688C201.58989 162.85332 197.42735 167.33359 192.20898 167.40039C187.17746 167.46675 182.82576 163.23967 182.71875 158.14648C182.6122 152.9731 186.65646 148.71858 191.79492 148.55859zM 105.36133 156.40039C112.79531 156.40039 118.80301 162.32028 118.88281 169.70703C118.9361 177.13352 112.52915 183.50592 105.14844 183.35938C97.781261 183.22595 91.909119 177.14645 91.949219 169.69336C91.988999 162.16004 97.780291 156.41459 105.36133 156.40039zM 342.69141 156.45312C350.15239 156.50636 356.09219 162.50655 356.02539 169.91992C355.97175 177.25308 349.7656 183.34535 342.46484 183.25195C335.12428 183.17174 329.02567 176.97311 329.10547 169.67969C329.18576 162.29293 335.21728 156.41303 342.69141 156.45312zM 136.53906 157.18555C142.89207 157.19867 147.9233 162.17342 147.9375 168.4668C147.95064 174.76017 142.9455 179.81193 136.61914 179.86523C130.21251 179.94509 124.79402 174.59898 124.92773 168.3457C125.0478 162.10592 130.19956 157.15885 136.53906 157.18555zM 311.76758 157.26562C317.92023 157.38558 322.69922 162.32002 322.69922 168.5332C322.67257 174.91991 317.73371 179.78683 311.30078 179.70703C304.92114 179.66694 300.11568 174.73275 300.20898 168.2793C300.3159 161.94619 305.34779 157.13207 311.76758 157.26562zM 237.56055 163.03906C241.7246 163.17248 245.23519 166.8269 245.27539 171.08008C245.27539 175.73322 241.89771 179.05246 237.21289 178.97266C232.91526 178.90595 229.36459 175.37288 229.33789 171.13281C229.33789 166.87964 233.35635 162.91918 237.56055 163.03906zM 163.51367 163.08008C168.58535 163.18689 172.73568 167.4665 172.70898 172.61328C172.69585 177.85336 168.65196 181.93111 163.43359 181.94531L163.43164 181.94531C158.25341 181.97229 154.03686 177.87865 153.94336 172.71875C153.86345 167.46552 158.32195 162.9732 163.51367 163.08008zM 284.53906 163.08008L284.54102 163.08008C289.59868 163.08119 293.88168 167.36063 293.92188 172.45312C293.96202 177.70636 289.95986 181.83841 284.78125 181.94531C279.4293 182.03864 275.03662 177.73353 275.10352 172.4668C275.1568 167.40089 279.50836 163.09539 284.53906 163.08008zM 210.73438 163.17383C215.03202 163.33388 218.44793 166.93326 218.39453 171.22656C218.32776 175.5997 214.92409 178.97318 210.51953 178.95898C206.16828 178.93236 202.67301 175.4927 202.63281 171.21289C202.57954 166.79931 206.39661 163.02728 210.73438 163.17383zM 263.01172 171.63867C267.38926 171.66529 270.75326 175.06722 270.72656 179.48047C270.72656 183.76028 267.14862 187.34674 262.9043 187.30664C258.70009 187.26689 255.05611 183.56005 255.07031 179.38672C255.0838 175.16013 258.7141 171.62447 263.01172 171.63867zM 184.73438 171.66602C189.16557 171.5592 192.62283 174.83941 192.70312 179.21289C192.78342 183.5864 189.48565 187.14598 185.20117 187.2793C180.91668 187.41273 177.30037 183.94545 177.19336 179.63867C177.09996 175.25204 180.41012 171.77292 184.73438 171.66602zM 223.8125 178.29297C227.2295 178.18652 230.48698 181.21289 230.67383 184.67969C230.83404 188.07975 227.81741 191.34653 224.33398 191.5332L224.33398 191.53125C220.65057 191.74489 217.38004 188.66518 217.33984 185.01172C217.32633 181.50521 220.28894 178.41286 223.8125 178.29297zM 201.83203 181.94531C205.58222 181.89209 208.46512 184.65198 208.54492 188.33203C208.57157 192.02523 205.75643 194.85156 202.00586 194.85156C198.44218 194.85156 195.69162 192.25349 195.54492 188.69336C195.42485 184.96007 198.14825 182.03851 201.83203 181.94531zM 245.75586 182C249.45276 181.93326 252.37553 184.79946 252.36133 188.43945C252.34782 191.97258 249.63809 194.69196 246.08789 194.78516C242.4709 194.86536 239.70899 192.3199 239.54883 188.75977C239.3886 185.01299 242.05894 182.0798 245.75586 182zM 140.49023 185.93164C145.77576 185.8919 150.23295 190.22627 150.21875 195.37305C150.21875 200.42612 145.52159 205.07842 140.47656 205.01172C135.45853 204.95813 131.20184 200.63884 131.14844 195.57227L131.14648 195.57227C131.07969 189.97234 134.96456 185.95834 140.49023 185.93164zM 307.36328 185.99805C312.44844 185.98493 316.78543 190.19853 316.86523 195.25195C316.93201 200.37211 312.30145 204.95905 307.20312 204.8125C302.11796 204.67907 297.88632 200.33218 297.95312 195.26562C297.99325 190.15896 302.17153 186.01225 307.36328 185.99805zM 163.23242 187.4668C167.65009 187.4668 171.02734 190.82608 171.02734 195.19922C171.02734 199.51949 167.55598 202.97318 163.20508 202.95898C158.89434 202.95898 155.30469 199.42578 155.30469 195.19922C155.30469 190.93291 158.85487 187.4668 163.23242 187.4668zM 284.67383 187.4668C289.13167 187.4533 292.45508 190.7857 292.45508 195.26562C292.41493 199.67889 288.97221 203.03878 284.54102 202.95898C280.32333 202.87877 277.02578 199.58524 276.95898 195.33203C276.87869 190.89218 280.216 187.4935 284.67383 187.4668zM 113.57031 188.39844C119.85653 188.29196 124.98075 193.30554 125.06055 199.63867C125.16749 205.90542 120.1502 211.10537 113.89062 211.25195C107.69782 211.3719 102.47918 206.25179 102.42578 199.94531C102.37249 193.58519 107.2841 188.49184 113.57031 188.39844zM 334.18945 188.45312C340.39574 188.46624 345.65385 193.75925 345.56055 199.89258C345.49375 206.05252 340.07591 211.27917 333.97656 211.11914C327.90383 210.95908 322.87082 205.8786 322.79102 199.86523C322.76437 193.71878 328.0233 188.43893 334.18945 188.45312zM 265.97461 192.13281C269.45804 192.25274 272.2349 195.11877 272.2207 198.55859C272.19406 202.03851 268.96443 205.11924 265.49414 204.97266C262.05049 204.85272 259.26172 201.93162 259.26172 198.46484C259.3015 194.79826 262.2642 191.98626 265.97461 192.13281zM 182.49219 192.14648C186.01575 192.25293 188.64567 195.02564 188.60547 198.57227C188.56567 202.07881 185.80266 204.90596 182.35938 204.97266L182.35742 204.97266C178.75392 205.06599 175.819 202.13338 175.8457 198.4668C175.8457 194.76012 178.76862 191.99993 182.49219 192.14648zM 214.63086 192.90625C217.70078 192.81292 220.40924 195.31907 220.36914 198.26562C220.36914 201.03899 217.87419 203.47812 215.03125 203.54492C211.77446 203.63825 209.35938 201.3603 209.35938 198.24023C209.35938 195.30683 211.64121 193.01314 214.63086 192.90625zM 233.27539 193.03906C236.2384 193.13242 238.48217 195.49293 238.38867 198.43945C238.28173 201.37286 235.8927 203.58569 232.92969 203.49219C230.00646 203.38537 227.67033 200.94623 227.77734 198.06641C227.88389 195.11988 230.25912 192.95926 233.27539 193.03906zM 363.58008 197.18555C370.94763 197.29203 376.84637 203.38547 376.79297 210.79883C376.73967 218.14548 370.5593 224.18494 363.21875 224.07812C355.95811 223.98479 349.77864 217.68001 349.91211 210.4668C350.04567 203.13364 356.26615 197.10575 363.58008 197.18555zM 84.474609 197.21289C91.895449 197.15964 97.833456 203.09201 97.847656 210.55859C97.874296 218.03831 91.987398 224.06473 84.580078 224.07812L84.580078 224.08008C77.172738 224.11981 71.207559 218.14647 71.193359 210.69336C71.153579 203.20014 77.027119 197.25299 84.474609 197.21289zM 197.25391 198.61328C200.24354 198.50683 202.69923 200.69282 202.85938 203.59961C203.04623 206.58625 200.52377 209.17188 197.41406 209.17188C194.53135 209.18501 192.03565 206.81273 191.96875 203.97266C191.9421 201.1858 194.37117 198.70668 197.25391 198.61328zM 250.49219 198.66602C253.49533 198.66602 255.71041 200.89302 255.72461 203.90625C255.71109 206.90603 253.47013 209.13254 250.48047 209.11914C247.47769 209.11914 245.23502 206.87904 245.26172 203.87891C245.26172 200.87915 247.47589 198.66602 250.49219 198.66602zM 281.4707 207.59961C284.95413 207.6131 288.03647 210.79885 288.00977 214.26562C287.96963 217.73205 284.80835 220.83836 281.35156 220.78516C277.8813 220.73157 274.79769 217.59906 274.83789 214.11914C274.87805 210.69282 278.05406 207.55951 281.4707 207.59961zM 166.63672 207.66602C170.04024 207.73274 172.85676 210.63867 172.91016 214.10547C172.96343 217.74543 169.99994 220.73272 166.39648 220.66602C162.99296 220.59931 160.06903 217.66569 160.01562 214.26562C159.96198 210.78572 163.1533 207.59932 166.63672 207.66602zM 147.41602 209.07812C151.9005 209.06499 155.18505 212.25265 155.25195 216.74609C155.34538 221.35948 151.9005 224.95926 147.41602 224.97266C143.14503 224.99927 139.23547 220.99927 139.35547 216.74609C139.44889 212.55926 143.1049 209.07812 147.41602 209.07812zM 300.70312 209.07812C305.09418 209.17146 308.37762 212.57205 308.32422 217.02539C308.27058 221.37228 304.80029 224.90625 300.5293 224.90625L300.5293 224.9043C296.3116 224.9043 292.65597 221.26564 292.57617 217.03906C292.48277 212.66593 296.2588 208.97131 300.70312 209.07812zM 265.13477 209.18555C267.88392 209.11883 270.51432 211.53311 270.70117 214.29297C270.87453 217.21289 268.32519 220.01338 265.40234 220.08008C262.49262 220.16028 259.78217 217.45368 259.82227 214.54688C259.86205 211.76004 262.35861 209.26535 265.13477 209.18555zM 182.67773 209.26562L182.67969 209.26562C185.50825 209.26676 187.87057 211.71944 187.88477 214.63867C187.88477 217.54547 185.46794 219.98558 182.625 219.95898C179.80907 219.94585 177.40689 217.49273 177.43359 214.58594C177.4471 211.69331 179.84917 209.24018 182.67773 209.26562zM 125.84961 214.65234C131.29498 214.63885 135.39102 218.78666 135.32422 224.22656C135.27093 229.33322 131.01396 233.61224 125.98242 233.65234C120.84461 233.69207 116.3081 229.09269 116.38672 223.93359C116.38672 223.93359 116.38672 223.93164 116.38672 223.93164C116.49432 218.82587 120.71181 214.65234 125.84961 214.65234zM 321.87109 214.65234C327.12961 214.58562 331.30773 218.57326 331.42773 223.75977C331.56093 229.06623 327.34196 233.55904 322.13672 233.65234C317.03842 233.73218 312.36865 229.11857 312.43555 224.02539C312.47571 218.97196 316.77276 214.70564 321.87109 214.65234zM 275.72852 224.10352C275.92589 224.09555 276.12682 224.09631 276.33203 224.10547C279.32169 224.23891 281.44403 226.51941 281.39062 229.51953C281.33697 232.65273 278.89436 234.89223 275.67773 234.65234C272.36764 234.43906 270.69869 232.57236 270.71289 229.26562C270.72556 226.24075 272.7679 224.22307 275.72852 224.10352zM 172.06836 224.17188C174.9777 224.26522 177.38041 226.73147 177.28711 229.54492C177.18017 232.43823 174.71175 234.6917 171.77539 234.625C168.86568 234.53166 166.4633 232.07836 166.57031 229.23828C166.66373 226.39821 169.15864 224.07858 172.06836 224.17188zM 346.18945 225.10547C352.34248 225.13208 357.64115 230.46487 357.62695 236.61133C357.58681 242.73153 352.2606 248.02512 346.12109 248.01172C340.00823 248.01172 334.67057 242.62569 334.69727 236.50586C334.71079 230.38566 340.07659 225.07887 346.18945 225.10547zM 101.63867 225.17188C107.83147 225.10516 113.00977 230.25137 113.00977 236.53125C113.00977 242.83775 107.88419 247.98467 101.69141 247.91797C95.431829 247.82464 90.439731 242.70617 90.519531 236.37305C90.586301 230.27983 95.552455 225.27872 101.63867 225.17188zM 156.43945 227.41211C160.00317 227.42524 163.01887 230.37239 163.07227 233.87891C163.12591 237.42555 160.18887 240.46512 156.63867 240.54492C152.94175 240.63826 149.64676 237.42481 149.72656 233.85156C149.82001 230.41175 152.94252 227.39871 156.43945 227.41211zM 291.57422 227.41211C295.32479 227.46534 297.981 230.21225 297.9668 234.02539C297.9398 237.7051 295.05769 240.59812 291.41406 240.54492C287.79708 240.51831 284.98007 237.55842 285.04688 233.86523C285.08665 230.07834 287.82365 227.37201 291.57422 227.41211zM 139.39453 234.57227C143.62574 234.7057 147.17732 238.43853 147.07031 242.625C146.96338 246.81147 143.19921 250.47898 139.03516 250.42578C134.68423 250.38567 131.01301 246.47824 131.22656 242.07812C131.41341 237.81144 135.08341 234.4257 139.39453 234.57227zM 308.83203 234.58594C313.02307 234.58594 316.75956 238.13312 316.90625 242.29297C317.02632 246.46595 313.06286 250.49219 308.83203 250.49219C304.52092 250.49219 301.0505 247.03915 300.9707 242.66602C300.90427 237.98627 304.20086 234.58594 308.83203 234.58594zM 166.39648 241.29297C169.2259 241.35969 171.74869 243.87971 171.77539 246.67969C171.85533 249.58647 169.1587 252.1585 166.12891 252.0918C163.23269 252.03857 160.76471 249.59898 160.72461 246.8125C160.72461 243.85248 163.43347 241.19967 166.39648 241.29297zM 281.75195 241.55859C284.7416 241.61182 286.93083 243.87878 286.89062 246.87891C286.83737 249.85241 284.50081 252.10398 281.56445 252.05078C278.65509 251.98407 276.35824 249.59764 276.39844 246.67773C276.4386 243.71807 278.74881 241.50529 281.75195 241.55859zM 370.71875 242.49219C378.21988 242.51879 384.0402 248.41127 384 255.91797C384 263.29122 377.95437 269.41154 370.62695 269.46484C363.2864 269.51844 356.8533 263.01266 357 255.66602C357.15985 248.30589 363.24463 242.45209 370.71875 242.49219zM 77.279297 242.54492C84.807057 242.5183 90.652987 248.33297 90.679688 255.82617C90.693198 263.29276 84.794753 269.33295 77.414062 269.37305C70.046862 269.42629 64.0401 263.39897 64 255.95898C63.96022 248.45229 69.791677 242.55832 77.279297 242.54492zM 327.62305 246.47852C332.66808 246.67831 336.84526 251.15855 336.67188 256.17188C336.45838 261.31865 331.73448 265.7983 326.68945 265.54492C321.47105 265.27842 317.38606 260.7459 317.59961 255.43945C317.8131 250.02617 321.99082 246.29185 327.62305 246.47852zM 121.00391 246.53125C126.15585 246.61145 130.33451 250.79836 130.32031 255.93164C130.28016 260.9982 126.00917 265.30412 120.9375 265.35742C115.75888 265.41066 111.24783 260.8245 111.39453 255.67773C111.54124 250.62429 115.8921 246.47805 121.00391 246.53125zM 153.25 249.42578C156.76007 249.57234 159.49545 252.43824 159.46875 255.93164C159.44211 259.53187 156.41386 262.49201 152.79688 262.41211C149.24667 262.35889 146.26998 259.22456 146.36328 255.69141C146.51 252.09119 149.60637 249.26574 153.25 249.42578zM 294.92383 249.50586C298.46052 249.47888 301.31815 252.15893 301.46484 255.65234C301.5984 259.21246 298.60882 262.34449 295.05859 262.37109C291.54854 262.41118 288.39889 259.25318 288.49219 255.75977C288.55862 252.31996 291.41376 249.54596 294.92383 249.50586zM 166.22266 259.63867C169.09189 259.61169 171.6409 262.03809 171.7207 264.85156C171.81413 267.65152 169.35858 270.25114 166.51562 270.37109C163.53949 270.51765 160.80221 267.91901 160.81641 264.95898C160.82954 262.14552 163.32644 259.67877 166.22266 259.63867zM 281.6582 259.78516C284.64785 259.78516 286.90483 262.03875 286.89062 265.02539C286.87749 268.01202 284.60823 270.31863 281.67188 270.33203C278.81544 270.33203 276.41264 267.93255 276.39844 265.05273C276.39844 262.10584 278.7087 259.78516 281.6582 259.78516zM 308.83203 261.57227C313.16982 261.57227 316.71928 265.06536 316.70508 269.33203C316.70508 273.54512 313.10302 277.10547 308.83203 277.10547C304.4943 277.10547 301.05078 273.65175 301.05078 269.31836C301.05078 264.91824 304.41436 261.57227 308.83203 261.57227zM 139.19531 261.58594C143.5462 261.62605 147.07081 265.17188 147.00391 269.39844C146.93711 273.65198 143.30615 277.1451 139.03516 277.0918C134.6974 277.03857 131.21371 273.50441 131.25391 269.22461C131.32069 264.90471 134.81776 261.53274 139.19531 261.58594zM 346.30859 263.89258C352.58131 263.94581 357.69336 269.06418 357.69336 275.27734C357.6532 281.4639 352.48917 286.57227 346.18945 286.57227C339.92987 286.58577 334.69712 281.53226 334.60352 275.3457C334.49659 269.05233 339.82202 263.81278 346.30859 263.89258zM 101.85156 263.99805C108.25819 264.01154 113.07667 268.97145 113.00977 275.38477C112.94299 281.77112 107.96383 286.55799 101.50391 286.45117C95.177549 286.34435 90.348094 281.27783 90.521484 274.83789C90.655064 268.70457 95.632115 263.95795 101.85156 263.99805zM 291.54688 271.31836C295.01716 271.35809 297.80625 274.13233 297.87305 277.65234C297.93985 281.25219 295.37851 284.0253 291.8418 284.17188C288.14487 284.33192 285.19503 281.61171 285.11523 277.93164C285.04845 274.27855 287.92989 271.30496 291.54688 271.31836zM 156.62695 271.35938C159.96368 271.4527 162.91275 274.45181 162.93945 277.78516C162.95259 281.34493 159.92276 284.26545 156.26562 284.18555C152.56873 284.10534 149.81922 281.11897 150.01953 277.42578C150.2199 274.01258 153.19682 271.25255 156.62695 271.35938zM 275.93164 276.93164C278.76109 276.8784 281.23075 279.2793 281.31055 282.19922C281.40397 285.15924 279.17569 287.65102 276.29297 287.82422C273.51681 287.9839 270.91341 285.63818 270.72656 282.77148C270.52658 279.69151 272.94198 276.98484 275.93164 276.93164zM 171.97461 277.03906C174.76427 277.09229 177.30014 279.65101 177.27344 282.4375C177.22017 285.25059 174.67175 287.75885 171.85547 287.71875C169.05269 287.70563 166.54361 285.13182 166.57031 282.31836C166.61008 279.53187 169.17182 276.99896 171.97461 277.03906zM 126.12891 278.38477C131.32066 278.46498 135.32471 282.57099 135.25781 287.82422C135.21765 292.97098 131.01418 297.1448 125.90234 297.1582C120.87083 297.18481 116.5866 292.91722 116.5332 287.81055C116.47993 282.47711 120.76347 278.27796 126.12891 278.38477zM 322.23047 278.38477C327.44884 278.49122 331.45285 282.62513 331.37305 287.86523C331.30662 292.97189 327.03634 297.19773 321.95117 297.14453C316.90614 297.10443 312.56903 292.78482 312.51562 287.77148C312.4755 282.57148 316.94529 278.27795 322.23047 278.38477zM 147.58984 287.10547C152.00789 287.19881 155.23878 290.58554 155.17188 295.02539C155.09193 299.3453 151.54177 302.78455 147.24414 302.67773C142.9334 302.5709 139.4887 298.97103 139.5957 294.67773C139.70229 290.35747 143.2123 287.02567 147.58984 287.10547zM 300.38281 287.13086C304.8275 287.05103 308.20468 290.30569 308.27148 294.73242C308.35177 299.05232 304.97464 302.57076 300.65039 302.66406C296.3659 302.7574 292.76147 299.26473 292.66797 294.99805C292.56104 290.74486 296.07167 287.18416 300.38281 287.13086zM 84.808594 287.66406C92.202434 287.81063 98.168463 293.9053 98.101562 301.25195C98.034782 308.70504 91.561775 315.0119 84.234375 314.78516C76.893455 314.54526 70.887534 308.34511 70.927734 301.0918C70.994534 293.58546 77.254544 287.51748 84.808594 287.66406zM 363.37891 287.66406C371.03987 287.67755 376.8599 293.53179 376.8457 301.23828C376.83256 308.74497 370.58594 314.9452 363.21875 314.78516C355.95811 314.59849 349.85892 308.50423 349.76562 301.29102C349.67221 293.86453 355.87815 287.66406 363.37891 287.66406zM 281.23047 291.14453C284.88761 291.05119 287.9305 293.91772 287.9707 297.51758C288.02397 301.10395 285.03425 304.06566 281.39062 304.03906C277.6667 304.02593 274.77099 301.09186 274.83789 297.47852C274.89154 294.03871 277.70691 291.22433 281.23047 291.14453zM 166.55664 291.1582C170.09333 291.19831 172.85638 293.94464 172.89648 297.45117C172.96327 301.19796 170.14541 304.01218 166.42188 303.95898C162.88516 303.90576 160.08243 301.18499 160.01562 297.70508C159.93571 294.11834 162.91301 291.1316 166.55664 291.1582zM 265.04102 291.85156C268.27079 291.74474 270.74088 294.02428 270.76758 297.13086C270.78107 300.03765 268.48395 302.38537 265.50781 302.49219C262.43824 302.59866 259.72852 300.11914 259.72852 297.19922C259.71503 294.45248 262.18492 291.95838 265.04102 291.85156zM 182.82617 291.93164C185.84245 292.02497 187.97811 294.27867 187.87109 297.33203C187.77767 300.3584 185.52128 302.45072 182.46484 302.35742C179.46236 302.25063 177.32743 299.9984 177.40625 296.97266C177.40625 296.97266 177.40625 296.9707 177.40625 296.9707C177.51411 293.97162 179.81054 291.83836 182.82617 291.93164zM 113.68945 300.69141C120.13588 300.69141 125.10197 305.49148 125.20898 311.85156C125.31589 318.22478 119.93558 323.62386 113.5957 323.50391C107.25585 323.38396 102.41211 318.39769 102.41211 311.98438C102.42562 305.49122 107.21639 300.69141 113.68945 300.69141zM 334.29688 300.74414C340.39626 300.75726 345.42685 305.69194 345.56055 311.78516C345.70762 317.94509 340.55646 323.18387 334.29688 323.26367C328.02381 323.3169 322.80469 318.21121 322.80469 311.99805C322.80469 305.79837 327.97055 300.70404 334.29688 300.74414zM 197.42773 302.37109C200.32395 302.35796 203.13933 305.1177 202.92578 307.98438C202.68564 311.1708 200.76387 313.05154 197.64062 313.38477C194.79769 313.66476 191.95574 310.87787 191.90234 307.99805C191.83591 305.15797 194.55814 302.39769 197.42773 302.37109zM 250.58594 302.51758C253.45552 302.59743 255.75262 305.05097 255.69922 307.98438C255.64595 310.90429 253.18933 313.33185 250.37305 313.25195C247.55675 313.18523 245.18192 310.67846 245.26172 307.78516C245.30185 304.89185 247.75649 302.46438 250.58594 302.51758zM 182.3457 306.69141C185.96269 306.77125 188.75168 309.71769 188.67188 313.4375C188.60509 317.21054 185.85604 319.89109 182.10547 319.83789C178.34139 319.75804 175.71158 316.99869 175.73828 313.18555C175.79154 309.53246 178.7287 306.63821 182.3457 306.69141zM 265.52148 306.69141C269.24541 306.5846 272.39557 309.69176 272.35547 313.39844C272.30183 316.94507 269.32597 319.83789 265.70898 319.83789C262.1854 319.81129 259.10206 316.83733 259.03516 313.35742C258.98189 309.91725 262.02454 306.79825 265.52148 306.69141zM 140.91602 306.99805L140.91797 306.99805C145.96216 307.13256 150.29921 311.53273 150.23242 316.49219C150.19264 321.54527 145.44238 326.19862 140.4375 326.0918C135.28592 325.98498 131.06666 321.49202 131.16016 316.18555C131.21377 310.67958 135.28483 306.86557 140.91602 306.99805zM 307.42969 307.07812C312.54115 307.09125 316.81332 311.31839 316.85352 316.39844C316.86701 321.41177 312.54129 325.79928 307.50977 325.89258C302.30454 325.9859 297.86161 321.50572 297.94141 316.26562C298.02132 311.14547 302.23797 307.05153 307.42969 307.07812zM 214.99219 308.09375C217.65848 308.20177 220.16335 310.64733 220.26367 313.38477C220.37058 316.11802 217.96756 318.75688 215.19141 318.95703C212.30867 319.15718 209.50545 316.61188 209.39844 313.70508C209.30502 310.9186 211.65422 308.31875 214.45703 308.10547C214.63556 308.0913 214.81443 308.08655 214.99219 308.09375zM 233.11523 308.19727C235.99795 308.22389 238.33398 310.61083 238.33398 313.58398C238.33398 316.47729 235.90544 318.90533 233.0625 318.86523C230.2597 318.8521 227.76432 316.30565 227.79102 313.49219C227.80454 310.6521 230.25916 308.18387 233.11523 308.19727zM 163.51367 308.66602C167.94448 308.81259 171.11981 312.15767 171.06641 316.67773C171.02628 321.06435 167.63676 324.54436 163.3125 324.59766C159.04154 324.65089 155.09207 320.73171 155.17188 316.47852C155.23865 312.132 159.05584 308.54607 163.51367 308.66602zM 284.99414 308.70508C289.33154 308.85201 292.62849 312.39835 292.52148 316.77148C292.45467 321.09139 288.86562 324.59822 284.63477 324.54492C280.36378 324.4917 276.85299 320.90481 276.86719 316.625C276.86719 312.10531 280.50968 308.55851 284.99414 308.70508zM 202.21875 316.77148C205.74196 316.90455 208.63839 320.02368 208.55859 323.57031C208.45165 327.07684 205.2888 330.10414 201.83203 329.9707C198.24169 329.83764 195.47877 326.82533 195.57227 323.17188C195.67918 319.5454 198.66855 316.6249 202.21875 316.77148zM 245.75586 316.85156C249.29294 316.77137 252.37553 319.83887 252.36133 323.41211C252.34782 326.82531 249.47789 329.75826 246.08789 329.85156C242.45739 329.94488 239.52096 326.99861 239.53516 323.33203C239.54829 319.812 242.29909 316.95838 245.75586 316.85156zM 223.91992 320.47852C227.49712 320.46502 230.27385 323.09185 230.38086 326.625C230.51406 330.25183 227.60332 333.29102 223.98633 333.29102C220.44964 333.30449 217.34094 330.17113 217.46094 326.67773C217.55436 323.22442 220.36969 320.51862 223.91992 320.47852zM 263.13281 324.54492C267.65745 324.61165 270.82031 327.82424 270.82031 332.35742C270.82031 336.83736 267.08279 340.58375 262.78516 340.42383C258.60761 340.27728 254.91264 336.50329 254.89844 332.41016C254.89844 327.98345 258.56843 324.47822 263.13281 324.54492zM 184.80078 324.55859C189.27213 324.47838 192.63651 327.66367 192.7832 332.10352C192.92989 336.62358 189.35306 340.35678 184.92188 340.33008C180.69105 340.30347 177.10092 336.71786 177.07422 332.45117C177.02093 328.13127 180.4364 324.63839 184.80078 324.55859zM 105.40234 328.58398C112.8367 328.58398 118.85433 334.58556 118.89453 341.94531C118.92118 349.21174 112.80858 355.45159 105.50781 355.55859C98.033706 355.66504 91.880366 349.43737 91.947266 341.82422C92.014046 334.29127 97.848307 328.55738 105.40234 328.58398zM 342.46484 328.61133C349.91232 328.5581 355.97199 334.49199 356.02539 341.86523C356.09218 349.18492 350.0188 355.36956 342.69141 355.47656C335.44391 355.56989 329.17237 349.39694 329.10547 342.10352C329.01205 334.78385 335.07064 328.66463 342.46484 328.61133zM 163.58008 329.63867C168.63825 329.78522 172.78906 334.06419 172.78906 339.21094C172.78906 344.67746 168.69169 348.69116 163.16602 348.59766C158.04108 348.53094 153.83842 344.3176 153.82422 339.21094C153.82422 334.05103 158.46827 329.49209 163.58008 329.63867zM 284.67383 329.63867C289.90571 329.74512 294.08289 334.18415 293.96289 339.51758C293.84244 344.75733 289.74523 348.65106 284.41992 348.59766C279.30811 348.5579 275.03778 344.33081 274.98438 339.27734C274.94423 334.13095 279.56202 329.54537 284.67383 329.63867zM 136.51172 331.85156C142.73112 331.85156 147.91016 337.03753 147.91016 343.27734C147.91016 349.47699 142.67785 354.74414 136.51172 354.74414C130.38534 354.74414 124.99361 349.37055 125.00781 343.27734C125.02133 337.144 130.35905 331.85156 136.51172 331.85156zM 311.43359 331.91797C317.63991 331.91797 322.71225 337.07825 322.68555 343.38477C322.63228 349.65118 317.44067 354.78318 311.23438 354.63672L311.23438 354.63867C305.12151 354.49212 300.23551 349.50443 300.19531 343.37109C300.15518 337.0777 305.22731 331.93137 311.43359 331.91797zM 237.4668 332.75781C241.71078 332.82454 245.23373 336.4773 245.20703 340.73047C245.15376 345.077 241.67175 348.50457 237.33398 348.45117C233.08965 348.42455 229.45832 344.74367 229.51172 340.57031C229.5785 336.38349 233.32939 332.70471 237.4668 332.75781zM 210.49414 332.77148C214.72496 332.73175 218.25924 336.30509 218.27344 340.625C218.27344 344.99812 214.87113 348.45064 210.54688 348.46484C206.22264 348.49146 202.77982 345.05142 202.76562 340.69141C202.73898 336.38499 206.23664 332.78568 210.49414 332.77148zM 255.80469 344.39648C261.31687 344.39648 265.30731 348.41031 265.25391 353.95703C265.20061 359.17016 260.68871 363.66383 255.60352 363.50391C250.67856 363.34385 246.22238 358.8641 246.14258 353.9707C246.06267 348.86404 250.53265 344.42318 255.80469 344.39648zM 192.28906 344.50391C197.50743 344.58377 201.48346 348.66473 201.44336 353.91797C201.41673 359.03809 197.18743 363.27682 192.12891 363.29102C186.91017 363.30416 182.58505 358.8255 182.71875 353.57227C182.86583 348.3989 187.04367 344.42411 192.28906 344.50391zM 224.06641 349.42383C229.15157 349.49056 233.31576 353.71777 233.28906 358.9043C233.28906 364.06456 229.16454 368.29035 224.05273 368.34375C218.80734 368.39699 214.40344 363.9173 214.52344 358.66406C214.65703 353.57089 218.99473 349.37043 224.06641 349.42383zM 279.94922 354.70312C286.30223 354.62331 291.41367 359.54435 291.48047 365.82422C291.58702 372.14385 286.62324 377.22412 280.29688 377.29102C273.90372 377.34427 268.83224 372.5036 268.68555 366.18359C268.55199 359.97043 273.62288 354.79642 279.94922 354.70312zM 167.78516 354.79688C174.17795 354.78375 179.07553 359.71681 179.04883 366.10352C179.00867 372.45012 174.04479 377.30441 167.625 377.22461C161.27199 377.14479 156.43881 372.13014 156.57227 365.7168C156.67918 359.51677 161.5256 354.79688 167.78516 354.79688zM 137.6875 361.05078C145.18825 361.01069 151.07382 366.79726 151.14062 374.27734C151.19391 381.79716 145.40115 387.64972 137.90039 387.70312C130.42629 387.75671 124.42146 381.90361 124.31445 374.49023C124.221 367.15707 130.25352 361.10418 137.6875 361.05078zM 310.12695 361.06445C317.69452 361.06445 323.48633 366.86438 323.48633 374.37109C323.48633 381.89091 317.68026 387.70508 310.16602 387.70508C302.67837 387.71856 296.76693 381.83842 296.74023 374.39844C296.72674 366.94533 302.65285 361.05025 310.12695 361.06445zM 243.28516 366.57031C249.6648 366.5568 254.96354 371.86452 254.83008 378.22461C254.68336 384.43815 249.51884 389.33074 243.15234 389.27734C236.89276 389.2241 231.72785 384.0772 231.78125 377.89062C231.82141 371.77079 237.05223 366.58451 243.28516 366.57031zM 204.60742 366.7168C211.0272 366.7168 215.88516 371.62377 215.81836 378.03711C215.7782 384.45043 210.85269 389.27709 204.40625 389.18359C198.19997 389.10337 193.39567 384.23788 193.35547 378.06445C193.32882 371.65114 198.22777 366.7168 204.60742 366.7168zM 269.15234 381.79688C276.71989 381.74364 282.65781 387.51776 282.72461 394.98438C282.8049 402.611 276.71881 408.75653 269.19141 408.70312C261.83735 408.66301 255.71147 402.52976 255.69727 395.23633C255.68378 387.86307 261.69171 381.85028 269.15234 381.79688zM 178.82227 381.87891C186.30989 381.94565 192.10111 387.87732 192.00781 395.35742C191.9009 402.81089 185.93577 408.66559 178.48828 408.55859C171.02767 408.45177 165.23465 402.50494 165.31445 395.01172C165.39436 387.54515 171.308 381.78561 178.82227 381.87891zM 223.90625 388.9043C231.60736 388.87767 237.41459 394.70365 237.40039 402.41016C237.38726 409.9566 231.18146 416.15602 223.80078 415.99609C216.5803 415.84917 210.42599 409.73078 210.2793 402.51758C210.14574 395.18442 216.40549 388.931 223.90625 388.9043z"/></svg>
