<svg xmlns="http://www.w3.org/2000/svg" viewBox="0 0 448 512" height="16" class="icon icon-google-scholar-square"><path d="M48 32C21.5 32 0 53.5 0 80L0 432C0 458.5 21.5 480 48 480L400 480C426.5 480 448 458.5 448 432L448 80C448 53.5 426.5 32 400 32L48 32zM 188.69531 96L366.93555 96L350.46484 108.85938L350.46484 131.55273C356.58074 132.33805 355.93359 136.01292 355.93359 140.41016L355.93359 247.63281C355.93359 252.59844 351.87154 256.66211 346.90625 256.66211L343.58203 256.66211C338.6164 256.66211 334.55273 252.59808 334.55273 247.63281L334.55273 140.41016C334.55273 136.00235 333.91278 132.32357 340.07422 131.54883L340.07422 117.2832L292.65039 156.17578C293.19834 157.19151 293.71814 157.84328 294.21289 158.69531C298.37973 166.07266 300.50195 175.2445 300.50195 186.45508C300.50195 195.04833 299.06991 202.77005 296.16602 209.58594C293.2752 216.4033 289.75942 221.97045 285.6582 226.25977C281.55701 230.56406 277.44275 234.49591 273.32812 238.03711C269.21486 241.58524 265.69906 245.28375 262.82031 249.125C259.91892 252.95314 258.47266 256.91247 258.47266 261.01367C258.47266 265.12181 260.3486 269.29452 264.08594 273.5C267.8098 277.7186 272.39123 281.80635 277.80859 285.84375C283.23797 289.85418 288.65493 294.30653 294.07227 299.15039C299.50131 303.98623 304.05933 310.21146 307.7832 317.77148C311.53367 325.35666 313.4082 333.7088 313.4082 342.88867C313.4082 354.99795 310.32064 365.93466 304.16211 375.66797C297.99007 385.36114 289.94334 393.09684 280.06055 398.76758C270.15151 404.47697 259.55333 408.77389 248.25195 411.67773C236.92398 414.55506 225.68694 416 214.46289 416C207.37866 416 200.23024 415.4525 193.04102 414.33398C185.82883 413.21398 178.60279 411.2357 171.32422 408.44922C164.03255 405.64267 157.57316 402.19843 151.97461 398.05859C146.36256 393.96392 141.84477 388.67686 138.38086 382.23828C134.91694 375.79976 133.19727 368.55971 133.19727 360.51953C133.19727 350.9809 135.85421 342.13421 141.17969 333.88477C146.50481 325.69549 153.56199 318.85925 162.33789 313.44336C177.65114 303.91787 201.67434 298.03206 234.36914 295.80664C226.89588 286.46381 223.14648 277.66689 223.14648 269.4375C223.14648 264.75479 224.36834 259.73766 226.79102 254.32031C222.8845 254.86718 218.86242 255.17383 214.75977 255.17383C197.19704 255.17383 182.36436 249.46431 170.32031 237.9668C158.27629 226.48824 152.26172 212.1206 152.26172 194.75C152.26172 192.93401 152.31391 191.33134 152.44336 189.56055L81.064453 189.56055L188.69531 96zM 220.07422 134.33398C208.8753 134.33398 200.28236 138.36304 194.29297 146.4043C188.30507 154.42442 185.30859 164.13895 185.30859 175.55078C185.30859 185.27059 186.9492 195.16722 190.23047 205.25781C193.49857 215.34329 198.8517 224.34729 206.35156 232.2832C213.8248 240.23914 222.52348 244.20898 232.40625 244.20898C243.42216 244.20898 252.02911 240.51954 258.20117 233.13672C264.34622 225.76629 267.43164 216.46329 267.43164 205.25781C267.43164 195.71264 265.80524 185.72081 262.53711 175.27148C259.28103 164.80901 253.85206 155.36886 246.27344 146.96484C238.7211 138.53274 229.97011 134.33398 220.07422 134.33398zM 238.5918 306.41406C230.55711 306.41406 222.65275 307.12634 214.89258 308.54492C207.13241 309.92488 199.47583 312.25478 191.92383 315.54297C184.34522 318.81255 178.22564 323.61796 173.56445 329.97266C168.87661 336.31933 166.54492 343.79435 166.54492 352.39453C166.54492 360.59035 168.60405 367.90081 172.71875 374.26758C176.8214 380.59526 182.2367 385.55152 188.96875 389.09961C195.70076 392.65432 202.7576 395.33574 210.12695 397.09961C217.50975 398.85145 225.02377 399.76367 232.67969 399.76367C247.82231 399.76367 260.85547 396.35252 271.79297 389.53516C282.70351 382.71926 288.17383 372.1931 288.17383 357.98633C288.17383 354.99821 287.75694 352.05432 286.93555 349.18359C286.07694 346.2797 285.2319 343.79439 284.39844 341.73047C283.56499 339.70522 281.97671 337.26317 279.63281 334.45117C277.302 331.63256 275.51712 329.54862 274.31836 328.16211C273.09446 326.73003 270.80621 324.68508 267.43164 321.98242C264.08738 319.26867 261.95132 317.57694 261 316.95117L260.99805 316.95117C260.06034 316.29355 257.62635 314.51567 253.70703 311.63086C249.78813 308.72002 247.64052 307.17679 247.26172 306.99414C245.20436 306.62337 242.31565 306.41406 238.5918 306.41406z"/></svg>
