<svg xmlns="http://www.w3.org/2000/svg" viewBox="0 0 448 512" height="16" class="icon icon-hal-square"><path d="M48 32C21.5 32 0 53.5 0 80L0 432C0 458.5 21.5 480 48 480L400 480C426.5 480 448 458.5 448 432L448 80C448 53.5 426.5 32 400 32L48 32zM 243.62305 96C255.28046 97.403777 266.57057 100.14951 277.3125 103.93359C277.3125 105.52048 277.19141 107.29057 277.19141 109.06055C277.06934 134.63366 287.07858 158.80221 305.38867 176.99023C324.98047 196.39894 350.92007 205.9209 376.85938 205.31055C380.46039 216.05248 382.83939 227.46559 384.12109 239.12305C381.00836 239.36715 377.83536 239.49023 374.72266 239.49023C340.84896 239.49023 307.03699 226.73522 281.3418 201.16211C256.56214 176.50451 242.8896 143.78968 243.01172 108.93945C243.01172 104.66709 243.13477 100.27236 243.62305 96zM 200.6543 96.244141C214.32585 139.33391 238.37289 178.70001 271.45312 211.6582C303.80098 243.88397 342.1299 266.83432 382.90039 280.50586C381.13042 292.04122 378.01845 303.02712 373.99023 313.58594C327.60465 298.32754 284.02742 272.50888 247.28516 235.88867C209.81048 198.53607 182.58753 153.55398 167.45117 104.66602C178.07103 100.75987 189.11892 97.89204 200.6543 96.244141zM 313.20117 121.69531C331.63333 133.96308 347.4412 150.13816 359.46484 168.81445C353.54457 173.57508 346.40266 176.07617 338.77344 176.07617L338.65234 176.07617C329.74143 176.07617 321.50131 172.59703 315.21484 166.31055C308.92836 160.0241 305.38917 151.66287 305.57227 142.75195C305.57227 135.00068 308.31847 127.61556 313.20117 121.69531zM 123.57031 129.56836L349.15039 356.85742C342.00946 365.7073 334.01345 373.88641 324.98047 381.02734L99.15625 153.49414C106.41925 144.70529 114.6594 136.7093 123.57031 129.56836zM 72.789062 199.39062C120.39532 214.58802 165.01168 240.77286 202.73047 278.06445C239.47275 314.56257 266.14442 358.32245 281.58594 406.05078C271.08815 410.20107 260.04122 413.19096 248.50586 414.96094C234.59017 373.09187 210.90841 334.64178 178.56055 302.41602C145.48029 269.45784 106.11324 246.2653 64.244141 232.59375C65.892054 221.11944 68.760852 210.07153 72.789062 199.39062zM 78.009766 274.64648C111.00538 275.2573 143.80164 288.08813 168.79492 312.97461C193.5746 337.63222 207.1235 370.4691 207.0625 405.19727C207.0625 408.8593 206.82029 412.46005 206.57617 416C194.79665 414.77933 183.56662 412.2753 172.76367 408.61328C172.88571 407.45366 172.88477 406.17284 172.88477 405.07422C173.00683 379.50112 162.99761 355.33256 144.6875 337.14453C124.66846 317.24756 97.934427 307.84769 71.628906 308.82422C67.905863 298.08231 65.282684 286.79219 63.878906 275.13477C68.578498 274.7229 73.296111 274.55918 78.009766 274.64648zM 111.24023 338.05859L111.36328 338.05859C120.27418 338.05859 128.51236 341.53776 134.79883 347.82422C141.0853 354.04966 144.44336 362.47189 144.44336 371.38281C144.44336 378.88993 141.9413 386.09291 137.30273 391.83008C118.50435 379.92851 102.32928 364.24272 89.939453 345.81055C95.920746 340.80579 103.36688 338.05859 111.24023 338.05859z"/></svg>
