<svg xmlns="http://www.w3.org/2000/svg" viewBox="0 0 512 512" height="16" class="icon icon-hypothesis"><path d="m95.99673,64.000001c-17.64763,0-31.99791,14.326535-31.99791,31.997908V416.00444c0,17.6464 14.32654,31.99792 31.99791,31.99792H207.05647L256.00274,512 304.94352,448.00236h111.05974c17.64639,0 31.99792,-14.32779 31.99792,-31.99792V95.997909c0,-17.647623-14.32778,-31.997908-31.99792,-31.997908zm 32.00157,63.999469h48.12962v112.03205c0,0 16.04495,-31.98325 47.87142,-31.98325 32.00272,0 64.43527,15.95343 64.43527,65.69504V384.00288H240.30316V288.0586c0,-26.06019-16.30233,-36.05971-32.30369,-32.05468-16.00136,3.99879-31.87155,20.99507-31.87155,56.04532v71.95364H127.9983ZM 367.99999,320.0034c17.67638,0 32.00159,14.27716 32.00159,31.89355 0,17.61762-14.32521,31.89536-32.00159,31.89536-17.67136,0-31.99607,-14.27774-31.99607,-31.89536 0,-17.61639 14.32471,-31.89355 31.99607,-31.89355z"/></svg>
