<svg xmlns="http://www.w3.org/2000/svg" viewBox="0 0 448 512" height="16" class="icon icon-hypothesis-square"><path d="M48 32C21.5 32 0 53.5 0 80L0 432C0 458.5 21.5 480 48 480L400 480C426.5 480 448 458.5 448 432L448 80C448 53.5 426.5 32 400 32L48 32zM 98.283203 96L349.7168 96C363.6005 96 374.85742 107.27464 374.85742 121.14062L374.85742 372.57422C374.85742 386.45791 363.58183 397.7168 349.7168 397.7168L262.45508 397.7168L224.00195 448L185.54492 397.7168L98.283203 397.7168C84.39856 397.7168 73.142578 386.43925 73.142578 372.57422L73.142578 121.14062C73.142578 107.25597 84.417211 96 98.283203 96zM 123.42773 146.28516L123.42773 347.43164L161.24414 347.43164L161.24414 290.89648C161.24414 263.35699 173.71266 250.00127 186.28516 246.85938C198.85765 243.71256 211.66602 251.57101 211.66602 272.04688L211.66602 347.43164L249.48438 347.43164L249.48438 260.79883C249.48437 221.71614 224.00241 209.18164 198.85742 209.18164C173.8509 209.18164 161.24414 234.31055 161.24414 234.31055L161.24414 146.28516L123.42773 146.28516zM 312 297.14648C298.11536 297.14648 286.85938 308.36363 286.85938 322.20508C286.85938 336.0475 298.11536 347.26562 312 347.26562C325.88859 347.26563 337.14453 336.0475 337.14453 322.20508C337.14453 308.36363 325.88859 297.14648 312 297.14648z"/></svg>
