<svg xmlns="http://www.w3.org/2000/svg" viewBox="0 0 448 512" height="16" class="icon icon-ieee-square"><path d="M48 32C21.5 32 0 53.5 0 80L0 432C0 458.5 21.5 480 48 480L400 480C426.5 480 448 458.5 448 432L448 80C448 53.5 426.5 32 400 32L48 32zM 224.125 96C225.02285 96.00766 225.92267 96.180969 226.80469 96.568359C228.42453 97.007199 230.25204 98.507129 231.71875 99.412109L243.68359 116.58984C253.53025 129.2287 263.87873 142.47878 274.5293 154.43945L300.81641 182.26172C324.60433 206.22511 349.85334 227.35175 376.95312 246.0293L377.81641 246.16992C381.27774 248.40136 383.62414 252.42587 384 256.50977C383.856 265.36096 373.78746 267.13556 368.51562 271.9043C315.8546 310.58174 268.72266 358.48641 231.55859 411.82617L228.56641 414.87109C225.55569 416.72873 221.66254 415.97743 218.50781 414.87109C214.47735 413.54058 214.03621 409.05485 211.45898 406.32617C203.24056 393.39556 192.73876 381.24597 183.79883 369.19336C178.49088 363.77078 174.09137 358.02887 168.66602 352.25391C138.10089 318.3183 103.76095 288.5598 67.84375 263.49414C65.293136 260.90698 63.154788 257.47323 64.332031 253.3125C65.429416 248.68558 70.699935 245.94599 74.248047 243.13867C119.10116 211.94643 160.21288 171.25338 194.94336 127.67383L216.59375 99.105469C218.75281 97.446019 221.43146 95.977021 224.125 96zM 223.19922 137.27539C219.5822 137.34315 216.01452 138.45709 212.71289 141.06055C202.57166 148.43494 192.95776 155.93792 183.2832 164.41602C182.46582 164.94682 181.50513 166.0585 180.98633 166.58008C158.45441 186.95823 136.14227 209.26659 117.92773 232.78711C112.78747 239.55904 107.35457 246.16942 105.37305 254.20312C105.30634 258.50978 105.95202 262.53972 108.24414 265.80469C123.66014 289.07772 144.07012 311.32647 164.41016 330.43359C181.94733 346.29453 198.84343 363.70205 218.88086 374.32812C225.47945 377.45941 232.90693 373.81528 238.41211 369.86914C265.6333 350.46507 289.95011 326.14073 313.00195 301.00195C323.65687 287.73773 335.84246 275.6289 341.83984 260.43945C343.46917 254.4281 340.89246 249.29256 337.97656 244.76172C319.9939 218.72717 298.10136 194.10047 274.5293 171.94336L272.98242 171.04102C264.47199 162.69108 254.77361 154.52165 245.46289 147.31055C239.35153 142.04283 231.15665 137.12633 223.19922 137.27539zM 224.48438 145.02734C232.16091 145.09253 239.18397 152.07489 245.46289 156.54297C277.82835 182.9395 308.37141 213.15335 331.64453 247.27148C334.57903 251.67564 335.90425 258.51077 333.27344 263.49414C327.23994 273.69063 319.09832 282.99661 311.38086 292.44727L311.38086 292.96094C292.13712 313.71478 271.8173 335.04862 249.85742 352.625C239.14014 359.23218 229.30136 373.66334 215.49609 364.72461C184.06398 341.45161 153.9857 312.51704 128.48828 281.48438C124.16579 274.66222 117.41346 269.0723 114.4082 261.33594C110.21076 250.85576 119.4625 243.33917 124.75586 235.44727C150.75461 202.96109 183.0445 171.10521 216.59375 147.61719C219.29467 145.75262 221.92553 145.00562 224.48438 145.02734zM 223.41602 169.03125L220.48828 178.55469L205.80273 221.17188C209.47991 221.5516 214.03371 221.17105 217.64453 221.55078L217.64453 221.9043L215.49609 270.11133L215.86719 270.61719C220.56592 271.08328 226.43068 271.32084 231.21875 270.49414L231.21875 269.73438L229.30078 222.97852L229.58984 221.39648L242.50977 221.17383C236.06577 203.92288 229.8149 186.49832 223.79492 169.03125L223.41602 169.03125zM 188.56836 230.98438C183.19368 231.28579 178.2823 233.66875 173.43555 235.80859C165.19963 239.9926 153.08215 246.31709 154.41797 257.76172C156.18182 264.01096 162.86113 268.04776 168.14648 270.61719C197.35866 283.65717 236.1374 284.10159 266.97852 274.36719L266.98047 274.36719C274.59402 271.39514 284.81493 267.08351 286.21094 257.63281C286.12961 249.82439 277.97188 244.90888 272.10938 241.91797L272.10938 241.54883C274.15323 240.73028 276.50359 239.99382 278.62109 239.76953L278.62109 239.55859C268.29174 237.6836 258.31774 234.94586 248.3125 232.26562C250.24041 236.71412 251.62963 241.40449 253.23633 246.02734C256.24304 245.05328 259.32627 244.31256 262.57031 243.86523C267.84621 245.94561 275.39924 248.92192 276.14844 255.60742C276.73507 261.85665 269.98291 264.90251 265.71875 267.43945C243.09606 275.77978 217.644 276.59317 194.05078 270.25195C187.5335 268.17157 178.12824 265.50167 177.32031 257.09375C181.94578 246.02887 193.91023 243.72355 203.90234 241.03516C198.76757 237.68227 193.54708 234.71551 188.56836 230.98438zM 215.20312 283.88281C214.32704 301.00116 214.11185 316.8454 212.86133 334.00586C219.54922 334.62338 227.09459 335.21106 234.22656 334.16016L232.0957 286.32031L231.7207 284.04297C226.29134 284.25915 221.1513 284.47714 215.20312 283.88281z"/></svg>
