<svg xmlns="http://www.w3.org/2000/svg" viewBox="0 0 448 512" height="16" class="icon icon-inaturalist-square"><path d="M48 32C21.5 32 0 53.5 0 80L0 432C0 458.5 21.5 480 48 480L400 480C426.5 480 448 458.5 448 432L448 80C448 53.5 426.5 32 400 32L48 32zM 178.50781 96C186.63363 97.525769 206.63377 109.4878 214.25391 114.26562C224.72506 120.8308 238.76232 130.85792 247.30664 139.62891C259.10301 151.73917 268.00584 166.41236 275.50391 181.44336C281.17979 192.82125 288.21506 211.4435 288.36328 224.16406C288.38943 226.64018 289.03449 232.97876 285.56445 233.37109C282.45188 233.72856 275.01524 224.7672 272.66992 222.42188C261.85003 211.60199 250.02724 201.64457 237.79492 192.45508L210.14844 171.77344C200.85431 161.9562 195.48255 150.2127 190.53906 137.84961C186.01406 126.53275 180.19052 107.9446 178.50781 96zM 43.367188 132.61914L83.474609 138.35547C129.518 146.65566 174.97621 163.07318 214.25391 188.71484C231.50818 199.9881 248.4307 213.0226 262.83398 227.80078L276.15625 241.58398C278.10052 243.47593 281.2052 246.57237 284.00391 246.94727C287.5001 247.40065 290.05427 244.0428 291.9375 241.60156L306.49805 220.67773C319.42785 204.68766 339.01781 193.89256 359.85547 193.64844L372.0625 193.64844C379.22054 193.65715 389.44736 195.21907 396.47461 196.83203C398.77635 197.36387 403.8252 198.15602 404.54883 200.78906C405.35096 203.71854 400.17174 206.72661 398.21875 208.30469C391.42689 213.76259 387.7729 218.96931 384.07617 226.78125C372.48904 251.24589 373.40506 284.57727 359.58594 314.83984C336.8389 364.6497 296.45349 399.03499 243.02539 411.7207C227.71537 415.35638 212.47518 416.15965 196.81641 415.97656C184.89797 415.83706 167.27875 412.53992 155.83984 409.01758C151.53281 407.70104 144.68736 406.56028 141.88867 402.89844C170.60802 401.58191 203.57474 383.24595 223.8457 363.62891C228.8415 358.79003 238.15208 347.65639 242.23242 341.86719C243.7582 339.69623 246.8789 335.13687 246.0332 332.37305C244.78642 328.27527 238.52766 328.75416 235.17969 328.78906L213.38281 330.5332C180.36515 330.91682 159.16054 316.63455 138.03516 292.16992C133.30091 286.68587 125.27228 278.66492 122.70898 272.11719L149.73633 267.13086L165.42969 265.14258C144.33919 260.88786 112.74256 245.19487 97.423828 230.25977C91.468965 224.45311 84.755851 218.12268 81.730469 210.21484C91.617459 207.35511 101.12859 206.61322 111.37305 206.72656C117.71153 206.80506 120.60781 208.5662 127.06836 206.72656C120.86065 204.43355 106.09856 194.77413 100.03906 190.74609C84.990609 180.72833 72.009751 172.61116 59.0625 159.64648C51.485961 152.06121 44.369832 143.7529 43.367188 132.61914zM 354.79492 211.41797C354.45826 211.42435 354.11137 211.44364 353.75391 211.47852C342.6463 215.88146 348.98364 228.42011 357.24023 226.38867C365.68646 224.31933 365.23135 211.22004 354.79492 211.41797z"/></svg>
