<svg xmlns="http://www.w3.org/2000/svg" viewBox="0 0 448 512" height="16" class="icon icon-inpn-square"><path d="M48 32C21.5 32 0 53.5 0 80L0 432C0 458.5 21.5 480 48 480L400 480C426.5 480 448 458.5 448 432L448 80C448 53.5 426.5 32 400 32L48 32zM 138.375 96.001953C144.52757 95.965698 150.64846 96.482533 156.55664 98.048828C167.19859 100.88986 177.89994 103.7484 186.45703 111.14258C199.41172 121.00735 212.12395 132.36424 219.3457 147.27344L223.79688 154.40625L228.11328 147.1875C244.09314 116.19258 277.99552 96.880608 312.53711 96.205078C329.4534 97.927808 346.70112 103.09155 360.51367 113.55859C377.31027 125.71249 388.29223 144.1559 393.2168 164.11133C396.34017 175.35812 397.05555 187.30076 395.08984 198.83789C390.4615 231.50169 371.43436 259.39522 350.61523 284.0332C328.82259 309.50916 305.15785 333.30844 281.49805 357.05664C261.89774 376.39455 242.23364 396.59313 223.36719 416C219.12012 409.92603 212.99669 405.52952 208.31445 399.84766C192.03895 382.70604 175.24985 366.00324 158.5957 349.20312C123.8525 313.28532 85.861428 279.02179 62.992188 233.78516C50.980358 208.29299 47.369225 177.58408 58.546875 151.17773C63.123115 136.67343 73.349781 124.63188 84.988281 115.14453C94.453591 105.50535 107.08196 100.34752 120.01172 97.271484C126.03918 96.627269 132.22243 96.038208 138.375 96.001953zM 305.4668 165.31055C303.46913 165.35455 301.36103 166.03002 299.12109 167.56055C270.66809 194.96927 243.32791 223.60519 214.85547 251.03516C208.16591 243.36922 200.49375 236.54061 193.41992 229.19531C186.31495 222.91375 178.06116 208.75622 167.56055 217.00977C161.19058 225.16266 146.28993 231.51135 151.02734 243.79102C165.2516 260.02623 181.39047 274.66103 196.45703 290.19336C203.5576 296.45359 211.22658 309.68422 221.97461 302.14453C253.64025 270.7974 285.02303 239.14584 316.57812 207.67969C323.03323 200.80893 336.25064 191.97395 327.16992 182.10547C320.72377 176.78557 314.12335 165.11986 305.4668 165.31055z"/></svg>
