<svg xmlns="http://www.w3.org/2000/svg" viewBox="0 0 448 512" height="16" class="icon icon-inspire-square"><path d="M48 32C21.500027 32 0 53.500027 0 80L0 432C0 458.49997 21.500027 480 48 480L400 480C426.49997 480 448 458.49997 448 432L448 80C448 53.500027 426.49997 32 400 32L48 32zM 64 96L384 96L384 416L64 416L64 96zM 119.48047 152.91211A24.340045 24.340045 0 0 0 95.140625 177.25195A24.340045 24.340045 0 0 0 119.48047 201.59375A24.340045 24.340045 0 0 0 143.82031 177.25195A24.340045 24.340045 0 0 0 119.48047 152.91211zM 173.88867 159.35547L173.88867 359.80273L218.27344 359.80273L218.27344 227.36523L298.45117 359.80273L344.98438 359.80273L344.98438 159.35547L302.74805 159.35547L302.74805 293.22656L219.72656 159.4707L173.88867 159.35547zM 97.289062 218.77344L97.289062 359.80273L141.67383 359.80273L141.67383 218.77344L97.289062 218.77344z"/></svg>
