<svg xmlns="http://www.w3.org/2000/svg" viewBox="0 0 448 512" height="16" class="icon icon-isidore-square"><path d="M48 32C21.5 32 0 53.5 0 80L0 432C0 458.5 21.5 480 48 480L400 480C426.5 480 448 458.5 448 432L448 80C448 53.5 426.5 32 400 32L48 32zM 65.007812 133.03906C136.34532 141.16863 164.57133 200.16859 172.3125 217.95898C188.46339 175.55482 229.10861 147.48047 274.48438 147.48047L274.57227 147.48047C335.00762 147.48047 383.99962 196.47285 384 256.9082C384.00177 317.34495 335.00907 366.34139 274.57227 366.3418C228.57928 366.34136 187.49552 337.58051 171.75391 294.36523C163.73403 312.57171 136.34532 368.7988 65.007812 378.96094C55.049356 295.63238 122.11914 257.01562 122.11914 257.01562C122.11914 257.01562 55.049357 214.33501 65.007812 133.03906zM 274.08789 190.85156C237.79403 190.85156 208.51488 220.6143 208.51562 256.9082C208.5137 293.39186 238.08859 322.97041 274.57227 322.9707C311.05599 322.97047 340.63091 293.39186 340.62891 256.9082C340.6287 220.42603 311.05441 190.8518 274.57227 190.85156C274.41089 190.85095 274.24923 190.85156 274.08789 190.85156zM 274.57227 231.69531C288.49771 231.69571 299.78665 242.98277 299.78711 256.9082C299.78887 270.83508 288.49922 282.1265 274.57227 282.12695C260.64538 282.1265 249.35542 270.83508 249.35742 256.9082C249.35785 242.98277 260.6469 231.69578 274.57227 231.69531z"/></svg>
