<svg xmlns="http://www.w3.org/2000/svg" viewBox="0 0 448 512" height="16" class="icon icon-isni-square"><path d="M48 32C21.500027 32 0 53.500027 0 80L0 432C0 458.49997 21.500027 480 48 480L400 480C426.49997 480 448 458.49997 448 432L448 80C448 53.500027 426.49997 32 400 32L48 32zM 358.81641 159.16016L361.16016 159.28516L363.50195 159.4082L365.00391 159.6543L366.50586 159.89844L367.87891 160.25586L369.25 160.61328L370.64258 161.16602L372.0332 161.71875L372.93555 162.20703L373.83594 162.69531L374.85742 163.39258L375.87891 164.08984L376.76367 164.85938L377.65039 165.62891L378.42383 166.51562L379.19727 167.40039L379.96289 168.54297L380.73047 169.68359L381.44727 171.18555L382.16602 172.6875L382.47266 173.5957L382.7793 174.50391L383.07812 175.69922L383.37695 176.89453L383.56055 177.97461L383.74219 179.05664L383.87109 180.43945L384 181.82031L383.96289 256.98047L383.92578 332.13867L383.70312 333.46094L383.48242 334.7832L383.08984 336.3457L382.69727 337.90625L382.24805 339.10938L381.79688 340.31055L381.2793 341.34375L380.76172 342.375L379.89062 343.68555L379.02148 344.99609L377.57031 346.43945L376.11914 347.88281L375.03711 348.61523L373.95703 349.34766L373.05469 349.83789L372.1543 350.32812L370.82031 350.87109L369.48828 351.41602L367.85156 351.8457L366.21289 352.27734L364.67773 352.53516L363.14258 352.79492L224.59766 352.81836L86.054688 352.83984L84.613281 352.68164L83.171875 352.52539L81.642578 352.21484L80.115234 351.90625L78.65625 351.42578L77.197266 350.94727L75.849609 350.29492L74.501953 349.64258L73.189453 348.76562L71.876953 347.89062L70.425781 346.44336L68.974609 344.99609L68.103516 343.68555L67.234375 342.375L66.716797 341.3418L66.199219 340.31055L65.748047 339.10742L65.298828 337.90625L64.90625 336.34375L64.513672 334.7832L64.292969 333.46094L64.070312 332.13867L64.035156 256.79883L64 181.45898L64.191406 179.77734L64.380859 178.0957L64.681641 176.67188L64.980469 175.24805L65.416016 173.91016L65.853516 172.57031L66.730469 170.82617L67.609375 169.08398L68.421875 167.94922L69.232422 166.81641L70.380859 165.66602L71.529297 164.51758L72.634766 163.73633L73.740234 162.95508L74.550781 162.48828L75.361328 162.02344L76.742188 161.42578L78.123047 160.83008L79.517578 160.42969L80.910156 160.02734L81.919922 159.83594L82.931641 159.64258L84.373047 159.44141L85.814453 159.23828L222.31641 159.19922L358.81641 159.16016zM 89.839844 184.88477L89.839844 195.93945L89.839844 206.99414L102.0957 206.99414L114.35352 206.99414L114.35352 195.93945L114.35352 184.88477L102.0957 184.88477L89.839844 184.88477zM 333.76367 185.00391L333.76367 196.05859L333.76367 207.11523L345.99023 207.08398L358.21484 207.05273L358.21484 196.05859L358.21484 185.06445L345.99023 185.0332L333.76367 185.00391zM 166.20117 217.92773L164.57812 218.04883L162.95703 218.16992L161.45312 218.35938L159.95117 218.54688L158.33008 218.8418L156.70703 219.13672L154.76758 219.61328L152.82812 220.08984L151.10352 220.64258L149.37891 221.19531L147.39453 221.97656L145.41211 222.75977L143.85156 223.50586L142.28906 224.25195L141.14844 224.94922L140.00781 225.64453L138.92578 226.46094L137.84375 227.27539L136.85547 228.19727L135.86719 229.11719L134.9668 230.18945L134.06641 231.26172L133.48047 232.13477L132.89258 233.00781L132.3418 233.97852L131.79297 234.94922L131.25781 236.20117L130.72461 237.45312L130.33789 238.6543L129.95312 239.85742L129.66797 241.11914L129.38281 242.38086L129.17383 243.88281L128.96484 245.38477L128.95703 248.50781L128.95117 251.63281L129.10547 252.71289L129.25977 253.79492L129.55859 255.05664L129.85742 256.31836L130.23242 257.46094L130.60742 258.60156L131.12305 259.77344L131.64062 260.94727L132.33008 262.11523L133.01758 263.28516L133.44141 263.88672L133.86719 264.49023L134.58984 265.39062L135.3125 266.29102L136.33594 267.32031L137.36133 268.34766L138.32227 269.11328L139.2832 269.87695L140.36523 270.58984L141.44727 271.30273L142.64844 271.91016L143.84961 272.51758L144.93164 272.96094L146.01367 273.4043L147.93555 274.1875L149.85742 274.9707L151.83984 275.6543L153.82227 276.33984L158.20898 277.58594L162.5957 278.83203L171.00586 281.14062L179.41797 283.44727L181.12695 283.91016L182.83789 284.37109L183.5918 284.75L184.34375 285.13086L185.1875 285.98438L186.0332 286.83984L186.41602 287.57031L186.79883 288.30078L186.98242 289.00781L187.16797 289.71289L187.16797 291.04492L187.16797 292.375L186.98633 293.0918L186.80469 293.80859L186.33008 294.76953L185.85742 295.73047L185.28125 296.41602L184.70312 297.10156L184.10352 297.56641L183.50195 298.03125L182.78125 298.46094L182.06055 298.88867L181.21875 299.30664L180.37891 299.72266L179.25781 300.16406L178.13672 300.60547L176.7207 300.95117L175.30664 301.29688L174.14453 301.44336L172.98242 301.58984L170.61133 301.52539L168.24219 301.46094L166.85352 301.16016L165.46289 300.85742L164.26953 300.46289L163.07617 300.06836L161.33398 299.19141L159.5918 298.31445L158.45508 297.50391L157.31836 296.69141L156.08594 295.50977L154.85547 294.32812L154.20312 293.52734L153.54883 292.72656L152.87891 291.72266L152.20898 290.71875L151.5293 289.37891L150.85156 288.04102L150.29492 287.46094L149.73828 286.87891L149.29102 286.64844L148.8457 286.41797L148.45117 286.41797L148.05469 286.41797L145.36328 286.7832L142.67188 287.14648L139.47656 287.61328L136.2793 288.08008L130.90234 288.89453L125.52539 289.71094L125.52539 289.89648L125.52539 290.08398L126.30078 292.38086L127.07422 294.67773L127.80469 296.3457L128.53516 298.01367L129.39062 299.57617L130.24414 301.13867L131.00586 302.29688L131.76758 303.45508L132.72461 304.68359L133.68164 305.91406L134.7793 307.10156L135.87695 308.28711L137.2207 309.44336L138.5625 310.59961L139.70508 311.41211L140.8457 312.22656L141.97266 312.9082L143.09961 313.58789L144.49609 314.28711L145.89258 314.98828L147.57422 315.6543L149.25781 316.32031L151.11914 316.875L152.98242 317.43164L154.36328 317.77734L155.74609 318.125L157.60742 318.48633L159.4707 318.84766L161.21289 319.08789L162.95508 319.32617L164.57812 319.45703L166.19922 319.58789L166.74023 319.625L167.28125 319.66016L169.80469 319.67969L172.32812 319.69922L174.07031 319.58008L174.07227 319.58203L175.81445 319.46094L177.43555 319.27539L179.05859 319.08984L180.83984 318.79492L182.62109 318.49805L183.72266 318.25391L184.82617 318.01172L186.68945 317.5332L188.55078 317.05469L190.05273 316.56055L191.55469 316.06836L193.02734 315.43359L194.5 314.79883L195.91016 313.99219L197.32227 313.18555L198.48047 312.38867L199.63867 311.5918L200.82422 310.61133L202.00977 309.63281L203.33789 308.26953L204.66602 306.90625L205.64844 305.66992L206.63086 304.43359L207.5625 303.02734L208.49609 301.61914L209.3457 299.93555L210.19531 298.25391L210.74609 296.75195L211.29688 295.25L211.66406 293.7832L212.0332 292.31641L212.24414 290.95898L212.45508 289.60352L212.45508 287.13867L212.45508 284.67578L212.24023 283.35547L212.02344 282.0332L211.73438 280.88281L211.44727 279.73047L211.01367 278.48633L210.58008 277.24219L210.0625 276.13281L209.54297 275.02344L208.88281 273.90234L208.2207 272.78125L207.32031 271.57422L206.41797 270.36523L205.24219 269.12891L204.06641 267.89258L202.91602 266.93359L201.76758 265.97266L200.32617 265.00781L198.88281 264.04297L196.96094 263.10547L195.03906 262.16602L192.1543 261.08594L189.27148 260.00586L186.92773 259.22266L184.58398 258.44141L182.36133 257.78125L180.13867 257.12305L177.67578 256.39648L175.21289 255.66992L169.92578 254.15625L164.63867 252.64258L162.35547 251.93164L160.07227 251.22266L158.26953 250.60938L156.4668 249.99805L155.83398 249.61719L155.20117 249.23633L154.58594 248.63086L153.97266 248.02734L153.56836 247.4043L153.16602 246.78125L152.92383 246.16602L152.67969 245.55078L152.56445 245.03125L152.44727 244.51172L152.62695 243.80664L152.80664 243.10156L153.24219 242.20898L153.67773 241.31641L154.5918 240.39844L155.50586 239.48047L156.07422 239.1543L156.64453 238.82812L157.91016 238.5957L159.17578 238.36328L160.88477 238.12305L162.5957 237.88477L164.69922 237.69727L166.80078 237.51172L169.80469 237.43945L172.80859 237.36523L174.13086 237.49609L175.45312 237.62695L176.23438 237.82031L177.01562 238.01367L178.33594 238.65625L179.6582 239.29883L180.61914 240.07617L181.58008 240.85547L182.04688 241.41797L182.51172 241.98047L183.14062 242.98438L183.77148 243.98828L184.22461 245.22656L184.67578 246.46484L184.91016 246.92773L185.14258 247.39062L185.64453 247.9375L186.14648 248.48633L186.66211 248.71484L187.17578 248.94336L187.93164 248.94336L188.68555 248.94336L189.63867 248.69531L190.58984 248.44531L191.67383 248.31055L192.75586 248.17773L200.68555 246.87109L208.61719 245.56445L208.88867 245.50195L209.16016 245.43945L209.08398 245.11133L209.00781 244.7832L208.19336 242.32031L207.37891 239.85742L206.74219 238.35547L206.10547 236.85352L205.40234 235.48633L204.70117 234.11914L203.99805 233.00195L203.29688 231.88477L202.61523 230.97852L201.93164 230.07227L201.09766 229.1543L200.26367 228.23633L199.28711 227.35156L198.30859 226.46875L197.21484 225.68164L196.11914 224.89648L193.95703 223.82227L191.79492 222.75L189.8125 221.97266L187.82812 221.19531L186.10352 220.64258L184.37891 220.08984L182.43945 219.61328L180.5 219.13672L178.87695 218.8418L177.25586 218.54688L175.75391 218.35938L174.25195 218.16992L172.62891 218.04883L171.00586 217.92773L168.60352 217.92773L166.20117 217.92773zM 283.83789 218.25586L281.49414 218.32422L279.15039 218.39453L277.58984 218.63281L276.02734 218.87305L274.82617 219.13477L273.62305 219.39453L271.76172 219.99805L269.89844 220.59961L268.32617 221.28906L266.75391 221.97852L265.54102 222.6582L264.32812 223.33984L263.08789 224.1582L261.84766 224.97656L260.58594 225.98242L259.32422 226.98828L256.20117 230.01367L253.07617 233.03711L252.83594 233.30469L252.5957 233.57422L252.53516 227.52344L252.47656 221.47266L240.9707 221.44141L229.46484 221.41211L229.46484 268.99414L229.46484 316.57812L241.90234 316.57812L254.33789 316.57812L254.33789 308.07812L254.33789 299.57617L254.51562 288.52148L254.69336 277.4668L254.81836 272.17969L254.94336 266.89258L255.06055 263.58789L255.17773 260.2832L255.30664 257.46094L255.43359 254.63672L255.60156 253.49414L255.76758 252.35352L256.08203 251.27148L256.39648 250.19141L256.78906 249.28516L257.18164 248.37891L257.6875 247.51367L258.19141 246.64844L258.9043 245.70508L259.61523 244.75977L260.69922 243.72852L261.7832 242.69727L262.96484 241.91016L264.14648 241.12305L265.03906 240.71094L265.93359 240.29883L267.19531 239.82617L268.45703 239.35352L269.6582 239.04297L270.85938 238.73242L271.72461 238.60352L272.58789 238.47461L274.20117 238.47461L275.81445 238.47461L276.8418 238.6543L277.86914 238.83398L278.75 239.14844L279.63086 239.46289L280.5332 239.92969L281.43359 240.39844L282.22656 240.99414L283.01758 241.58984L283.81055 242.42969L284.60352 243.26953L285.22852 244.19727L285.85352 245.12305L286.36914 246.21484L286.88672 247.30664L287.19922 248.26758L287.51172 249.22852L287.80078 250.67188L288.08789 252.11328L288.27734 253.97656L288.46875 255.83789L288.60156 257.33984L288.73633 258.8418L288.83008 286.95898L288.92383 315.07617L289.02539 315.79688L289.125 316.51758L301.56055 316.51758L313.99805 316.51758L314.0293 293.50781L314.0625 270.49805L313.94336 261.48633L313.82227 252.47461L313.63867 249.83008L313.45508 247.1875L313.26953 245.26367L313.08594 243.3418L312.8457 241.83984L312.60742 240.33789L312.25781 238.95508L311.9082 237.57422L311.48828 236.37305L311.07031 235.16992L310.63867 234.16211L310.20703 233.1543L309.55664 231.99805L308.9082 230.83984L308.14844 229.76758L307.38867 228.69531L305.94727 227.20312L304.50781 225.70898L303.27539 224.7832L302.04297 223.85938L300.7793 223.10547L299.51562 222.35352L298.16602 221.74609L296.81445 221.14062L294.50781 220.375L292.20117 219.60938L290.96289 219.30859L289.72461 219.00586L288.39453 218.77344L287.0625 218.54102L285.44922 218.39844L283.83789 218.25586zM 333.76367 221.53125L333.76367 269.05469L333.76367 316.58008L345.99023 316.54883L358.21484 316.51758L358.21484 269.05469L358.21484 221.59375L345.99023 221.5625L333.76367 221.53125zM 89.839844 221.5332L89.839844 269.05469L89.839844 316.57812L102.0957 316.57812L114.35352 316.57812L114.35352 269.05469L114.35352 221.5332L102.0957 221.5332L89.839844 221.5332z"/></svg>
