<svg xmlns="http://www.w3.org/2000/svg" viewBox="0 0 512 512" height="16" class="icon icon-isni"><path d="m39.950925,405.85771-2.23497,-.24487-2.3689,-.4798-2.36897,-.47977-2.26131,-.74256-2.26124,-.74254-2.0887,-1.01179-2.0887,-1.01179-2.03468,-1.35721-2.03468,-1.35722-2.2492,-2.24311-2.24928,-2.24312-1.34858,-2.03093-1.34858,-2.0309-.80204,-1.60091-.80211,-1.60087-.6986,-1.86248-.69869,-1.86246-.60783,-2.4212-.60777,-2.42121-.34336,-2.04871-.34336,-2.04872-.0547,-116.77657-.0547,-116.77657 .29536,-2.60745 .29544,-2.60742 .46485,-2.20597 .46493,-2.20596 .67562,-2.07588 .67562,-2.07587 1.36156,-2.70241 1.36148,-2.7024 1.25813,-1.75714 1.25813,-1.75715 1.77981,-1.78153 1.77982,-1.78161 1.71336,-1.2106 1.71344,-1.2106 1.25602,-.72237 1.2561,-.72245 2.14116,-.9247 2.14107,-.92469 2.15969,-.62168 2.15969,-.6216 1.56599,-.29841 1.56592,-.29833 2.23497,-.31279 2.23497,-.31279 211.576015,-.0618 211.576,-.0618 3.6319,.19357 3.6318,.19357 2.3281,.37932 2.3281,.37933 2.1258,.55397 2.1258,.55397 2.1579,.85708 2.1577,.85707 1.3969,.75591 1.3969,.75591 1.583,1.08152 1.5832,1.08145 1.373,1.19316 1.373,1.19324 1.1984,1.37298 1.1984,1.37297 1.1882,1.76934 1.1883,1.76934 1.1131,2.32808 1.11311,2.32816 .4745,1.40667 .4745,1.40674 .4636,1.8526 .4637,1.8526 .2834,1.67615 .2834,1.67625 .1996,2.14184 .1996,2.14184-.058,116.4972-.058,116.49721-.3433,2.04871-.3433,2.04871-.6079,2.42121-.6078,2.4212-.6986,1.86246-.6987,1.86247-.802,1.60088-.8022,1.6009-1.3485,2.03091-1.3486,2.03093-2.2492,2.23712-2.2493,2.2371-1.6762,1.13561-1.6763,1.1356-1.3968,.75899-1.3969,.75899-2.0655,.84282-2.0656,.84283-2.538,.66768-2.538,.66767-2.3807,.40213-2.3806,.40214-214.74229,.0349-214.742405,.035zm 138.660565,-51.30714 2.70052,-.18479 2.51439,-.28801 2.5143,-.28804 2.76025,-.45908 2.76035,-.45907 1.70961,-.37687 1.70961,-.37689 2.88682,-.74207 2.88683,-.74205 2.32808,-.76373 2.32808,-.7637 2.28196,-.98435 2.28204,-.98436 2.1879,-1.24996 2.18791,-1.24996 1.79498,-1.23514 1.79491,-1.23511 1.83688,-1.51874 1.83689,-1.51875 2.06001,-2.11306 2.06001,-2.11306 1.52268,-1.9154 1.52269,-1.91541 1.44411,-2.18201 1.4442,-2.18204 1.31801,-2.60744 1.31809,-2.60746 .85317,-2.32807 .85324,-2.32808 .57016,-2.27408 .57015,-2.27407 .32789,-2.10272 .3278,-2.10272v-3.81806-3.81805l-.33492,-2.04871-.33492,-2.04871-.44702,-1.7839-.44695,-1.78392-.67148,-1.92897-.67139,-1.92898-.8036,-1.71958-.80352,-1.71958-1.02477,-1.73803-1.02476,-1.73803-1.39768,-1.87113-1.3976,-1.87113-1.82258,-1.91681-1.82258,-1.91681-1.7813,-1.48806-1.7813,-1.48806-2.23497,-1.49607-2.23498,-1.49607-2.97993,-1.45353-2.97994,-1.45353-4.46994,-1.67442-4.46987,-1.67441-3.63186,-1.2133-3.63179,-1.21331-3.44557,-1.02186-3.44557,-1.02187-3.81801,-1.12542-3.81809,-1.12543-8.19485,-2.34697-8.19484,-2.34695-3.53868,-1.09984-3.53868,-1.09986-2.79371,-.94941-2.79372,-.94941-.98169,-.59051-.98176,-.59051-.95183,-.93605-.95175,-.93605-.62527,-.96556-.62519,-.96555-.37636,-.95481-.37635,-.95482-.18028,-.80411-.1802,-.80411 .27792,-1.09357 .27785,-1.09358 .67539,-1.38297 .67538,-1.38297 1.41715,-1.42261 1.41706,-1.42261 .88155,-.50632 .88154,-.50633 1.96221,-.3605 1.9622,-.3605 2.65049,-.37102 2.65057,-.37101 3.25927,-.28855 3.25935,-.28853 4.65616,-.11326 4.65617,-.11325 2.04867,.20332 2.04875,.2033 1.2106,.29966 1.21059,.29967 2.04867,.99494 2.04875,.99496 1.49001,1.20666 1.48993,1.20667 .72112,.87203 .72112,.87203 .977,1.55611 .97692,1.55609 .70111,1.91994 .7011,1.91995 .36119,.71694 .36118,.71695 .77835,.84843 .77827,.84844 .7982,.35529 .79813,.35529h1.16932 1.16939l1.47649,-.38674 1.47656,-.38673 1.67771,-.20705 1.67779,-.20704 12.29227,-2.02552 12.29226,-2.02552 .42154,-.0971 .42154,-.0971-.11898,-.50799-.11899,-.508-1.26134,-3.81806-1.26125,-3.81805-.98693,-2.32808-.98685,-2.32809-1.08919,-2.11922-1.08918,-2.11922-1.08817,-1.73136-1.08817,-1.73136-1.05705,-1.40453-1.05713,-1.40454-1.29284,-1.42341-1.29292,-1.42341-1.51518,-1.36973-1.51518,-1.36974-1.69672,-1.21842-1.69663,-1.2184-3.35246,-1.66365-3.35245,-1.66365-3.07305,-1.20476-3.07305,-1.20476-2.67308,-.85601-2.67309,-.85601-3.00745,-.73888-3.00746,-.73888-2.5143,-.45676-2.51431,-.45676-2.32808,-.29219-2.32808,-.29219-2.51438,-.18754-2.51431,-.18754h-3.7249-3.72498l-2.5143,.18754-2.5143,.18754-2.32809,.29219-2.32808,.29219-2.51438,.45676-2.51431,.45676-3.00745,.73888-3.00746,.73888-2.67308,.85601-2.67301,.85601-3.07312,1.21342-3.07305,1.2134-2.42119,1.15644-2.4212,1.15645-1.7684,1.07939-1.76832,1.07939-1.67725,1.26401-1.67716,1.26401-1.53066,1.42604-1.53066,1.42605-1.39549,1.66332-1.39557,1.66333-.91039,1.35251-.91039,1.35252-.85207,1.50519-.85199,1.5052-.82869,1.94036-.82862,1.94036-.59752,1.86247-.59752,1.86247-.44241,1.95572-.44242,1.95573-.32365,2.32794-.32366,2.32794-.0102,4.84241-.0102,4.84241 .24048,1.67622 .24047,1.67623 .46188,1.95558 .46196,1.95559 .58149,1.76934 .58158,1.76934 .80133,1.8174 .80133,1.81739 1.06667,1.81236 1.06667,1.81239 .65865,.93327 .65866,.93327 1.11999,1.39686 1.1199,1.39684 1.58813,1.59392 1.58804,1.59391 1.49001,1.18409 1.48993,1.1841 1.67622,1.10618 1.67623,1.10619 1.86245,.94026 1.86245,.94027 1.67623,.68844 1.67623,.68844 2.97994,1.21264 2.97993,1.21263 3.07219,1.0616 3.07219,1.0616 6.79888,1.93136 6.79889,1.93137 13.03723,3.57771 13.03731,3.5777 2.65166,.715 2.65174,.715 1.16635,.58852 1.16635,.58852 1.30941,1.32434 1.30934,1.32437 .59384,1.13266 .59385,1.13263 .2852,1.09489 .28511,1.09487v2.06358 2.06357l-.28121,1.11004-.2812,1.11006-.73387,1.48997-.73386,1.48997-.89397,1.06245-.8939,1.06242-.93126,.72107-.93119,.72105-1.11748,.66373-1.11749,.66375-1.30371,.64722-1.30378,.64724-1.73768,.68343-1.73776,.68344-2.19267,.53542-2.19268,.53543-1.80194,.22681-1.80194,.22681-3.67307,-.0998-3.67314,-.0998-2.15336,-.46653-2.15335,-.46653-1.85096,-.61201-1.85096,-.61206-2.70052,-1.35866-2.70061,-1.35869-1.76191,-1.25809-1.76191,-1.25812-1.90787,-1.83127-1.90788,-1.83126-1.01264,-1.2418-1.01265,-1.2418-1.03892,-1.55648-1.03891,-1.5565-1.05174,-2.07532-1.05174,-2.07532-.86301,-.89972-.86302,-.89969-.69102,-.35747-.69102,-.35745-.61269,1.4e-4-.61268,1.2e-4-4.17287,.56426-4.17286,.56424-4.95325,.72304-4.95324,.72303-8.33447,1.26431-8.33455,1.26432 1.6e-4,.28853 1.5e-4,.28853 1.20059,3.56096 1.20051,3.56098 1.13195,2.58516 1.13203,2.58517 1.3238,2.42121 1.3238,2.4212 1.1812,1.79561 1.18128,1.79559 1.48375,1.90615 1.48383,1.90614 1.70086,1.83881 1.70093,1.83879 2.08143,1.79184 2.08143,1.79183 1.76934,1.26133 1.76934,1.26134 1.7469,1.0552 1.7469,1.05519 2.1643,1.08445 2.1643,1.08444 2.60741,1.03239 2.6075,1.03241 2.88682,.86122 2.88683,.86124 2.14178,.53742 2.14186,.53743 2.88683,.56067 2.88682,.56068 2.70053,.37106 2.7006,.37106 2.51431,.20313 2.51438,.20314 .83807,.0557 .83816,.0557 3.91112,.0307 3.9112,.0307 2.7006,-.18479zM 86.046935,276.23612v-73.6605h-18.99718-18.9971v73.6605 73.6605h18.9971 18.99718zm 216.977295,60.48356 1.6e-4,-13.17694 .27519,-17.13468 .27526,-17.13468 .19295,-8.19485 .19294,-8.19485 .18279,-5.12177 .1827,-5.12178 .1981,-4.3768 .19803,-4.37679 .25869,-1.76934 .25862,-1.76934 .48776,-1.67622 .48775,-1.67622 .608,-1.40361 .60799,-1.40362 .7832,-1.34103 .78319,-1.34103 1.10342,-1.46436 1.10341,-1.46435 1.68014,-1.59889 1.68021,-1.59888 1.83102,-1.21896 1.83103,-1.21897 1.38509,-.6396 1.38509,-.63961 1.95556,-.73286 1.95556,-.73286 1.86245,-.48098 1.86253,-.481 1.33936,-.19921 1.33943,-.19922h2.50078 2.50086l1.59109,.27747 1.59117,.27747 1.36664,.48796 1.36664,.48796 1.39682,.72469 1.3969,.72469 1.22795,.92406 1.22795,.92406 1.22819,1.30188 1.22811,1.30188 .96918,1.43624 .9691,1.43624 .8,1.69226 .80001,1.69227 .48541,1.48996 .48533,1.48997 .44578,2.23497 .44577,2.23495 .29489,2.88682 .29489,2.88682 .20843,2.32809 .2085,2.32808 .14533,43.58169 .14534,43.58169 .15479,1.11748 .15479,1.11747h19.27652 19.27651l.051,-35.66621 .051,-35.66621-.1866,-13.96849-.1866,-13.96849-.2844,-4.09742-.2842,-4.09743-.287,-2.97994-.287,-2.97995-.3696,-2.32807-.3696,-2.32809-.5425,-2.14183-.5425,-2.14184-.6495,-1.86246-.6493,-1.86247-.669,-1.56221-.669,-1.56222-1.0067,-1.79371-1.00683,-1.79372-1.17768,-1.66246-1.17776,-1.66244-2.23239,-2.31422-2.23239,-2.31422-1.91046,-1.43439-1.91037,-1.43439-1.95838,-1.1666-1.95845,-1.1666-2.09362,-.9404-2.09363,-.94041-3.57581,-1.18606-3.57574,-1.18604-1.9185,-.46705-1.91851,-.46706-2.06313,-.36071-2.06314,-.3607-2.49992,-.2214-2.49984,-.22138-3.63179,.10708-3.63187,.10707-2.42119,.37079-2.42119,.3708-1.86245,.40535-1.86245,.40535-2.88683,.93346-2.88682,.93345-2.43793,1.06829-2.43792,1.06828-1.87981,1.05504-1.87972,1.05504-1.92156,1.26849-1.92163,1.2685-1.95556,1.55959-1.95556,1.5596-4.84247,4.68721-4.84238,4.68722-.37245,.41638-.37252,.41638-.0931,-9.37855-.0931,-9.37853-17.8331,-.0475-17.8331,-.0475v73.75456 73.75456h19.27651 19.27652zm 161.01009,-60.48356v-73.56738l-18.9506,-.0474-18.95059,-.0475v73.66227 73.66227l18.95059,-.0475 18.9506,-.0474zm 0,-113.14477V146.0498l-18.9506,-.0475-18.95059,-.0474v17.13645 17.13645l18.95059,-.0475 18.9506,-.0474zM 86.046935,162.90511v-17.13469h-18.99718-18.9971v17.13469 17.13468h18.9971 18.99718z"/></svg>
