<svg xmlns="http://www.w3.org/2000/svg" viewBox="0 0 448 512" height="16" class="icon icon-jstor-square"><path d="M48 32C21.5 32 0 53.5 0 80L0 432C0 458.5 21.5 480 48 480L400 480C426.5 480 448 458.5 448 432L448 80C448 53.5 426.5 32 400 32L48 32zM 223.64258 96.001953C230.66581 96.016873 240.10968 96.095282 252.83008 96.195312C282.43877 96.427918 300.43031 96.795181 300.90625 97.171875C302.12756 98.135391 301.83597 101.14616 300.45117 101.88672C299.78276 102.24496 296.67623 103.18647 293.54297 103.98047C285.60812 105.99359 280.72252 108.57964 276.5625 112.9668C272.04169 117.73093 268.31293 125.11119 267.51367 130.86719C267.15284 133.47115 266.92306 170.33955 266.91406 225.30078C266.90335 315.43688 266.67187 327.12751 264.71484 338.70898C261.21264 359.43372 251.25269 377.77228 237.48438 388.86719C227.7449 396.72719 219.56615 400.60266 207.12109 403.22266C200.87859 404.5326 186.31101 405.31017 179.06055 404.69531C166.52197 403.65267 160.80703 403.01101 160.18945 402.63672C159.41148 402.15557 145.86539 360.58286 146.33594 360.10156C146.49103 359.94114 150.41284 363.17656 155.05664 367.24023C172.73365 382.77309 179.01111 386.16508 191.74219 387.1543C200.60207 387.84944 208.74452 385.71124 215.43359 380.92578C225.44305 373.78758 231.14566 363.09716 234.29492 345.58594C235.11287 341.04103 235.33549 333.36441 235.58398 300.74805C235.74736 279.10896 236.2336 241.08758 236.66406 216.26172C237.65348 159.14031 237.52987 132.07342 236.25195 127.73438C234.7842 122.75638 231.50668 117.1837 227.55273 112.93555C223.23499 108.29708 218.08616 105.62452 209.74219 103.68359C204.04238 102.35754 202.10289 101.02571 202.67773 98.828125C203.28726 96.495514 202.57296 95.956473 223.64258 96.001953zM 292.98047 111.12891C293.34675 111.20644 292.68508 111.96073 290.89648 113.375C287.552 116.01906 285.37595 118.68175 283.4082 122.54492C280.25677 128.72867 280.34902 125.8783 280.32812 233.03906C280.31216 341.22644 280.41243 337.67913 276.96094 350.63477C275.13233 357.50562 273.12754 362.72312 269.56641 369.86133C266.45989 376.11725 264.4495 379.21601 259.38867 385.52539C245.91165 402.34149 230.50168 411.67366 210.54688 415.0957C203.50232 416.32545 183.21055 416.29558 176.31836 415.03906C170.15332 413.94291 164.46848 412.3112 165.53516 411.91016C165.98431 411.74966 171.22412 411.93882 177.16992 412.33984C190.66026 413.22207 203.89424 412.42285 212.59375 410.15039C224.59231 407.04916 237.809 399.34701 247.46289 389.80273C253.91662 383.43985 258.18326 377.34391 263.51953 366.89062C267.66074 358.79002 269.01936 355.23317 270.88281 347.7207C274.56372 332.83749 274.44201 336.42853 274.80273 227.85352C275.16093 119.06192 274.86743 126.88151 278.82422 121.40625C281.16614 118.16867 284.23669 115.59842 288.91797 112.95703C291.22785 111.65237 292.61672 111.05111 292.98047 111.12891z"/></svg>
