<svg xmlns="http://www.w3.org/2000/svg" viewBox="0 0 448 512" height="16" class="icon icon-lattes-square"><path d="M48 32C21.5 32 0 53.5 0 80L0 432C0 458.5 21.5 480 48 480L400 480C426.5 480 448 458.5 448 432L448 80C448 53.5 426.5 32 400 32L48 32zM 186.25781 96C217.87062 96.0622 253.98328 102.76751 291.98438 116.27344C307.23086 121.69878 313.2844 125.46653 310.48438 127.81445C308.41246 129.54766 294.36917 129.52214 270.10547 127.73828C232.1761 124.95031 203.30451 130.22509 188.42188 142.68359C165.76452 161.64773 169.21805 203.22033 198.44336 263.18945C201.60866 269.68268 204.79818 276.03654 205.52734 277.33008C207.22339 280.30617 205.99304 283.07018 203.04102 282.93164C201.78357 282.87144 173.47486 279.29406 140.13086 274.97266C106.78577 270.65271 78.8041 266.89514 77.9375 266.61914C76.45622 266.1419 71.155576 248.45977 68.166016 234.06641C67.412776 230.42386 66.307728 220.77787 65.705078 212.61523C63.015928 176.1927 70.940424 151.01303 92.177734 128.36914C112.40373 106.82245 145.61278 95.920029 186.25781 96zM 234.23242 154.44531C246.2097 154.47836 259.75493 157.12268 270.74414 162.0293C287.43473 169.47735 302.23039 182.57724 307.73047 194.75977C314.78918 210.39563 308.9105 227.83932 293.78906 236.16602C283.76633 241.67924 264.28842 244.55653 251.98047 242.3457L251.99414 242.3457L251.99414 242.34375C225.38071 237.55859 201.45646 221.05559 193.73242 202.17969C190.02716 193.1118 190.20248 181.28198 194.1582 174.19922C197.73804 167.79387 206.98068 160.38385 215.25781 157.28125C220.42427 155.34572 227.04605 154.42548 234.23242 154.44531zM 321.69922 162.02734C327.62732 161.32477 356.88806 189.73302 367.66406 206.65039C386.23881 235.82501 387.74753 267.3863 372.02344 297.90625C362.3649 316.65671 351.69057 329.62945 333.81836 344.375C304.11581 368.86546 269.59069 385.92011 221.91602 399.66016C196.3081 407.04552 154.89903 416 146.37109 416C144.56313 416 141.1724 410.07184 130.59766 388.38281L130.57227 388.39453C96.248268 318.06253 75.826172 275.58757 75.826172 274.5332C75.826172 272.81308 77.924265 273.05178 98.546875 277.0957C134.81739 284.21711 154.19529 286.22624 186.49805 286.23828C229.23662 286.25008 264.04005 279.48234 291.08008 265.88086C305.38521 258.68473 313.98763 252.30346 321.0332 243.66211C329.71173 233.01157 332.49935 225.67753 332.59961 213.33203C332.68751 201.58953 331.10488 195.3975 324.31055 181.0293C321.62247 175.35202 319.26047 168.83548 319.03516 166.54883C318.68335 162.86872 318.98598 162.3405 321.69922 162.02734z"/></svg>
