<svg xmlns="http://www.w3.org/2000/svg" viewBox="0 0 512 512" height="16" class="icon icon-mathoverflow"><path d="m202.21325,207.12803c10.08577,-6.2055 19.39403,-10.86119 27.1509,-13.96391 7.75686,-3.10277 13.96394,-4.65416 19.39401,-4.65416 10.86119,0 19.39402,3.87819 25.60108,10.86119 6.2076,6.98092 9.30825,17.06669 9.30825,29.47769v76.80013l4.65412,4.65411 14.7399,1.55139v10.08365h-58.95747v-10.08365l12.41257,-1.55139 4.65412,-4.65411v-71.37006c0,-9.3098-2.32681,-16.29126-6.2076,-20.94538-3.87817,-4.65411-10.08577,-6.98092-18.61806,-6.98092-3.87817,0-8.5323,.77542-13.96394,2.32681-5.42953,1.55138-10.86119,3.87815-17.06668,6.98092v90.76405l4.65411,4.65412 13.18641,1.55138v10.08365h-58.17994v-10.08365l13.18643,-1.55138 4.65411,-4.65412v-71.37006c0,-9.3098-2.32681,-16.29126-6.20758,-20.94538-3.87818,-4.65411-10.08576,-6.98092-17.84264,-6.98092-4.65412,0-9.30827,.77543-13.96396,2.32681-4.65569,1.55138-10.86119,3.87816-16.29127,6.98092v90.76405l4.65412,4.65412 13.18642,1.55138v10.08365H86.621439v-10.08365l14.739921,-1.55138 4.65411,-4.65412V209.45484H86.621439v-8.53231l31.806611,-9.3098h10.08576v14.73988c9.30823,-5.42954 17.84261,-9.3098 24.82354,-12.41257 6.98092,-2.32681 13.18642,-3.87816 18.61807,-3.87816 6.98092,0 12.41257,1.55135 17.84265,4.65412 4.65623,2.32681 9.3098,6.2055 12.41464,12.41257zm 215.63681,-24.99049c-70.5946,0-88.43515,61.28425-88.43515,88.43725 0,33.35795 25.5995,55.07875 65.93838,55.07875 71.37003,0 88.43725,-62.83564 88.43725,-86.10836 0,-36.4628-23.27218,-57.40818-65.94048,-57.40818zm-20.16733,119.46578c-13.18643,0-20.94541,-8.53442-20.94541,-23.2743 0,-10.85962 6.98096,-72.14598 40.33945,-72.14598 14.73778,0 21.72079,8.53438 20.94539,25.6011 0,7.75896-6.20761,69.81864-40.33943,69.81864zM 28.209463,63.999997V448H412.20949l-.0113,-86.39973h-24.95014v61.44018H51.716253V88.96059H387.24934v61.44018h24.95063l.0113,-86.399735z"/></svg>
