<svg xmlns="http://www.w3.org/2000/svg" viewBox="0 0 448 512" height="16" class="icon icon-mathoverflow-square"><path d="M48 32C21.5 32 0 53.5 0 80L0 432C0 458.5 21.5 480 48 480L400 480C426.5 480 448 458.5 448 432L448 80C448 53.5 426.5 32 400 32L48 32zM 34.173828 96L354.17578 96L354.16602 168L333.375 168L333.375 116.80078L53.763672 116.80078L53.763672 395.20117L333.37305 395.20117L333.37305 344L354.16602 344L354.17383 416L34.173828 416L34.173828 96zM 358.875 194.44727C394.43192 194.44727 413.82617 211.90144 413.82617 242.28711C413.82617 261.68104 399.60198 314.04492 340.12695 314.04492C306.51122 314.04492 285.17969 295.94477 285.17969 268.14648C285.17969 245.51898 300.04617 194.44727 358.875 194.44727zM 217.96484 199.75781C227.01583 199.75781 234.12628 202.98942 239.29883 208.80859C244.47183 214.62602 247.05664 223.0325 247.05664 233.375L247.05664 297.375L250.93555 301.25195L263.21875 302.54492L263.21875 310.94922L214.08594 310.94922L214.08594 302.54492L224.42969 301.25195L228.30859 297.375L228.30859 237.89844C228.30859 230.14027 226.37071 224.32374 223.13672 220.44531C219.90491 216.56688 214.73133 214.62695 207.62109 214.62695C204.38928 214.62695 200.51075 215.27359 195.98438 216.56641C191.45978 217.85923 186.93296 219.79716 181.76172 222.38281L181.76172 298.01953L185.64062 301.89844L196.62891 303.19141L196.62891 311.59375L148.14648 311.59375L148.14648 303.19141L159.13477 301.89844L163.01367 298.01953L163.01367 238.54492C163.01367 230.78676 161.07382 224.96827 157.83984 221.08984C154.60803 217.21142 149.43476 215.27344 142.9707 215.27344C139.09226 215.27344 135.21372 215.92007 131.33398 217.21289C127.45424 218.5057 122.28288 220.44367 117.75781 223.0293L117.75781 298.66602L121.63672 302.54492L132.625 303.83789L132.625 312.24023L82.851562 312.24023L82.851562 303.83789L95.134766 302.54492L99.013672 298.66602L99.013672 217.21289L82.851562 217.21289L82.851562 210.10156L109.35742 202.34375L117.76172 202.34375L117.76172 214.62695C125.51858 210.10234 132.62983 206.86884 138.44727 204.2832C144.26471 202.34419 149.43652 201.05078 153.96289 201.05078C159.78032 201.05078 164.30697 202.34405 168.83203 204.92969C172.71223 206.8687 176.59036 210.10088 179.17773 215.27344C187.58254 210.10219 195.33867 206.22232 201.80273 203.63672C208.26678 201.05107 213.43978 199.75781 217.96484 199.75781zM 358.23047 214.48633C330.43173 214.48633 324.61523 265.55773 324.61523 274.60742C324.61523 286.89065 331.07967 294.00195 342.06836 294.00195C370.51154 294.00195 375.68555 242.28611 375.68555 235.82031C376.33172 221.59804 370.51195 214.48633 358.23047 214.48633z"/></svg>
