<svg xmlns="http://www.w3.org/2000/svg" viewBox="0 0 512 512" height="16" class="icon icon-moodle"><path d="M337.17854,86.713498C195.04926,104.13793 130.41726,116.48289 8.000174,187.44679l1.135338,3.22337 9.729091,.0984c-.892098,9.79855-2.446497,34.01602-.460882,70.43325-13.582718,39.30928-.344774,66.01474 12.086867,95.06504 1.971225,-30.21579 1.768769,-63.31014-7.511792,-96.24536-1.942436,-36.17262-.346551,-59.95619 .531143,-69.20797l81.151511,.77562a371.22249,371.22249 0 0 0 2.40277,47.56907c10e-4,6.9e-4 .003,.001 .006,.003-1.13433,6.6568-1.70304,13.70989-1.70304,21.16116v164.96411h79.36644V269.5173c-.0129,-8.70371 .94549,-16.23374 2.85803,-22.61127 20.45581,-3.35523 39.75096,-10.883 56.95809,-22.18408 13.42353,6.67454 20.14106,21.60066 20.14106,44.79535v155.7692h79.35267V269.51728c.0576,-32.57549 13.51356,-48.85732 40.37203,-48.84773 26.85846,.01 40.28771,16.29141 40.28771,48.84773V425.2865h79.29662V260.32214c-.01,-33.99515-11.81484,-59.71536-35.41193,-77.16378-20.75777,-15.58751-48.83312,-23.38126-84.22876,-23.38126-38.71456,0-65.39237,9.20303-80.03024,27.61068-3.87735,-4.20138-8.25082,-7.91703-13.11261,-11.15949-10.75375,-12.04119-31.79205,-28.45094-31.79205,-28.45094l78.76284,-57.553854z"/></svg>
