<svg xmlns="http://www.w3.org/2000/svg" viewBox="0 0 448 512" height="16" class="icon icon-moodle-square"><path d="M48 32C21.5 32 0 53.5 0 80L0 432C0 458.5 21.5 480 48 480L400 480C426.5 480 448 458.5 448 432L448 80C448 53.5 426.5 32 400 32L48 32zM 276.37305 146.7832L277.02344 149.04688L226.20898 186.17969C226.20898 186.17969 239.7828 196.76665 246.7207 204.53516C249.85734 206.62707 252.67817 209.02381 255.17969 211.73438C264.62348 199.85848 281.83537 193.91992 306.8125 193.91992C329.6484 193.91992 347.76219 198.94941 361.1543 209.00586C376.37823 220.26291 383.994 236.8567 384 258.78906L384 365.2168L332.8418 365.2168L332.8418 264.7207C332.8418 243.71662 324.17764 233.21303 306.84961 233.20703C289.52155 233.20084 280.83983 243.70425 280.80273 264.7207L280.80273 365.2168L229.60742 365.2168L229.60742 264.7207C229.60742 249.75638 225.27362 240.12647 216.61328 235.82031C205.5119 243.11133 193.06253 247.96815 179.86523 250.13281C178.63133 254.24734 178.01348 259.1054 178.02148 264.7207L178.02148 365.2168L126.81836 365.2168L126.81836 258.78906C126.81836 253.98178 127.1842 249.43142 127.91602 245.13672C127.91402 245.1354 127.9128 245.13521 127.91211 245.13477A239.49838 239.49838 0 0 1 126.36133 214.44531L74.005859 213.94336C73.43961 219.91226 72.410877 235.25658 73.664062 258.59375C79.651517 279.84228 79.781524 301.19344 78.509766 320.6875C70.489357 301.94537 61.949846 284.7163 70.712891 259.35547C69.431849 235.86049 70.434219 220.23767 71.009766 213.91602L64.732422 213.85156L64 211.77148C142.97876 165.98832 184.67673 158.02477 276.37305 146.7832z"/></svg>
