<svg xmlns="http://www.w3.org/2000/svg" viewBox="0 0 512 512" height="16" class="icon icon-mtmt"><path d="M64,256V448H256 448V256 64H256 64Zm 375.74199,0V439.74193H256 72.258057V256 72.258075H256 439.74199Z"/><path d="m326.60637,277.23153c-2.89022,9.08387-4.74829,11.5613-10.73543,14.45161-5.3678,2.68388-7.22586,4.74839-7.22586,8.67097 0,4.33548 1.03231,5.16129 5.98715,5.16129h5.98714l.82576,33.44517c.61935,27.6645 1.23871,34.89032 4.33549,40.4645 5.98714,10.94193 21.47101,15.27742 40.46446,11.56128 5.78075,-1.2387 6.40011,-2.0645 6.40011,-9.08385v-7.84517l-11.56135,.41291c-16.72258,.41289-17.34193,-1.03227-17.34193,-38.4V305.5154h14.45156 14.45172v-8.25807-8.25806H358.19347 343.74191V277.64443 266.28959H336.929c-6.39995,0-7.0193,.61935-10.32263,10.94194z"/><path d="m177.54841,289.41218c-3.30333,1.23871-8.67097,4.54193-11.76775,7.43225-5.98714,5.5742-5.57418,5.78064-8.87752,-4.74839-.61935,-2.0645-3.71612,-3.09677-9.29032,-3.09677h-8.25801v50.58065 50.58064h11.35479 11.35494v-32.82581c0,-18.16774 .82575,-35.30322 1.85806,-37.98709 3.71613,-9.29033 10.32248,-13.83226 21.05806,-13.83226 8.05162,0 10.52904,1.03225 14.03862,5.36774 3.92268,5.16129 4.33548,8.25807 4.33548,42.32259v36.95483h11.35494 11.35478v-34.06452c0,-44.8 2.68383,-50.58064 23.53549,-50.58064 7.43226,0 9.90968,1.03225 13.4194,5.36774 3.92254,5.16129 4.33549,8.25807 4.33549,42.32259v36.95483h11.56119 11.56134l-.82576,-39.84516c-.8259,-43.97419-2.89037,-52.43872-14.24515,-58.4258-15.07108,-7.63872-36.33554,-5.1613-47.07097,5.36773l-5.98715,6.19355-3.92253,-5.16129c-6.81291,-9.49676-26.83881,-13.83225-40.87742,-8.87741z"/><path d="m326.60637,130.6509c-2.89022,9.08386-4.74829,11.56128-10.73543,14.4516-5.3678,2.68387-7.22586,4.74838-7.22586,8.67097 0,4.33548 1.03231,5.16129 5.98715,5.16129h5.98714l.82576,33.44516c.61935,27.66451 1.23871,34.89031 4.33549,40.46451 5.98714,10.94192 21.47101,15.27741 40.46446,11.56128 5.78075,-1.23872 6.40011,-2.06451 6.40011,-9.08386v-7.84517l-11.56135,.41291c-16.72258,.41291-17.34193,-1.03227-17.34193,-38.4v-30.55483h14.45156 14.45172v-8.25807-8.25805H358.19347 343.74191V131.06379 119.70895H336.929c-6.39995,0-7.0193,.61936-10.32263,10.94195z"/><path d="m177.54841,142.83153c-3.30333,1.23871-8.67097,4.54195-11.76775,7.43226-5.98714,5.57419-5.57418,5.78064-8.87752,-4.74838-.61935,-2.06453-3.71612,-3.09677-9.29032,-3.09677h-8.25801v50.58063 50.58064h11.35479 11.35494V210.7541c0,-18.16774 .82575,-35.30321 1.85806,-37.98709 3.71613,-9.29033 10.32248,-13.83225 21.05806,-13.83225 8.05162,0 10.52904,1.03226 14.03862,5.36775 3.92268,5.16128 4.33548,8.25805 4.33548,42.32256v36.95484h11.35494 11.35478v-34.06452c0,-44.79999 2.68383,-50.58063 23.53549,-50.58063 7.43226,0 9.90968,1.03226 13.4194,5.36775 3.92254,5.16128 4.33549,8.25805 4.33549,42.32256v36.95484h11.56119 11.56134l-.82576,-39.84516c-.8259,-43.97419-2.89037,-52.4387-14.24515,-58.4258-15.07108,-7.63871-36.33554,-5.16129-47.07097,5.36774l-5.98715,6.19356-3.92253,-5.16131c-6.81291,-9.49676-26.83881,-13.83225-40.87742,-8.87741z"/></svg>
