<svg xmlns="http://www.w3.org/2000/svg" viewBox="0 0 448 512" height="16" class="icon icon-mtmt-square"><path d="M48 32C21.5 32 0 53.5 0 80L0 432C0 458.5 21.5 480 48 480L400 480C426.5 480 448 458.5 448 432L448 80C448 53.5 426.5 32 400 32L48 32zM 64 96L224 96L384 96L384 256L384 416L224 416L64 416L64 256L64 96zM 70.880859 102.88086L70.880859 256L70.880859 409.11914L224 409.11914L377.11914 409.11914L377.11914 256L377.11914 102.88086L224 102.88086L70.880859 102.88086zM 291.44141 142.42383L297.11914 142.42383L297.11914 151.88672L297.11914 161.34961L309.16211 161.34961L321.20508 161.34961L321.20508 168.23047L321.20508 175.11133L309.16211 175.11133L297.11914 175.11133L297.11914 200.57422C297.11914 231.714 297.63483 232.91831 311.57031 232.57422L321.20508 232.23047L321.20508 238.76758C321.20508 244.61704 320.68837 245.30563 315.87109 246.33789C300.04321 249.43467 287.13967 245.82139 282.15039 236.70312C279.56974 232.05797 279.05324 226.03618 278.53711 202.98242L277.84961 175.11133L272.85938 175.11133C268.73034 175.11133 267.87109 174.42344 267.87109 170.81055C267.87109 167.54172 269.41941 165.82249 273.89258 163.58594C278.88186 161.17734 280.42937 159.11286 282.83789 151.54297C285.59066 142.94081 286.10811 142.42383 291.44141 142.42383zM 170.56445 159.98438C179.67706 160.24126 188.78427 163.649 192.6875 169.08984L195.95703 173.39258L200.94531 168.23047C209.8915 159.45628 227.61264 157.39221 240.17188 163.75781C249.6342 168.74706 251.35473 175.80015 252.04297 212.44531L252.73047 245.65039L243.09766 245.65039L233.46289 245.65039L233.46289 214.85352C233.46289 186.46643 233.1184 183.887 229.84961 179.58594C226.92484 175.97303 224.85958 175.11133 218.66602 175.11133C201.28964 175.11133 199.05469 179.93034 199.05469 217.26367L199.05469 245.65039L189.5918 245.65039L180.12891 245.65039L180.12891 214.85352C180.12891 186.46643 179.78453 183.887 176.51562 179.58594C173.59098 175.97303 171.52609 175.11133 164.81641 175.11133C155.87009 175.11133 150.36631 178.89673 147.26953 186.63867C146.40928 188.87524 145.7207 203.15514 145.7207 218.29492L145.7207 245.65039L136.25781 245.65039L126.79492 245.65039L126.79492 203.5L126.79492 161.34961L133.67773 161.34961C138.32289 161.34961 140.90379 162.20925 141.41992 163.92969C144.1727 172.70388 143.82712 172.53188 148.81641 167.88672C151.39706 165.47812 155.87027 162.72562 158.62305 161.69336C162.27893 160.40303 166.42236 159.86761 170.56445 159.98438zM 291.44141 264.57422L297.11914 264.57422L297.11914 274.03711L297.11914 283.5L309.16211 283.5L321.20508 283.5L321.20508 290.38086L321.20508 297.26367L309.16211 297.26367L297.11914 297.26367L297.11914 322.72461C297.11914 353.86439 297.63483 355.06869 311.57031 354.72461L321.20508 354.38086L321.20508 360.91797C321.20508 366.76743 320.68837 367.45603 315.87109 368.48828C300.04321 371.58506 287.13967 367.97179 282.15039 358.85352C279.56974 354.20837 279.05324 348.18852 278.53711 325.13477L277.84961 297.26367L272.85938 297.26367C268.73034 297.26367 267.87109 296.57384 267.87109 292.96094C267.87109 289.69212 269.41941 287.9729 273.89258 285.73633C278.88186 283.32774 280.42937 281.26326 282.83789 273.69336C285.59066 265.09121 286.10811 264.57422 291.44141 264.57422zM 170.56445 282.13477C179.67706 282.39165 188.78427 285.80133 192.6875 291.24219L195.95703 295.54297L200.94531 290.38086C209.8915 281.60667 227.61264 279.5426 240.17188 285.9082C249.6342 290.89744 251.35473 297.95054 252.04297 334.5957L252.73047 367.80078L243.09766 367.80078L233.46289 367.80078L233.46289 337.00391C233.46289 308.61681 233.1184 306.03741 229.84961 301.73633C226.92484 298.12342 224.85958 297.26367 218.66602 297.26367C201.28964 297.26367 199.05469 302.08073 199.05469 339.41406L199.05469 367.80078L189.5918 367.80078L180.12891 367.80078L180.12891 337.00391C180.12891 308.61681 179.78453 306.03741 176.51562 301.73633C173.59098 298.12342 171.52609 297.26367 164.81641 297.26367C155.87009 297.26367 150.36631 301.04712 147.26953 308.78906C146.40928 311.02562 145.7207 325.30552 145.7207 340.44531L145.7207 367.80078L136.25781 367.80078L126.79492 367.80078L126.79492 325.65039L126.79492 283.5L133.67773 283.5C138.32289 283.5 140.90379 284.35966 141.41992 286.08008C144.1727 294.85427 143.82712 294.68227 148.81641 290.03711C151.39706 287.62851 155.87027 284.876 158.62305 283.84375C162.27893 282.55343 166.42236 282.018 170.56445 282.13477z"/></svg>
