<svg xmlns="http://www.w3.org/2000/svg" viewBox="0 0 448 512" height="16" class="icon icon-nakala-square"><path d="M48 32C21.5 32 0 53.5 0 80L0 432C0 458.5 21.5 480 48 480L400 480C426.5 480 448 458.5 448 432L448 80C448 53.5 426.5 32 400 32L48 32zM 111.91992 151.06055C138.40911 150.7199 163.02379 167.41374 178.87891 198.41992A88.610631 88.610631 0 0 1 227.75391 183.72266A88.610631 88.610631 0 0 1 270.95312 194.96875C294.06317 153.07778 333.83475 139.44792 371.36719 161.52539C347.40329 158.19269 331.88281 159.97656 331.88281 159.97656C331.88281 159.97656 361.76263 170.58217 384 203.69336C371.45433 194.39925 353.08789 186.27148 353.08789 186.27148C353.08789 186.27148 363.54086 197.47943 367.79688 210.75781C370.43344 218.98369 369.45003 239.71088 352.24023 249.88672C340.26937 256.96485 325.60903 257.1494 314.13477 252.58984A88.610631 88.610631 0 0 1 316.36328 272.33398A88.610631 88.610631 0 0 1 227.75391 360.94531A88.610631 88.610631 0 0 1 139.14062 272.33398A88.610631 88.610631 0 0 1 142.64453 247.67188C130.83634 256.71202 111.09229 258.9526 95.759766 249.88672C78.550049 239.71088 77.566566 218.98369 80.203125 210.75781C84.459117 197.47943 94.912109 186.27148 94.912109 186.27148C94.912109 186.27148 76.545596 194.39925 64 203.69336C86.237269 170.58217 116.11719 159.97656 116.11719 159.97656C116.11719 159.97656 100.5966 158.19269 76.632812 161.52539C88.368754 154.62199 100.32362 151.20968 111.91992 151.06055zM 227.75391 206.32422A66.010326 66.010326 0 0 0 161.74414 272.33398A66.010326 66.010326 0 0 0 227.75391 338.34375A66.010326 66.010326 0 0 0 293.76367 272.33398A66.010326 66.010326 0 0 0 227.75391 206.32422zM 227.75391 236.89453A35.441025 35.441025 0 0 1 263.19336 272.33398A35.441025 35.441025 0 0 1 227.75391 307.77539A35.441025 35.441025 0 0 1 192.3125 272.33398A35.441025 35.441025 0 0 1 227.75391 236.89453zM 238.3418 242.93359A13.51707 13.51707 0 0 0 224.98633 256.45117A13.51707 13.51707 0 0 0 238.50391 269.9668A13.51707 13.51707 0 0 0 252.01953 256.45117A13.51707 13.51707 0 0 0 238.50391 242.93359A13.51707 13.51707 0 0 0 238.3418 242.93359z"/></svg>
