<svg xmlns="http://www.w3.org/2000/svg" viewBox="0 0 448 512" height="16" class="icon icon-obp-square"><path d="M48 32C21.5 32 0 53.5 0 80L0 432C0 458.5 21.5 480 48 480L400 480C426.5 480 448 458.5 448 432L448 80C448 53.5 426.5 32 400 32L48 32zM 139.09766 96C173.71405 121.68927 203.48682 149.2773 223.52539 186.69531C243.42151 149.2773 273.33722 121.83173 307.76367 96L307.76367 126.91211C318.16284 122.35358 327.28028 117.08333 338.1543 113.33203L338.1543 148.70898C348.50598 147.28444 357.85961 145.14612 367.87891 144.71875L367.87891 355.93164C319.77682 376.01772 271.81705 396.0089 223.85742 416C175.89777 396.0089 128.1757 376.01772 80.121094 355.93164L80.121094 144.5293C89.38063 145.7639 98.354986 146.95167 108.2793 148.28125L108.2793 113.33203C119.29578 117.08333 128.50854 122.25959 139.09766 127.29297L139.09766 96zM 299.31055 112.76172C292.18783 118.93474 286.0158 124.01643 280.22266 129.42969C260.51647 147.71134 242.37597 167.32158 230.74219 192.01367C228.55789 196.6197 226.61133 201.2254 226.61133 206.63867L226.75391 385.08789C245.5579 353.08314 273.09884 328.72252 301.44727 306.07227C300.73499 241.87284 300.02282 178.14828 299.31055 112.76172zM 147.74023 112.95117C146.98047 178.48017 146.26696 242.58644 145.55469 306.12109C174.52041 329.1987 200.5431 353.89038 220.1543 385.08789L220.1543 379.05664C220.1543 323.02459 220.05942 266.99299 220.29688 210.96094C220.34438 203.26839 218.63374 196.38286 215.21484 189.6875C199.54487 158.86988 175.09147 135.74387 147.74023 112.95117zM 329.74805 125.86719C321.96054 129.71346 314.64861 132.61138 308.0957 137.16992C308.71302 194.91142 309.37684 252.41584 309.99414 309.91992C301.87425 316.75773 293.70682 323.26192 285.9668 330.24219C270.72419 343.96529 256.10008 358.35286 244.65625 375.58984L242.4707 379.15234C242.99303 378.63001 243.37464 378.29664 243.70703 378.01172C244.32434 377.48939 244.93995 376.96826 245.50977 376.39844C271.48396 354.55544 301.20972 339.07491 332.78711 326.39648C331.78994 259.68035 330.79271 193.15314 329.74805 125.86719zM 116.92188 126.20117C115.82972 193.24969 114.7849 259.77531 113.74023 326.39648C145.69749 339.21737 175.66122 354.88783 202.34766 376.39844C184.63584 349.94942 161.27327 329.24513 137.10352 310.15625C137.72082 251.84493 138.33778 194.38896 138.95508 137.02734C131.6899 133.03861 124.89933 129.33516 116.92188 126.20117zM 359.37891 153.93164C352.39863 155.11876 345.70415 156.21132 338.62891 157.39844C339.53113 215.56731 340.3849 275.20673 341.28711 332.56836L334.63867 334.89648C322.0552 339.78742 309.80479 345.34347 297.93359 351.75391C275.56825 363.76757 254.34234 377.25146 237.72266 396.91016L233.78125 402.4668L307.71484 371.88672C324.85686 364.71651 341.99948 357.54704 359.37891 350.23438L359.37891 153.93164zM 88.667969 154.16797L88.667969 350.32812C129.97974 367.61259 170.95999 384.75498 213.31641 402.4668C206.95345 393.87205 200.73234 387.50995 193.89453 381.7168C169.86723 361.34583 142.23134 347.14671 113.26562 335.41797C110.51152 334.27833 105.24023 332.23633 105.24023 332.23633C106.14245 274.82722 107.04507 215.18596 107.94727 157.20703L88.667969 154.16797z"/></svg>
