<svg xmlns="http://www.w3.org/2000/svg" viewBox="0 0 448 512" height="16" class="icon icon-open-access-square"><path d="M48 32C21.5 32 0 53.5 0 80L0 432C0 458.5 21.5 480 48 480L400 480C426.5 480 448 458.5 448 432L448 80C448 53.5 426.5 32 400 32L48 32zM 224.19336 96C271.24358 96.000001 309.75391 134.5099 309.75391 181.56055L309.75391 262.11328C319.33942 277.53702 324.89062 295.70083 324.89062 315.10938C324.89062 370.62644 279.51706 416 224 416C168.48294 416 123.10938 370.62644 123.10938 315.10938C123.10938 259.59233 168.48294 214.2207 224 214.2207C242.77913 214.2207 260.39398 219.41793 275.48828 228.4375L275.48828 181.56055C275.48828 153.02785 252.72497 130.26562 224.19336 130.26562C195.66174 130.26562 172.90039 153.02785 172.90039 181.56055L172.90039 193.24609L138.63477 193.24609L138.63477 181.56055C138.63477 134.5099 177.1431 96 224.19336 96zM 224 248.48438C187.00126 248.48437 157.375 278.11064 157.375 315.10938C157.375 352.10812 187.00126 381.73438 224 381.73438C260.99872 381.73438 290.625 352.10811 290.625 315.10938C290.625 278.11065 260.99872 248.48438 224 248.48438zM 224.32812 287.14648C239.94029 287.14648 252.59766 299.80188 252.59766 315.41406C252.59766 331.02621 239.94028 343.68359 224.32812 343.68359C208.71596 343.68359 196.06055 331.02621 196.06055 315.41406C196.06055 299.80188 208.71596 287.14648 224.32812 287.14648z"/></svg>
