<svg xmlns="http://www.w3.org/2000/svg" viewBox="0 0 448 512" height="16" class="icon icon-open-materials-square"><path d="M48 32C21.5 32 0 53.5 0 80L0 432C0 458.5 21.5 480 48 480L400 480C426.5 480 448 458.5 448 432L448 80C448 53.5 426.5 32 400 32L48 32zM 223.99414 96C233.32702 96 242.65437 98.043922 249.73438 102.13672L344.38867 156.77734C358.54041 164.9546 370.125 185.00571 370.125 201.34766L370.125 310.65039C370.125 326.99654 358.54041 347.05548 344.38867 355.22852L249.72852 409.88281C242.65688 413.9631 233.32702 416 223.99414 416C214.66957 416 205.33781 413.9631 198.25781 409.88281L103.61133 355.22852C89.455524 347.05548 77.875 326.99654 77.875 310.65039L77.875 201.34766C77.875 185.00571 89.455524 164.9546 103.61133 156.77734L198.25781 102.13672C205.33782 98.043922 214.66538 96 223.99414 96zM 186.53711 190.02344L121.94531 216.3457L159.41992 231.09375L224 204.77734L186.53711 190.02344zM 224 204.77734L288.58594 231.09375L326.04883 216.3457L261.48047 190.02344L224 204.77734zM 288.58594 231.09375L224 257.39648L159.41992 231.09375L159.41992 295.67188L224 321.98242L288.58594 295.67188L288.58594 231.09375z"/></svg>
