<svg xmlns="http://www.w3.org/2000/svg" viewBox="0 0 512 512" height="16" class="icon icon-open-materials"><path d="m255.99051,7.9999992c-14.45957,0-28.91558,3.1667158-39.88958,9.5105468L69.397238,102.20596C47.455739,114.88072 29.50769,145.96034 29.50769,171.29036v169.41925c0,25.33653 17.948049,56.42568 39.889548,69.0939l146.703692,84.71437c10.974,6.32444 25.4365,9.48212 39.88958,9.48212 14.46596,0 28.92849,-3.15768 39.88953,-9.48212l146.72261,-84.71437c21.9352,-12.66822 39.88966,-43.75737 39.88966,-69.0939V171.29036c0,-25.33002-17.95446,-56.40964-39.88966,-69.0844L295.88952,17.510546c-10.974,-6.343831-25.43305,-9.5105468-39.89901,-9.5105468zm-58.05822,145.7374608 58.06766,22.86711 58.09612,-22.86711 100.07901,40.79892-58.06755,22.85762V317.49208L255.99995,358.27204 155.90196,317.49208V217.394L97.815363,194.53638ZM 155.90196,217.394 255.99995,258.16451 356.10753,217.394 255.99995,176.60457Z"/></svg>
