<svg xmlns="http://www.w3.org/2000/svg" viewBox="0 0 256 512" height="16" class="icon icon-open-access"><path d="m128.23305,64.000002c-56.460308,0-102.670899,46.211658-102.670899,102.672438v14.02215h41.118177v-14.02215c0,-34.23923 27.314786,-61.55425 61.552722,-61.55425 34.23793,0 61.55272,27.31502 61.55272,61.55425v56.25186c-18.11316,-10.82348-39.2508,-17.06007-61.78576,-17.06007-66.62047,0-121.0678874,54.44743-121.0678874,121.06788C6.9321226,393.55258 61.37954,448 128.00001,448c66.62047,0 121.06787,-54.44742 121.06787,-121.06789 0,-23.29025-6.66132,-45.0879-18.16393,-63.59639v-96.66328c0,-56.46078-46.21063,-102.672437-102.6709,-102.672438zm-.23301,182.982408c44.39846,0 79.94968,35.55122 79.94968,79.9497 0,44.39849-35.55122,79.94973-79.94968,79.94973-44.398491,0-79.949707,-35.55124-79.949707,-79.94973 0,-44.39848 35.551216,-79.9497 79.949707,-79.9497zm .39478,46.39298c-18.7346,0-33.921611,15.187-33.921611,33.92161 0,18.73459 15.187011,33.92238 33.921611,33.92238 18.7346,0 33.92238,-15.18779 33.92238,-33.92238 0,-18.73461-15.18778,-33.92161-33.92238,-33.92161z"/></svg>
