<svg xmlns="http://www.w3.org/2000/svg" viewBox="0 0 384 512" height="16" class="icon icon-openedition"><path d="m190.22492,64.021331c-55.20128,.96136-107.104462,34.33842-129.016775,88.772379-29.240466,72.58895 5.926181,155.11607 78.504835,184.34279 10.79068,4.34517 21.79562,7.23392 32.82698,8.83241L182.36437,448h18.08785l9.52732,-101.6685c49.43309,-6.14649 94.14302,-38.20621 114.08125,-87.7149 .0411,-.0825 .0745,-.18074 .11577,-.27699-33.70251,20.80798-83.80321,33.82998-134.96887,13.23859-44.08408,-17.74506-63.97427,-57.78436-49.84219,-92.90661 12.20703,-30.30611 44.78314,-43.61316 71.64131,-32.80181 30.99022,12.48545 43.7489,46.43949 32.37379,74.67273-5.54145,13.79176-17.29219,25.04895-28.8942,33.99022 43.96726,15.91965 93.51886,1.55504 109.36291,-22.5393 19.68728,-29.90736-4.54714,-87.82568-4.54714,-87.82568C305.76135,114.37041 281.75123,88.86444 245.53584,74.288911 227.39118,66.984811 208.6254,63.70088 190.22492,64.021331ZM 19.332209,308.55955c2.715714,31.27552 63.88827,104.88885 148.464221,103.70288-.0413,-.12041-.0755,-.25139-.14102,-.33739C143.46482,348.45612 83.357999,309.23674 19.332182,308.55955Zm 337.475001,41.48316c-80.69009,1.02619-143.17995,83.96646-144.60193,97.87672 63.99489,1.86663 125.61455,-34.94217 152.3215,-97.38322 .0412,-.10649 .0861,-.22586 .14104,-.33236-2.63937,-.14257-5.25766,-.19413-7.86057,-.16114z"/></svg>
