<svg xmlns="http://www.w3.org/2000/svg" viewBox="0 0 448 512" height="16" class="icon icon-open-data-square"><path d="M48 32C21.5 32 0 53.5 0 80L0 432C0 458.5 21.5 480 48 480L400 480C426.5 480 448 458.5 448 432L448 80C448 53.5 426.5 32 400 32L48 32zM 222.0625 96.001953C222.70239 95.99674 223.34723 96.005636 223.99609 96.029297C231.85494 96.051421 239.80973 97.405534 246.9707 100.73242C276.55721 117.45587 305.86893 134.67753 335.34961 151.59375C353.71523 160.20006 367.98389 177.67087 369.95117 198.25C370.26134 232.24002 369.99598 266.24153 370.08398 300.23633C371.81296 320.44513 363.81813 341.53637 346.97656 353.52734C317.69851 370.79069 288.12359 387.56315 258.73047 404.63672C242.09115 416.24047 219.82467 419.84613 201.01562 411.26953C171.42732 394.54785 142.12026 377.31424 112.64062 360.39453C94.276669 351.78528 80.006535 334.31901 78.041016 313.73828C77.730807 279.74802 77.99429 245.74504 77.90625 211.75C76.311484 192.57659 83.286508 172.72339 98.466797 160.38477C121.6759 145.61983 146.0615 132.66809 169.74219 118.63086C186.6093 109.89826 202.22577 96.16357 222.0625 96.001953zM 205.48242 181.63477L205.48242 330.35742L242.51562 330.35742L242.51562 181.63477L205.48242 181.63477zM 252.08398 214.00586L252.08398 330.35742L289.09766 330.35742L289.09766 214.00586L252.08398 214.00586zM 158.88867 274.70312L158.88867 330.35742L195.91406 330.35742L195.91406 274.70312L158.88867 274.70312z"/></svg>
