<svg xmlns="http://www.w3.org/2000/svg" viewBox="0 0 448 512" height="16" class="icon icon-orcid-square"><path d="M48 32C21.5 32 0 53.5 0 80L0 432C0 458.5 21.5 480 48 480L400 480C426.5 480 448 458.5 448 432L448 80C448 53.5 426.5 32 400 32L48 32zM 224 96C312.37321 96 384 167.63992 384 256C384 344.36009 312.37321 416 224 416C135.62679 416 64 344.36009 64 256C64 167.63992 135.62679 96 224 96zM 161.38672 154.25391C154.18656 154.25391 148.34766 160.10614 148.34766 167.2793C148.34766 174.50609 154.20004 180.32031 161.38672 180.32031C168.6 180.32031 174.42525 174.5192 174.43945 167.2793C174.43945 160.09263 168.6 154.25391 161.38672 154.25391zM 151.91992 194.16016L151.91992 326.6543L170.87891 326.6543L170.87891 194.16016L151.91992 194.16016zM 200.45312 194.16016L200.45312 326.45312L242.36133 326.45312C254.13446 326.45312 262.09473 326.13381 266.28125 325.48047C270.45462 324.80053 275.02745 323.47971 280.02734 321.5332C288.57391 318.30628 296.06779 313.55956 302.50781 307.21289C308.841 301.0795 313.70591 293.96058 317.11914 285.86719L317.12109 285.86719C320.52082 277.7873 322.25443 269.30595 322.24023 260.42578C322.24023 248.05256 319.1337 236.60085 312.93359 226.10742C306.73346 215.62745 298.39971 207.65376 287.90625 202.25391C277.39933 196.84058 263.16106 194.16016 245.12109 194.16016L200.45312 194.16016zM 219.45312 211.03906L243.13281 211.03906C252.25286 211.03906 258.84061 211.37352 262.94727 212.08008C267.06743 212.76004 271.41372 214.20099 276.01367 216.34766L276.01367 216.3457C280.5735 218.50584 284.65256 221.26623 288.19922 224.59961C297.81257 233.58659 302.61328 245.199 302.61328 259.42578C302.61328 273.90595 297.93278 285.87966 288.58594 295.37305C285.66599 298.29299 282.45385 300.73409 278.94727 302.7207C275.44072 304.7208 271.06578 306.34744 265.8125 307.64062C260.55922 308.93379 253.20114 309.58594 243.73438 309.58594L219.45312 309.58594L219.45312 211.03906z"/></svg>
