<svg xmlns="http://www.w3.org/2000/svg" viewBox="0 0 448 512" height="16" class="icon icon-osf-square"><path d="M48 32C21.5 32 0 53.5 0 80L0 432C0 458.5 21.5 480 48 480L400 480C426.5 480 448 458.5 448 432L448 80C448 53.5 426.5 32 400 32L48 32zM 224 96C246.16777 96 264.1366 113.97053 264.13867 136.13867C264.13867 149.2385 257.76918 160.75929 248.0625 168.08594C247.9411 154.88729 237.22635 144.21875 224 144.21875C210.77364 144.21875 200.0589 154.88729 199.9375 168.08594C190.22973 160.75929 183.86133 149.23742 183.86133 136.13867C183.86133 113.97053 201.83186 96 224 96zM 139.24414 131.10742C149.51633 131.10742 159.78895 135.02601 167.62695 142.86328C176.88846 152.12734 180.53216 164.77629 178.84961 176.82031C178.90283 176.87228 178.96633 176.90588 179.01953 176.95898C188.42469 186.36414 188.42469 201.61436 179.01953 211.01953C169.61437 220.42469 154.36219 220.42469 144.95703 211.01953C144.90528 210.96638 144.87046 210.90271 144.81836 210.84961C132.77435 212.53325 120.1259 208.89152 110.86328 199.62891C95.187293 183.95292 95.187293 158.53927 110.86328 142.86328C118.70074 135.02601 128.97195 131.10742 139.24414 131.10742zM 308.75586 131.10742C319.02823 131.10742 329.29945 135.02601 337.13672 142.86328C352.81114 158.53934 352.81177 183.95131 337.13867 199.62695C327.87605 208.88848 315.22564 212.53216 303.18164 210.84961C303.12826 210.90276 303.09607 210.96643 303.04297 211.01953C293.63779 220.42468 278.38562 220.42468 268.98047 211.01953C259.5753 201.61437 259.5753 186.36414 268.98047 176.95898C269.03362 176.90702 269.09924 176.87251 269.15234 176.82031C267.46868 164.77485 271.11044 152.1259 280.37305 142.86328C288.2105 135.02601 298.48349 131.10742 308.75586 131.10742zM 104.13867 215.86133C117.23741 215.86133 128.75927 222.2294 136.08594 231.9375C122.88728 232.05745 112.21875 242.77329 112.21875 256C112.21875 269.22638 122.88728 279.94108 136.08594 280.0625C128.75927 289.77027 117.23741 296.13867 104.13867 296.13867C81.970533 296.13867 64 278.16813 64 256C64 233.83186 81.970533 215.86133 104.13867 215.86133zM 343.86133 215.86133C366.02947 215.86133 384 233.83225 384 256C384 278.16779 366.02995 296.13667 343.86328 296.13867C330.76342 296.13867 319.24269 289.77111 311.91602 280.06445C325.11322 279.94303 335.78125 269.22636 335.78125 256C335.78125 242.77365 325.1127 232.05891 311.91406 231.9375C319.23926 222.22975 330.76258 215.86133 343.86133 215.86133zM 161.98828 293.92578C168.15229 293.92574 174.31695 296.27771 179.01953 300.98047C188.42469 310.386 188.42469 325.63389 179.01953 335.03906C178.96593 335.09242 178.90236 335.12693 178.84766 335.17773C180.5313 347.22321 176.88956 359.87215 167.62695 369.13477C151.95205 384.8093 126.53782 384.8093 110.86328 369.13477C95.187291 353.45987 95.187291 328.04562 110.86328 312.37109C120.12589 303.10701 132.77484 299.46588 144.82031 301.14844C144.87206 301.0967 144.90568 301.03357 144.95898 300.98047C149.66156 296.27789 155.82427 293.92583 161.98828 293.92578zM 286.01172 293.92578C292.17574 293.92578 298.33843 296.27789 303.04102 300.98047C303.09438 301.03221 303.12749 301.09534 303.17969 301.14844C315.22518 299.46588 327.87413 303.10849 337.13672 312.37109L337.13867 312.37109C352.81266 328.046 352.81271 353.46219 337.13672 369.13672C321.46182 384.81126 296.0476 384.81126 280.37305 369.13672C271.11154 359.87412 267.46783 347.22518 269.15039 335.17969C269.09724 335.12774 269.03387 335.09442 268.98047 335.04102C259.57532 325.6355 259.57532 310.38562 268.98047 300.98047C273.68305 296.27789 279.8477 293.92578 286.01172 293.92578zM 199.9375 343.91406C200.05855 357.11271 210.77364 367.78125 224 367.78125C237.22636 367.78125 247.94111 357.11415 248.0625 343.91406C257.77026 351.24071 264.13867 362.76258 264.13867 375.86133C264.13867 398.02946 246.16814 416 224 416C201.83187 416 183.86133 398.02946 183.86133 375.86133C183.86133 362.76147 190.22937 351.24071 199.9375 343.91406z"/></svg>
