<svg xmlns="http://www.w3.org/2000/svg" viewBox="0 0 512 512" height="16" class="icon icon-osf"><path d="m255.9997,7.9999987c-34.36057,0-62.21509,27.8545563-62.21509,62.2151643 0,20.303056 9.87066,38.160947 24.91769,49.517247 .18814,-20.457899 16.79601,-36.993393 37.29685,-36.993393 20.50082,0 37.11091,16.535494 37.29909,36.993393 15.04533,-11.3563 24.9177,-29.212506 24.9177,-49.517247C318.21272,35.854555 290.35915,7.9999987 255.99915,7.9999987ZM 293.29654,392.2676c-.18814,20.4601-16.79601,36.99338-37.29684,36.99338-20.50082,0-37.10922,-16.53551-37.29684,-36.99338-15.04759,11.35627-24.91769,29.21246-24.91769,49.51722 0,34.36059 27.85453,62.21518 62.2151,62.21518 34.36056,0 62.21508,-27.85459 62.21508,-62.21518 0,-20.30306-9.87066,-38.16095-24.91767,-49.51722zM 441.78489,193.78484c-20.30301,0-38.16309,9.87068-49.51717,24.91769 20.45786,.18819 36.99333,16.79605 36.99333,37.29689 0,20.50085-16.53547,37.11096-36.9911,37.29916 11.35634,15.04533 29.21249,24.91769 49.51721,24.91769C476.14549,318.21327 504,290.35948 504,255.99942 504,221.6394 476.14549,193.78425 441.78489,193.78425ZM 82.738898,255.99997c0,-20.50139 16.535509,-37.11096 36.993392,-37.29689-11.35632,-15.04756-29.214164,-24.91769-49.517197,-24.91769-34.36057,0-62.2150945,27.85455-62.2150945,62.21517 0,34.3606 27.8545245,62.21516 62.2150945,62.21516 20.303033,0 38.160877,-9.87068 49.517197,-24.91773-20.457883,-.18818-36.993391,-16.796-36.993391,-37.29688zM 431.3627,80.636814c-24.29549,-24.295544-63.68834,-24.295544-87.9844,0-14.35704,14.357057-20.00298,33.963346-17.39331,52.633806-.0824,.0809-.18198,.13437-.26434,.21491-14.578,14.57799-14.578,38.21689 0,52.79488 14.57797,14.57799 38.21681,14.57799 52.79484,0 .0824,-.0824 .13455,-.18198 .21732,-.26434 18.66819,2.60796 38.27445,-3.03799 52.63151,-17.39336 24.29378,-24.29778 24.29378,-63.68837-.003,-87.986153zM 186.2806,378.51178c14.57798,-14.57799 14.57798,-38.21461 0,-52.79319-14.57798,-14.57853-38.21683,-14.57798-52.79481,0-.0825,.0824-.13448,.18199-.21476,.26215-18.67046,-2.60795-38.276723,3.03572-52.63376,17.39505-24.297753,24.29552-24.297753,63.6884 0,87.98449 24.29551,24.29552 63.68833,24.29552 87.98439,0 14.35702,-14.35703 20.00297,-33.96333 17.39333,-52.63386 .0848,-.0786 .18364,-.13228 .26672,-.21505zm 0,-245.02583c-.0826,-.0824-.18198,-.13436-.26445,-.21494 2.60795,-18.66823-3.038,-38.27452-17.39332,-52.633811-24.29777,-24.295544-63.68832,-24.295544-87.984405,0-24.297747,24.297781-24.297747,63.688381 0,87.986151 14.357042,14.35706 33.963315,20.00301 52.631515,17.39336 .0808,.0824 .13447,.18199 .21475,.26434 14.57799,14.57799 38.21684,14.57799 52.79482,0 14.57797,-14.57802 14.57797,-38.21689 0,-52.79488zm 245.0821,209.89048c-14.35703,-14.35703-33.96329,-20.00301-52.63378,-17.39505-.0809,-.0824-.13228,-.18199-.21506,-.26215-14.57797,-14.57799-38.21685,-14.57799-52.79482,0-14.57797,14.57799-14.57797,38.21461 0,52.79316 .0827,.0828 .18198,.13455 .26434,.21505-2.60796,18.67053 3.03802,38.27683 17.39334,52.63386 24.29552,24.29552 63.68834,24.29552 87.98439,0 24.29775,-24.29552 24.29775,-63.68841 .003,-87.98451z"/></svg>
