<svg xmlns="http://www.w3.org/2000/svg" viewBox="0 0 448 512" height="16" class="icon icon-overleaf-square"><path d="M48 32C21.5 32 0 53.5 0 80L0 432C0 458.5 21.5 480 48 480L400 480C426.5 480 448 458.5 448 432L448 80C448 53.5 426.5 32 400 32L48 32zM 292.39062 96.001953C321.46078 96.09607 347.8514 100.47952 362.03125 106.00781C319.08481 140.59986 304.26134 217.90213 212.5332 182.49414C243.97599 158.89793 288.93583 137.22176 313.86133 124.03516C237.48907 142.96178 134.77158 192.28318 120.625 278.80469C116.59307 303.51288 121.73058 328.80799 141.69336 352.13477C155.17603 367.90411 175.23466 377.90234 197.61719 377.90234C238.23069 377.90234 271.15625 344.97676 271.15625 304.35156C271.15625 267.77691 244.44596 237.43441 209.47656 231.76367C185.72467 227.94758 158.93391 236.92122 141.75 257.5293C153.30728 231.46522 177.69618 205.30951 197.71875 192.58008C211.73588 191.39992 229.29168 196.92853 237.37305 200.00195C279.39019 216.00062 309.25391 256.70601 309.25391 304.36328C309.25391 366.01946 259.27932 416 197.61914 416C135.95382 416 85.96738 366.02056 85.96875 304.36328C85.96875 253.34455 116.23281 205.65261 161.93555 176.39258C162.10677 113.60362 232.86602 95.809237 292.39062 96.001953z"/></svg>
