<svg xmlns="http://www.w3.org/2000/svg" viewBox="0 0 512 512" height="16" class="icon icon-philpapers"><path d="M281.1554,248.03682A68.31745,68.310912 0 0 0 310.11679,231.813c19.80361,-17.99355 29.70388,-41.9537 29.70388,-71.87698A117.70966,117.69839 0 0 0 331.16872,114.28938 84.382038,84.373965 0 0 0 306.45893,80.4671 78.394491,78.386985 0 0 0 272.89418,63.999997H205.16914V252.41796h29.70392c20.03854,.0128 35.46585,-1.44813 46.28279,-4.3807zM 349.49475,64.019238a104.474,104.464 0 0 1 20.68219,12.529589c28.71464,21.830411 43.07125,50.943873 43.07125,87.340863 0,37.00339-14.56143,64.09299-43.68424,81.27056-15.16131,8.89745-33.55994,14.25597-55.19425,16.07509-6.8808,.60638-23.45971,.90869-49.73588,.90869h-59.40908v108.87378c0,20.61764 1.1634,35.93281 3.48982,45.9441a51.32811,51.323197 0 0 0 12.88432,24.70742 53.281079,53.275981 0 0 0 7.33363,6.3298H448V64.019238H349.4943ZM 128.73748,84.438265A49.650794,49.646039 0 0 0 108.72429,66.394868 55.334247,55.328956 0 0 0 102.98765,64.018815H64.000003V448h51.054657a53.251111,53.246016 0 0 0 7.33363,-6.32981 49.087893,49.083199 0 0 0 12.99502,-24.55993c2.22754,-9.90063 3.34109,-25.26388 3.34109,-46.09289V147.51624a269.16148,269.13573 0 0 0-2.28355,-40.1888 62.108937,62.102992 0 0 0-7.70292,-22.889594z"/></svg>
