<svg xmlns="http://www.w3.org/2000/svg" viewBox="0 0 448 512" height="16" class="icon icon-philpapers-square"><path d="M48 32C21.5 32 0 53.5 0 80L0 432C0 458.5 21.5 480 48 480L400 480C426.5 480 448 458.5 448 432L448 80C448 53.5 426.5 32 400 32L48 32zM 181.64062 96L238.07812 96A65.328742 65.322487 0 0 1 266.04883 109.72266A70.318365 70.311637 0 0 1 286.64062 137.9082A98.091383 98.081991 0 0 1 293.84961 175.94727C293.84961 200.88334 285.60067 220.84912 269.09766 235.84375A56.931208 56.92576 0 0 1 244.96289 249.36328L244.96289 249.36523C235.94877 251.80904 223.09331 253.02633 206.39453 253.01562L181.64062 253.01562L181.64062 96zM 64 96.015625L96.490234 96.015625A46.111872 46.107463 0 0 1 101.26953 97.996094A41.375662 41.371699 0 0 1 117.94727 113.03125L117.94922 113.03125A51.757447 51.752493 0 0 1 124.36719 132.10547A224.30123 224.27977 0 0 1 126.26953 165.59766L126.26953 351.84766C126.26953 369.20517 125.34262 382.00728 123.48633 390.25781A40.906577 40.902666 0 0 1 112.65625 410.72461A44.375926 44.37168 0 0 1 106.54492 416L64 416L64 96.015625zM 301.91211 96.015625L384 96.015625L384 416L201.44336 416A44.400899 44.396651 0 0 1 195.33203 410.72461A42.773425 42.769331 0 0 1 184.5957 390.13477C182.65702 381.79203 181.6875 369.02903 181.6875 351.84766L181.6875 261.11914L231.19531 261.11914C253.09212 261.11914 266.90663 260.8686 272.64062 260.36328C290.66921 258.84735 306.0023 254.38135 318.63672 246.9668C342.90573 232.65216 355.04102 210.07835 355.04102 179.24219C355.04102 148.91136 343.07535 124.64904 319.14648 106.45703A87.061666 87.053333 0 0 0 301.91211 96.015625z"/></svg>
