<svg xmlns="http://www.w3.org/2000/svg" viewBox="0 0 448 512" height="16" class="icon icon-piazza-square"><path d="M48 32C21.5 32 0 53.5 0 80L0 432C0 458.5 21.5 480 48 480L400 480C426.5 480 448 458.5 448 432L448 80C448 53.5 426.5 32 400 32L48 32zM 226.67578 96C232.27474 96.015941 237.53773 96.307249 241.30078 96.904297C264.66625 100.61103 284.81322 110.82352 301.36133 127.35156C330.60531 156.55689 340.62692 199.18214 327.49609 238.51562C322.23331 254.27803 314.54314 266.91825 302.875 278.98633C293.82713 288.34226 285.42792 294.64598 274.53711 300.25C263.80118 305.77528 254.35038 308.95219 242.78906 310.92969C230.40089 313.04828 212.27083 312.54736 200.36133 309.75391C186.19871 306.43366 171.42746 299.56652 159.90625 290.94922C152.12385 285.12792 152.87695 278.60842 152.87695 351.83398L152.87695 416L114.82617 416L114.82617 305.01367L114.82812 305.01367C114.82812 210.74837 114.99685 193.01642 115.93164 187.3125C123.13837 143.32841 156.54341 108.39221 201.2793 98.050781C207.08028 96.709123 217.34418 95.973431 226.67578 96zM 223.75977 136.62109C212.58747 136.66229 210.84516 136.85178 204.89844 138.67578C191.81316 142.68912 181.53187 149.12044 172.47852 158.95508C166.67326 165.26311 163.53709 170.16477 159.83984 178.7168C152.06255 196.70754 152.71473 218.74786 161.55078 236.39844C173.25464 259.77846 195.31048 273.94099 222.64258 275.625C223.46253 275.6757 227.15638 275.37364 230.84961 274.95508C239.8614 273.93243 245.16227 272.431 253.57031 268.51758C272.49295 259.70923 286.05201 243.38367 291.41211 222.95312C294.01997 213.01456 294.16886 199.38388 291.77539 189.64258C285.68062 164.83047 266.90637 145.44451 242.04102 138.29102C236.84933 136.79769 234.46904 136.58089 223.75977 136.62109z"/></svg>
