<svg xmlns="http://www.w3.org/2000/svg" viewBox="0 0 448 512" height="16" class="icon icon-preregistered-de-tc-square"><path d="M48 32C21.5 32 0 53.5 0 80L0 432C0 458.5 21.5 480 48 480L400 480C426.5 480 448 458.5 448 432L448 80C448 53.5 426.5 32 400 32L48 32zM 223.97852 96C233.33792 96 242.65324 98.051173 249.69531 102.14258L344.35938 156.7832C358.53177 164.96163 370.11914 185.00677 370.11914 201.3457L370.11914 310.64648C370.11914 326.98991 358.53177 347.0546 344.35938 355.22852L249.69531 409.87695C242.65324 413.95947 233.33792 416 223.97852 416C214.66352 416 205.3035 413.95947 198.26172 409.87695L103.59766 355.22852C89.469026 347.0546 77.880859 326.98991 77.880859 310.64648L77.880859 201.3457C77.880859 185.00677 89.469026 164.96163 103.59766 156.7832L198.26172 102.14258C205.30351 98.051173 214.66352 96 223.97852 96zM 285.75195 164.76953C275.90602 164.76953 267.96094 172.26788 267.96094 182.60352C267.96094 192.9435 275.90602 200.44141 285.75195 200.44141C292.94836 200.44141 299.0843 196.42075 301.91016 190.3457L293.61133 188.18359C292.19823 190.53682 289.01891 192.20508 285.75195 192.20508C280.40987 192.20508 276.52344 188.52848 276.52344 182.60352C276.52344 176.9655 280.10073 172.9043 285.75195 172.9043C288.4451 172.9043 291.40574 174.12758 292.95117 176.08789L301.33594 173.88281C298.28952 168.39487 292.50689 164.76953 285.75195 164.76953zM 238.35938 166.10352L238.35938 173.50391L248.2832 173.50391L248.2832 199.0918L256.14844 199.0918L256.14844 173.50391L266.20703 173.50391L266.20703 166.10352L238.35938 166.10352zM 154.10742 166.10938L154.10742 199.0918L168.48828 199.0918C177.91401 199.0918 185.55664 192.64485 185.55664 182.75C185.55664 172.85082 177.91401 166.10938 168.48828 166.10938L154.10742 166.10938zM 189.82812 166.11523L189.82812 199.10352L214.12109 199.10352L214.12109 191.70312L197.76758 191.70312L197.76758 185.85938L210.36914 185.85938L210.36914 178.92969L197.76758 178.92969L197.76758 173.50977L213.81641 173.50977L213.81641 166.11523L189.82812 166.11523zM 161.97266 173.50391L168.48828 173.50391C173.22272 173.50391 177.30664 177.09024 177.30664 182.75C177.30664 188.40115 173.22272 191.69727 168.48828 191.69727L161.97266 191.69727L161.97266 173.50391zM 287.93945 214.18555L287.93945 214.1875C285.20976 214.1875 282.46715 215.21994 280.36719 217.29102L206.05469 291.66602C201.85464 295.8038 195.09555 295.8038 190.98438 291.66602L173.07812 273.77734C168.96664 269.63072 162.15726 269.63072 158.00195 273.77734L146.51172 285.2793C143.24035 288.5462 142.35642 296.20012 146.51172 300.33789L190.98438 344.79688C195.09556 348.93464 201.85464 348.93464 206.05469 344.79688L306.98242 243.86328C311.09328 239.7211 311.09328 232.94541 306.98242 228.79883L295.44336 217.29102C293.38763 215.21997 290.66914 214.18555 287.93945 214.18555z"/></svg>
