<svg xmlns="http://www.w3.org/2000/svg" viewBox="0 0 448 512" height="16" class="icon icon-preregistered-de-plus-square"><path d="M48 32C21.5 32 0 53.5 0 80L0 432C0 458.5 21.5 480 48 480L400 480C426.5 480 448 458.5 448 432L448 80C448 53.5 426.5 32 400 32L48 32zM 223.97266 96C233.31663 96 242.65698 98.052488 249.70703 102.14258L344.37891 156.7832C358.53473 164.95776 370.12109 185.01189 370.12109 201.35547L370.12109 310.65039C370.12109 326.99959 358.53473 347.05955 344.37891 355.22852L249.70703 409.88281C242.65698 413.96731 233.31663 416 223.97266 416C214.68472 416 205.34302 413.96731 198.29297 409.88281L103.62109 355.22852C89.465289 347.05955 77.878906 326.99959 77.878906 310.65039L77.878906 201.35547C77.878906 185.01189 89.465289 164.95776 103.62109 156.7832L198.29297 102.14258C205.34302 98.052488 214.68472 96 223.97266 96zM 231.49609 164.76562L231.49609 200.66406L257.91016 200.66406L257.91016 192.61523L240.11914 192.61523L240.11914 186.25977L253.82031 186.25977L253.82031 178.71289L240.11914 178.71289L240.11914 172.81445L257.63477 172.81445L257.63477 164.76562L231.49609 164.76562zM 192.85938 164.77148L192.85938 200.66992L208.61523 200.66992C218.80405 200.66992 227.17578 193.64023 227.17578 182.87305C227.17578 172.10591 218.80405 164.77148 208.61523 164.77148L192.85938 164.77148zM 201.50781 172.82031L208.61523 172.82031C213.6821 172.82031 218.14258 176.71564 218.14258 182.87305C218.14258 189.02491 213.6821 192.61523 208.61523 192.61523L201.50781 192.61523L201.50781 172.82031zM 288.00781 214.16992C285.28398 214.16992 282.55754 215.20465 280.47266 217.27539L206.08984 291.65039C201.92071 295.79188 195.19454 295.79188 191.02539 291.65039L173.125 273.76367C169.01125 269.61666 162.2297 269.61666 158.06055 273.76367L146.55859 285.26562C143.33411 288.53432 142.44452 296.1886 146.55859 300.33008L191.02539 344.7832C195.19454 348.92471 201.92071 348.92471 206.08984 344.7832L307.04492 243.8418C311.15867 239.70031 311.15867 232.92436 307.04492 228.77734L295.53711 217.27539C293.45254 215.20464 290.73165 214.16992 288.00781 214.16992zM 293.12305 293.54492L293.12305 308.62305L278.37695 308.62305L278.37695 319.89844L293.23242 319.89844L293.23242 334.63867L305.25391 334.63867L305.25391 319.89844L320.00195 319.89844L320.00195 308.62305L305.19922 308.62305L305.19922 293.54492L293.12305 293.54492z"/></svg>
