<svg xmlns="http://www.w3.org/2000/svg" viewBox="0 0 512 512" height="16" class="icon icon-preregistered-tc"><path d="m255.9665,7.9999985c-14.42056,0-28.90564,3.1667345-39.89868,9.5105635L69.401682,102.20596C47.415089,114.88071 29.502973,145.96032 29.502973,171.29035V340.7096c0,25.33649 17.912116,56.42566 39.898709,69.09388L216.06782,494.51785C227.06086,500.84228 241.54594,504 255.9665,504c14.48556,0 28.90565,-3.15772 39.8992,-9.48215l146.7321,-84.71437c21.92209,-12.66822 39.89923,-43.75739 39.89923,-69.09388V171.29035c0,-25.33003-17.97714,-56.40964-39.89923,-69.08439L295.8657,17.510562C284.87215,11.166733 270.45206,7.9999985 255.9665,7.9999985ZM 281.95971,114.59627c11.44607,0 21.21594,6.11088 26.32449,15.36472l-14.16159,3.72278c-2.65101,-3.30453-7.57137,-5.37101-12.1629,-5.37101-9.57054,0-15.51617,6.85629-15.51617,16.36881 0,9.99105 6.52761,16.18884 15.51617,16.18884 5.56151,0 10.8694,-2.80888 13.26191,-6.773l14.02916,3.63752c-4.78551,10.24324-15.13352,17.02247-27.29107,17.02247-16.55458,0-29.94307,-12.64163-29.94307,-30.07583 0,-17.44718 13.38849,-30.0853 29.94307,-30.0853zm-82.77241,2.25452h47.01322v12.47552H229.25357V172.4934H215.93491V129.32631H199.1873Zm 155.94909,80.79264c4.23549,0 8.46956,1.60138 11.67059,4.81214l17.84616,17.82762c6.40203,6.42787 6.40203,16.92876 0,23.35018L228.22098,400.09398c-6.46654,6.41492-16.93867,6.41492-23.34073,0l-68.93284,-68.91391c-6.40206,-6.41499-5.04404,-18.27733 0,-23.34075L153.794,290.01171c6.40206,-6.42788 16.87419,-6.42788 23.34073,0l27.74552,27.72661c6.40206,6.41494 16.87419,6.41494 23.34073,0L343.45655,202.45557c3.20103,-3.21071 7.44432,-4.81214 11.67984,-4.81214z"/></svg>
