<svg xmlns="http://www.w3.org/2000/svg" viewBox="0 0 512 512" height="16" class="icon icon-preregistered"><path d="m255.96701,7.9999992c-14.42056,0-28.9134,3.1667198-39.84197,9.5105508L69.402174,102.20596c-21.954611,12.67476-39.899208,43.75438-39.899208,69.08441v169.41924c0,25.33653 17.944597,56.42568 39.899208,69.0939L216.12504,494.51788C227.05361,500.84232 241.54645,504 255.96701,504c14.48556,0 28.97013,-3.15768 39.89917,-9.48212l146.7224,-84.71437c21.92213,-12.66822 39.90845,-43.75737 39.90845,-69.0939V171.29037c0,-25.33003-17.98632,-56.40965-39.90845,-69.08441L295.86618,17.51055C284.93714,11.166719 270.45257,7.9999992 255.96701,7.9999992ZM 355.1558,152.37339c4.22726,0 8.45019,1.60138 11.65118,4.81215l17.84669,17.82761c6.402,6.42793 6.402,16.93826 0,23.3597L228.22149,354.82393c-6.46654,6.41499-16.93871,6.41499-23.34074,0l-68.94211,-68.91386c-6.40202,-6.41497-5.044,-18.2773 0,-23.34073l17.85586,-17.82761c6.40202,-6.42793 16.9387,-6.42793 23.34073,0l27.74552,27.72655c6.40203,6.415 16.8742,6.415 23.34074,0L343.45702,157.18554c3.23307,-3.21072 7.47102,-4.81215 11.69878,-4.81215z"/></svg>
