<svg xmlns="http://www.w3.org/2000/svg" viewBox="0 0 448 512" height="16" class="icon icon-preregistered-tc-square"><path d="M48 32C21.5 32 0 53.5 0 80L0 432C0 458.5 21.5 480 48 480L400 480C426.5 480 448 458.5 448 432L448 80C448 53.5 426.5 32 400 32L48 32zM 223.97852 96C233.32405 96 242.62809 98.043924 249.7207 102.13672L344.38477 156.77734C358.52806 164.9546 370.12695 185.00571 370.12695 201.34766L370.12695 310.65039C370.12695 326.99652 358.52806 347.05548 344.38477 355.22852L249.7207 409.88281C242.62809 413.96309 233.32405 416 223.97852 416C214.67494 416 205.32862 413.96309 198.23633 409.88281L103.61328 355.22852C89.42838 347.05548 77.873047 326.99652 77.873047 310.65039L77.873047 201.34766C77.873047 185.00571 89.428381 164.9546 103.61328 156.77734L198.23633 102.13672C205.32862 98.043924 214.67494 96 223.97852 96zM 240.74805 164.77148C230.06767 164.77148 221.42969 172.92539 221.42969 184.18164C221.42969 195.42951 230.06767 203.58594 240.74805 203.58594C248.59163 203.58594 255.26804 199.21206 258.35547 192.60352L249.30469 190.25586C247.76113 192.81336 244.33612 194.62695 240.74805 194.62695C234.94898 194.62695 230.73828 190.62748 230.73828 184.18164C230.73828 178.04453 234.5735 173.62109 240.74805 173.62109C243.71032 173.62109 246.88537 174.95399 248.5957 177.08594L257.73242 174.68359C254.43658 168.71337 248.13261 164.77148 240.74805 164.77148zM 187.3457 166.22656L187.3457 174.27539L198.15234 174.27539L198.15234 202.125L206.74414 202.125L206.74414 174.27539L217.67773 174.27539L217.67773 166.22656L187.3457 166.22656zM 287.95898 218.35156C285.22638 218.35156 282.48901 219.38365 280.42383 221.45508L206.07812 295.83203C201.90617 299.97071 195.14989 299.97071 191.01953 295.83203L173.11914 277.94336C168.94718 273.79634 162.19091 273.79634 158.06055 277.94336L146.54688 289.44531C143.29266 292.71204 142.41652 300.36521 146.54688 304.50391L191.01953 348.96289C195.14989 353.10155 201.90616 353.10155 206.07812 348.96289L307.00195 248.02148C311.13229 243.87863 311.13229 237.10404 307.00195 232.95703L295.48828 221.45508C293.4231 219.38362 290.69155 218.35156 287.95898 218.35156z"/></svg>
