<svg xmlns="http://www.w3.org/2000/svg" viewBox="0 0 512 512" height="16" class="icon icon-preregistered-de-plus"><path d="m255.95755,7.9999986c-14.3963,0-28.87703,3.1804094-39.8046,9.5200574L69.411643,102.21547C47.47014,114.88604 29.512457,145.96731 29.512457,171.29986V340.7096c0,25.34125 17.957683,56.43197 39.899186,69.09388l146.741307,84.71437c10.92757,6.33097 25.4083,9.48215 39.8046,9.48215 14.48315,0 28.96194,-3.15118 39.88951,-9.48215l146.74125,-84.71437c21.94152,-12.66191 39.89923,-43.75263 39.89923,-69.09388V171.29986c0,-25.33255-17.95771,-56.41382-39.89923,-69.08439L295.84706,17.520056C284.91949,11.180408 270.4407,7.9999986 255.95755,7.9999986ZM 267.61847,114.58681h40.51466v12.47551h-27.14897v9.14119h21.23776v11.69878h-21.23776v9.85161h27.57531v12.47552h-40.941zm-59.88663,.009h24.42083c15.79266,0 28.7684,11.36909 28.7684,28.05816 0,16.68912-12.97574,27.58448-28.7684,27.58448h-24.42083zm 13.40401,12.47557v30.68206h11.01682c7.85365,0 14.76784,-5.56409 14.76784,-15.09947 0,-9.54399-6.91419,-15.58259-14.76784,-15.58259zm 134.07644,64.09226c4.22195,0 8.43953,1.60248 11.67062,4.81214l17.83691,17.82762c6.37632,6.42788 6.37632,16.93087 0,23.35018L228.24016,393.6147c-6.46216,6.41934-16.88777,6.41934-23.34994,0l-68.92367,-68.90422c-6.37681,-6.4193-4.99795,-18.28376 0,-23.35024l17.8277,-17.82763c6.46218,-6.42787 16.97412,-6.42787 23.35044,0l27.74553,27.7266c6.46217,6.4193 16.88778,6.4193 23.34994,0L343.53248,195.97648c3.23157,-3.20965 7.45787,-4.81214 11.67981,-4.81214zm 7.92883,123.03143h18.71767v23.36914h22.94302v17.47712h-22.85768v22.84817h-18.63278v-22.84817h-23.0279v-17.47712h22.85767z"/></svg>
