<svg xmlns="http://www.w3.org/2000/svg" viewBox="0 0 512 512" height="16" class="icon icon-preregistered-de-tc-plus"><path d="m256.05212,8.0000007c-14.46274,0-29.02351,3.1640943-39.87057,9.5106013L69.458711,102.20598C47.478884,114.87997 29.49356,145.96134 29.49356,171.29037v169.40972c0,25.33854 17.985324,56.42939 39.965151,69.10335L216.18155,494.50832C227.02861,500.83578 241.58938,504 256.05212,504c14.36769,0 28.92845,-3.16422 39.8706,-9.49168l146.72282,-84.70488c21.88429,-12.67396 39.8609,-43.76481 39.8609,-69.10335V171.29037c0,-25.32903-17.97661,-56.4104-39.8609,-69.08439L295.92272,17.510602C284.98057,11.164095 270.41981,8.0000007 256.05212,8.0000007ZM 339.33621,114.57733c10.10357,0 18.69443,5.41656 23.22675,13.60282l-12.46603,3.29646c-2.36095,-2.92699-6.79485,-4.74581-10.76072,-4.74581-8.49723,0-13.69743,6.07087-13.69743,14.47427 0,8.85661 5.76666,14.34166 13.69743,14.34166 4.91014,0 9.63023,-2.4932 11.70793,-5.99618l12.4568,3.2207c-4.2486,9.0643-13.4006,15.06161-24.16473,15.06161-14.72951,0-26.53301,-11.19007-26.53301,-26.62779 0,-15.43771 11.8035,-26.62774 26.53301,-26.62774zm-72.75034,.53049h41.57535v11.03568h-14.95696v38.21289H281.35372V126.1435h-14.76785zm-114.35427,.0953h21.6733c14.19892,0 25.69007,10.13645 25.69007,25.01744 0,14.89025-11.49115,24.60056-25.69007,24.60056h-21.6733zm 53.80468,.38843h35.87318v11.0357h-23.97559v8.08969h18.72786v10.34418h-18.72786v8.73387h24.3544v11.03567h-36.25199zm-41.93571,10.73256v27.36664h9.80433c7.09896,0 13.27111,-4.96944 13.27111,-13.47016 0,-8.51014-6.17215,-13.89648-13.27111,-13.89648zm 191.09276,64.85012c4.22099,0 8.44536,1.60083 11.70848,4.81211l17.7894,17.82764c6.43207,6.43211 6.43207,16.92755 0,23.3502L228.24018,393.62472c-6.43213,6.41318-16.93677,6.41318-23.36888,0l-68.95178,-68.90511c-6.33752,-6.42264-5.01297,-18.28963 0,-23.35019l17.87476,-17.82761c6.43209,-6.43206 16.93675,-6.43206 23.36934,0l27.70768,27.7266c6.43211,6.41313 16.93675,6.41313 23.36888,0L343.54216,195.98563c3.21604,-3.2113 7.43022,-4.81211 11.65117,-4.81211zm 6.3846,123.02191h18.55717v23.3597h22.99978v17.48663h-22.81016v22.83865H361.6725V355.04174H338.76778V337.5551h22.81015z"/></svg>
