<svg xmlns="http://www.w3.org/2000/svg" viewBox="0 0 448 512" height="16" class="icon icon-preregistered-tc-plus-square"><path d="M48 32C21.5 32 0 53.5 0 80L0 432C0 458.5 21.5 480 48 480L400 480C426.5 480 448 458.5 448 432L448 80C448 53.5 426.5 32 400 32L48 32zM 223.95117 96C233.3375 96 242.61982 98.044026 249.69727 102.13477L344.36133 156.77734C358.51593 164.95384 370.11523 185.01051 370.11523 201.35352L370.11523 310.64648C370.11523 326.98951 358.51593 347.04615 344.36133 355.22266L249.69727 409.87695C242.61982 413.95764 233.3375 416 223.95117 416C214.66559 416 205.32355 413.95764 198.24609 409.87695L103.58203 355.22266C89.427438 347.04615 77.884766 326.98951 77.884766 310.64648L77.884766 201.35352C77.884766 185.01051 89.427438 164.95384 103.58203 156.77734L198.24609 102.13477C205.32355 98.044026 214.61553 96 223.95117 96zM 239.85352 164.76953C229.21122 164.76953 220.64453 172.84757 220.64453 183.99023C220.64453 195.12795 229.21122 203.20508 239.85352 203.20508C247.52613 203.20508 254.15766 198.87514 257.22656 192.32617L248.26758 190.00391C246.73311 192.53838 243.31887 194.33008 239.85352 194.33008C234.06208 194.33008 229.9043 190.37089 229.9043 183.99023C229.9043 177.91152 233.71571 173.52734 239.85352 173.52734C242.72469 173.52734 245.88816 174.85414 247.52148 176.96289L256.58594 174.5918C253.31866 168.67645 247.08118 164.76953 239.85352 164.76953zM 186.9707 165.14258L186.9707 173.11914L197.66016 173.11914L197.66016 200.6875L206.18555 200.6875L206.18555 173.11914L216.97266 173.11914L216.97266 165.14258L186.9707 165.14258zM 287.97852 214.16797C285.25003 214.16797 282.52497 215.20293 280.45703 217.27344L206.05664 291.64648C201.92074 295.78749 195.19645 295.78749 191.06055 291.64648L173.11719 273.75977C168.981 269.61379 162.20848 269.61379 158.07227 273.75977L146.55664 285.26172C143.31782 288.5307 142.42106 296.18516 146.55664 300.32617L191.06055 344.7793C195.19645 348.92035 201.92074 348.92035 206.05664 344.7793L307.01562 243.83789C311.15149 239.69688 311.1515 232.92445 307.01562 228.77344L295.50781 217.27344C293.43986 215.20296 290.70667 214.16797 287.97852 214.16797zM 294.44531 293.55469L294.44531 308.63086L279.67383 308.63086L279.67383 319.90625L294.54297 319.90625L294.54297 334.64062L306.57031 334.64062L306.57031 319.90625L321.28516 319.90625L321.28516 308.63086L306.4668 308.63086L306.4668 293.55469L294.44531 293.55469z"/></svg>
