<svg xmlns="http://www.w3.org/2000/svg" viewBox="0 0 512 512" height="16" class="icon icon-preregistered-de"><path d="m256.03344,7.9999992c-14.48552,0-28.97071,3.1667198-39.89917,9.5105468L69.402126,102.20596c-21.922152,12.67476-39.89916,43.75438-39.89916,69.08441v169.41924c0,25.33653 17.977008,56.42568 39.89916,69.0939L216.13427,494.51788C227.06273,500.84232 241.54792,504 256.03344,504c14.42049,0 28.90363,-3.15768 39.83263,-9.48212l146.73215,-84.71437c21.92216,-12.66822 39.89881,-43.75737 39.89881,-69.0939V171.29037c0,-25.33003-17.97665,-56.40965-39.89881,-69.08441L295.86607,17.510546C284.93707,11.166719 270.45393,7.9999992 256.03344,7.9999992ZM 208.88774,114.59626h24.31617c15.90802,0 28.77805,11.36759 28.77805,28.05816 0,16.69053-12.87003,27.575-28.77805,27.575h-24.31617zm 59.23284,0h40.4196v12.46606h-27.09163v9.15064h21.20963v11.68933h-21.20963v9.85161h27.54659v12.47552h-40.87456zm-45.84823,12.46606v30.69158h10.93156c7.95392,0 14.87195,-5.56757 14.87195,-15.09948 0,-9.54484-6.91803,-15.5921-14.87195,-15.5921zm 132.90228,70.58113c4.22725,0 8.46516,1.60138 11.6987,4.81215l17.84671,17.82761c6.40203,6.42787 6.40203,16.92878 0,23.35017L228.22142,400.09402c-6.40203,6.41491-16.93875,6.41491-23.34077,0l-68.93278,-68.91391c-6.40202,-6.41499-5.04407,-18.27732 0,-23.34077l17.84648,-17.82762c6.46659,-6.42788 16.93875,-6.42788 23.34081,0l27.74549,27.72663c6.40202,6.41491 16.93874,6.41491 23.34077,0L343.52305,202.4556c3.20092,-3.21072 7.42377,-4.81215 11.65158,-4.81215z"/></svg>
