<svg xmlns="http://www.w3.org/2000/svg" viewBox="0 0 448 512" height="16" class="icon icon-preregistered-de-tc-plus-square"><path d="M48 32C21.5 32 0 53.5 0 80L0 432C0 458.5 21.5 480 48 480L400 480C426.5 480 448 458.5 448 432L448 80C448 53.5 426.5 32 400 32L48 32zM 224.0332 96C233.30268 96 242.6964 98.0422 249.75586 102.13672L344.41602 156.77734C358.53492 164.95411 370.13281 185.00635 370.13281 201.34766L370.13281 310.64453C370.13281 326.99197 358.53492 347.05177 344.41602 355.22852L249.75586 409.87695C242.6964 413.95918 233.30268 416 224.0332 416C214.7024 416 205.30865 413.95918 198.31055 409.87695L103.65039 355.22852C89.469866 347.05177 77.867188 326.99197 77.867188 310.64453L77.867188 201.34766C77.867188 185.00635 89.469866 164.95411 103.65039 156.77734L198.31055 102.13672C205.30865 98.0422 214.7024 96 224.0332 96zM 277.76562 164.75977C268.26271 164.75977 260.64648 171.97963 260.64648 181.93945C260.64648 191.89926 268.26272 199.11719 277.76562 199.11719C284.71023 199.11719 290.61444 195.24832 293.35547 189.40039L285.31836 187.32227C283.97791 189.58225 280.93345 191.19141 277.76562 191.19141C272.649 191.19141 268.92773 187.65339 268.92773 181.93945C268.92773 176.5179 272.28353 172.59961 277.76562 172.59961C280.32425 172.59961 283.18384 173.77373 284.70703 175.66211L292.75 173.53516C289.82593 168.2537 284.28406 164.75977 277.76562 164.75977zM 230.83008 165.10156L230.83008 172.2207L240.35742 172.2207L240.35742 196.875L248.00195 196.875L248.00195 172.2207L257.65234 172.2207L257.65234 165.10156L230.83008 165.10156zM 157.05273 165.16406L157.05273 197.17578L171.03516 197.17578C180.19575 197.17578 187.60938 190.90935 187.60938 181.30273C187.60938 171.70209 180.19575 165.16406 171.03516 165.16406L157.05273 165.16406zM 191.76562 165.41406L191.76562 197.18164L215.1543 197.18164L215.1543 190.06055L199.44141 190.06055L199.44141 184.42578L211.52344 184.42578L211.52344 177.75195L199.44141 177.75195L199.44141 172.5332L214.91016 172.5332L214.91016 165.41406L191.76562 165.41406zM 164.71094 172.33789L171.03516 172.33789C175.61514 172.33789 179.59766 175.81231 179.59766 181.30273C179.59766 186.78706 175.61514 189.99414 171.03516 189.99414L164.71094 189.99414L164.71094 172.33789zM 287.99609 214.17578C285.2729 214.17578 282.55339 215.20945 280.47852 217.28125L206.08984 291.65625C201.94008 295.79375 195.16342 295.79375 191.01367 291.65625L173.13867 273.76953C168.98861 269.61981 162.21028 269.61981 158.06055 273.76953L146.5293 285.27148C143.29513 288.53636 142.44058 296.1923 146.5293 300.33594L191.01367 344.79102C195.16342 348.92856 201.94008 348.92856 206.08984 344.79102L307.02734 243.84766C311.17707 239.70401 311.17707 232.93295 307.02734 228.7832L295.54883 217.28125C293.44359 215.20946 290.71931 214.17773 287.99609 214.17773L287.99609 214.17578zM 292.11523 293.54688L292.11523 308.61523L277.39844 308.61523L277.39844 319.89844L292.17578 319.89844L292.17578 334.63281L304.20898 334.63281L304.20898 319.89844L318.92578 319.89844L318.92578 308.61719L304.08789 308.61719L304.08789 293.54688L292.11523 293.54688z"/></svg>
