<svg xmlns="http://www.w3.org/2000/svg" viewBox="0 0 448 512" height="16" class="icon icon-preregistered-square"><path d="M48 32C21.5 32 0 53.5 0 80L0 432C0 458.5 21.5 480 48 480L400 480C426.5 480 448 458.5 448 432L448 80C448 53.5 426.5 32 400 32L48 32zM 223.97852 96C233.32404 96 242.66971 98.043925 249.7207 102.13672L344.37891 156.77734C358.52222 164.9546 370.12695 185.0057 370.12695 201.34766L370.12695 310.65039C370.12695 326.99654 358.52222 347.05548 344.37891 355.22852L249.7207 409.88281C242.66971 413.9631 233.32404 416 223.97852 416C214.67493 416 205.32413 413.9631 198.27344 409.88281L103.61523 355.22852C89.450966 347.05548 77.873047 326.99654 77.873047 310.65039L77.873047 201.34766C77.873047 185.0057 89.450966 164.9546 103.61523 156.77734L198.27344 102.13672C205.32413 98.043925 214.67493 96 223.97852 96zM 287.9707 189.14453C285.24311 189.14453 282.50968 190.17661 280.42383 192.24805L206.07812 266.625C201.90616 270.76371 195.14987 270.76371 191.01953 266.625L173.11914 248.73633C168.9888 244.58928 162.19088 244.58928 158.06055 248.73633L146.54102 260.23828C143.28682 263.50501 142.41068 271.15819 146.54102 275.29688L191.01953 319.75781C195.14987 323.89652 201.90616 323.89652 206.07812 319.75781L307.00195 218.82031C311.13227 214.67745 311.13227 207.89705 307.00195 203.75L295.48828 192.24805C293.42312 190.17658 290.69796 189.14453 287.9707 189.14453z"/></svg>
