<svg xmlns="http://www.w3.org/2000/svg" viewBox="0 0 448 512" height="16" class="icon icon-preregistered-de-square"><path d="M48 32C21.5 32 0 53.5 0 80L0 432C0 458.5 21.5 480 48 480L400 480C426.5 480 448 458.5 448 432L448 80C448 53.5 426.5 32 400 32L48 32zM 224.02148 96C233.32502 96 242.66973 98.043924 249.7207 102.13672L344.38672 156.77734C358.53005 164.9546 370.12695 185.0057 370.12695 201.34766L370.12695 310.65039C370.12695 326.99654 358.53005 347.05548 344.38672 355.22852L249.7207 409.88281C242.66973 413.9631 233.32502 416 224.02148 416C214.67598 416 205.32991 413.9631 198.2793 409.88281L103.61523 355.22852C89.471907 347.05548 77.873047 326.99654 77.873047 310.65039L77.873047 201.34766C77.873047 185.0057 89.471907 164.9546 103.61523 156.77734L198.2793 102.13672C205.32991 98.043924 214.67598 96 224.02148 96zM 193.60547 164.77148L193.60547 200.66406L209.29297 200.66406C219.55621 200.66406 227.85938 193.64113 227.85938 182.87305C227.85937 172.10494 219.55621 164.77148 209.29297 164.77148L193.60547 164.77148zM 231.82031 164.77148L231.82031 200.66406L258.18945 200.66406L258.18945 192.61523L240.41797 192.61523L240.41797 186.25977L254.10156 186.25977L254.10156 178.71875L240.41797 178.71875L240.41797 172.81445L257.89648 172.81445L257.89648 164.77148L231.82031 164.77148zM 202.24023 172.81445L209.29297 172.81445C214.42453 172.81445 218.88672 176.71509 218.88672 182.87305C218.88672 189.02267 214.42453 192.61523 209.29297 192.61523L202.24023 192.61523L202.24023 172.81445zM 287.98438 218.35156C285.25676 218.35156 282.53191 219.38364 280.4668 221.45508L206.07812 295.83203C201.94777 299.97069 195.14987 299.97069 191.01953 295.83203L173.11914 277.94336C168.98878 273.79634 162.23254 273.79634 158.06055 277.94336L146.54688 289.44531C143.29263 292.71205 142.41655 300.3652 146.54688 304.50391L191.01953 348.96484C195.14987 353.1035 201.94778 353.1035 206.07812 348.96484L307.04492 248.02148C311.17526 243.87864 311.17526 237.10404 307.04492 232.95703L295.53125 221.45508C293.44509 219.38361 290.71164 218.35156 287.98438 218.35156z"/></svg>
