<svg xmlns="http://www.w3.org/2000/svg" viewBox="0 0 512 512" height="16" class="icon icon-preregistered-de-tc"><path d="m255.96675,7.9999983c-14.43825,0-28.94537,3.1782047-39.86013,9.5198787L69.377366,102.21364C47.47799,114.8902 29.51676,145.9619 29.51676,171.28725v169.41598c0,25.33232 17.96123,56.43248 39.860606,69.10206L216.10662,494.50851C227.02138,500.83642 241.5285,504 255.96675,504c14.50708,0 28.94533,-3.16358 39.86053,-9.49149l146.7293,-84.70322c21.96721,-12.66958 39.92666,-43.76974 39.92666,-69.10206V171.28725c0,-25.32535-17.95945,-56.39705-39.92666,-69.07361L295.82728,17.519877C284.91208,11.178203 270.47383,7.9999983 255.96675,7.9999983ZM 351.71497,114.59426c10.47015,0 19.43319,5.61723 24.15514,14.12353l-12.99631,3.41958c-2.39541,-3.03847-6.98445,-4.9352-11.15883,-4.9352-8.75939,0-14.30344,6.29396-14.30344,15.03289 0,9.1837 6.02322,14.88133 14.30344,14.88133 5.06378,0 9.99138,-2.58544 12.18168,-6.23294l12.86395,3.3533c-4.38008,9.41633-13.8912,15.64859-25.04563,15.64859-15.26119,0-27.57428,-11.6233-27.57428,-27.65028 0,-16.02024 12.31309,-27.6408 27.57428,-27.6408zm-73.45942,2.065h43.16635v11.4712h-15.59152v39.66145H293.639v-39.66145h-15.38345zm-130.58821,.009h22.28884c14.60989,0 26.45681,10.44994 26.45681,25.79368 0,15.33702-11.84692,25.32952-26.45681,25.32952h-22.28884zm 55.36729,.009h37.17953v11.46175h-24.87479v8.40211h19.53213v10.74182h-19.53213v9.05575h25.34814v11.47119h-37.65288zm-43.17602,11.45224v28.19973h10.09757c7.33839,0 13.66902,-5.10853 13.66902,-13.86781 0,-8.77263-6.33063,-14.33192-13.66902,-14.33192zm 195.24749,63.05858c4.23102,0 8.44612,1.6019 11.63251,4.81202l17.88408,17.83676c6.37183,6.42719 6.37183,16.92938 0,23.34976l-156.43877,156.4491c-6.51008,6.41355-16.98686,6.41355-23.35919,0l-68.93156,-68.91253c-6.44072,-6.41355-5.07062,-18.27658 0,-23.34028l17.80844,-17.82727c6.44073,-6.42727 16.9956,-6.42727 23.36841,0l27.75471,27.72605c6.37233,6.41356 16.84911,6.41356 23.35919,0l115.18576,-115.2802c3.25493,-3.21018 7.5054,-4.81202 11.73642,-4.81202z"/></svg>
