<svg xmlns="http://www.w3.org/2000/svg" viewBox="0 0 448 512" height="16" class="icon icon-psyarxiv-square"><path d="M48 32C21.5 32 0 53.5 0 80L0 432C0 458.5 21.5 480 48 480L400 480C426.5 480 448 458.5 448 432L448 80C448 53.5 426.5 32 400 32L48 32zM 56.927734 96L218.95898 96L218.95898 250.81055L56.927734 250.81055L56.927734 96zM 97.097656 138.27539C97.097656 148.95714 96.949051 158.8889 97.400391 168.66797C97.550841 179.04883 101.76211 187.47279 111.08984 192.28711C117.10773 195.29605 122.07266 196.79883 131.40039 196.79883L131.40039 216.81055L142.83398 216.81055L142.83398 196.79883C147.6483 196.79883 152.01209 196.79934 156.22461 195.44531C167.6586 191.83458 175.33158 184.46168 176.53516 172.125C177.43783 162.94773 177.13666 153.62069 177.28711 144.29297L177.28711 138.57812L167.95898 138.87695C166.7554 138.87695 165.85352 139.7808 165.85352 140.98438L165.70312 145.94727L165.55078 168.36523C165.24989 181.00279 155.923 189.27774 142.5332 188.22461L142.5332 138.57812L130.94727 138.57812L130.94727 188.22461C128.84101 188.22461 127.18617 188.22277 125.53125 187.92188C115.1504 186.26696 109.73672 180.85358 108.68359 170.32227C107.93135 163.4017 108.08209 156.47916 107.93164 149.55859L107.93164 139.48047C107.93164 139.17957 107.77942 139.02734 107.47852 139.02734L97.097656 138.27539zM 56.927734 260.58984L218.95898 260.58984L218.95898 416L56.927734 415.84961L56.927734 260.58984zM 229.04102 260.58984L391.07227 260.58984L391.07227 416L229.04102 415.84961L229.04102 260.58984zM 290.30078 297.73047C288.35365 297.79466 286.43482 298.33472 284.70703 299.4043L284.70703 305.57422C288.91955 305.87511 292.68097 306.62726 294.48633 310.99023L304.56445 335.66406L286.50977 376.73438L296.5918 376.73438L309.83008 346.04297L311.63672 350.40625C314.64566 357.47726 317.35417 364.69862 320.81445 371.46875A11.734881 11.734881 0 0 0 337.36328 376.58398C337.36328 374.7786 337.36144 372.67089 337.06055 370.11328C332.99848 369.96284 329.84047 368.75929 328.18555 364.84766L317.35156 338.2207L334.6543 298.80469C326.07881 297.30022 325.02456 297.7512 322.01562 304.97266L312.38867 327.83789L310.73242 324.07812C308.32527 318.06023 306.07133 312.19361 303.36328 306.32617C300.98434 301.05111 296.04255 297.9098 291.13477 297.73242C290.85591 297.72235 290.57894 297.7213 290.30078 297.73047zM 137.87109 301.8125L98.753906 378.99023L108.83203 378.99023C108.83203 378.99023 111.39011 375.98155 112.74414 373.12305L119.81641 358.83008L153.06445 358.83008L158.48047 379.44336L169.3125 379.44336L148.85156 301.8125L137.87109 301.8125zM 142.08203 313.39648L150.95898 350.10547L124.02734 350.10547L142.08203 313.39648z"/></svg>
