<svg xmlns="http://www.w3.org/2000/svg" viewBox="0 0 448 512" height="16" class="icon icon-pubmed-square"><path d="M48 32C21.5 32 0 53.5 0 80L0 432C0 458.5 21.5 480 48 480L400 480C426.5 480 448 458.5 448 432L448 80C448 53.5 426.5 32 400 32L48 32zM 117.56445 96C117.56445 96 166.6561 107.12539 164.16016 190.78125C164.16016 190.78125 205.6305 73.609757 368.72656 192.42969C368.72656 235.21757 368.41211 364.67215 368.41211 416C191.51478 266.12011 161.02734 393.93164 161.02734 393.93164C161.02734 314.07584 79.273438 323.5918 79.273438 323.5918L79.273438 110.94141C79.273438 110.94141 98.028613 112.34351 117.56445 122.05273L117.56445 96zM 203.71094 194.2832L179.70898 335.63281L216.27148 335.63281L228.08594 254.25391L228.45898 254.25391L260.90625 335.63281L275.53906 335.63281L309.47852 254.25391L309.85156 254.25391L320.16602 335.63281L356.94922 335.63281L335.54688 194.2832L298.98438 194.2832L268.5957 269.82422L239.90039 194.2832L203.71094 194.2832z"/></svg>
