<svg xmlns="http://www.w3.org/2000/svg" viewBox="0 0 384 512" height="16" class="icon icon-pubmed"><path d="M120.19265,177.73779C123.18778,77.35076 64.277527,63.999998 64.277527,63.999998v31.26245C40.834519,83.611374 18.32863,81.929634 18.32863,81.929634V337.10903c0,0 98.10414,-11.41744 98.10414,84.40952 0,0 36.58424,-153.37442 248.86103,26.48145 0,-61.59342 .37757,-216.93925 .37757,-268.28471C169.9561,37.131382 120.1931,177.73779 120.1931,177.73779Zm 187.20631,173.82056-12.37599,-97.65441h-.448l-40.72819,97.65441h-17.55994l-38.9362,-97.65441h-.448l-14.17589,97.65441h-43.87514l28.8015,-169.61925h43.42716l34.43518,90.6496 36.46566,-90.6496h43.87513l25.6817,169.61925h-44.13938z"/></svg>
