<svg xmlns="http://www.w3.org/2000/svg" viewBox="0 0 448 512" height="16" class="icon icon-pubpeer-square"><path d="M48 32C21.5 32 0 53.5 0 80L0 432C0 458.5 21.5 480 48 480L400 480C426.5 480 448 458.5 448 432L448 80C448 53.5 426.5 32 400 32L48 32zM 305.17773 96C319.41736 96 331.0293 107.61194 331.0293 121.85156C331.0293 134.9623 321.17718 145.82683 308.50195 147.4707L308.50195 246.04883C321.17718 247.69212 331.0293 258.55333 331.0293 271.66406C331.0293 285.90369 319.41736 297.51953 305.17773 297.51953C292.06699 297.51953 281.20246 287.6641 279.55859 274.98828L215.57422 274.98828L158.35742 369.54102C164.60773 374.2674 168.67578 381.73909 168.67578 390.14844C168.67578 404.38686 157.06069 416 142.82227 416C128.58387 416 116.97068 404.38686 116.9707 390.14844C116.9707 377.03881 126.82363 366.17667 139.49805 364.5332L139.49805 196.21094C127.50077 193.97947 118.35938 183.43512 118.35938 170.80859C118.35938 156.56896 129.97717 144.95703 144.2168 144.95703C154.79901 144.95703 163.91558 151.3768 167.9082 160.51562L279.68359 125.97266C279.46584 124.62674 279.32031 123.25725 279.32031 121.85156C279.32031 107.61194 290.93808 96 305.17773 96zM 305.17773 102.64844C294.531 102.64844 285.96875 111.20483 285.96875 121.85156C285.96875 132.4983 294.53098 141.06055 305.17773 141.06055C315.82447 141.06055 324.38086 132.4983 324.38086 121.85156C324.38086 111.20483 315.82447 102.64844 305.17773 102.64844zM 281.57617 132.34375L169.74023 166.9043C169.93574 168.18154 170.06836 169.47815 170.06836 170.80859C170.06836 184.39642 159.48688 195.56761 146.14648 196.56445L146.14648 364.5332C148.39451 364.8247 150.557 365.39667 152.58789 366.23047L288.52734 141.58789C285.56511 139.08358 283.17857 135.92657 281.57617 132.34375zM 294.11914 145.18164L219.5957 268.33984L279.55859 268.33984C281.06092 256.75603 290.2692 247.55063 301.85352 246.04883L301.85352 147.4707C299.11743 147.11587 296.52111 146.32721 294.11914 145.18164zM 144.2168 151.60352C133.57005 151.60352 125.00781 160.16183 125.00781 170.80859C125.00781 181.45533 133.57005 190.01758 144.2168 190.01758C154.86354 190.01758 163.41992 181.45534 163.41992 170.80859C163.41992 160.16183 154.86354 151.60352 144.2168 151.60352zM 305.17773 252.45898C294.53098 252.45898 285.96875 261.01731 285.96875 271.66406C285.96875 282.31079 294.53098 290.87305 305.17773 290.87305C315.82447 290.87305 324.38086 282.31079 324.38086 271.66406C324.38086 261.01731 315.82447 252.45898 305.17773 252.45898zM 142.82227 370.94336C132.17677 370.94336 123.61914 379.50292 123.61914 390.14844C123.61912 400.79396 132.17675 409.35156 142.82227 409.35156C153.4678 409.35156 162.02734 400.79396 162.02734 390.14844C162.02734 379.50292 153.4678 370.94336 142.82227 370.94336z"/></svg>
