<svg xmlns="http://www.w3.org/2000/svg" viewBox="0 0 448 512" height="16" class="icon icon-researcherid-square"><path d="M48 32C21.5 32 0 53.5 0 80L0 432C0 458.5 21.5 480 48 480L400 480C426.5 480 448 458.5 448 432L448 80C448 53.5 426.5 32 400 32L48 32zM 106.13281 96L217.67969 96C246.19953 96 266.57414 98.880056 278.80078 104.62695C291.02741 110.37389 301.06644 120.34656 308.91992 134.5332C316.77341 148.71982 320.70703 165.70769 320.70703 185.50781C320.70703 210.53459 314.70674 230.693 302.69336 245.97266C290.68 261.25232 273.62582 270.85362 251.50586 274.78711C262.85239 282.93369 272.23946 291.8526 279.66602 301.51953C287.09258 311.19954 297.20005 328.54604 310.01367 353.58594L341.86719 416L278.66602 416L240.3457 346.37305C226.54589 321.19971 217.17321 305.43918 212.22656 299.11914C207.27991 292.79909 202.03912 288.4274 196.50586 286.02734C190.97258 283.62729 182.1075 282.42773 169.88086 282.42773L158.94727 282.42773L158.94727 416L106.13281 416L106.13281 96zM 158.94727 150.13281L158.94727 231.33398L198.24023 231.33398C222.25347 231.33398 237.53327 230.28038 244.08008 228.17383C250.6269 226.06726 255.93363 221.81338 260.01367 215.40039C264.09372 209.00049 266.11914 200.48057 266.11914 189.86719C266.11914 179.68039 264.08058 171.49359 260.01367 165.30664C255.94675 159.11967 250.41265 154.86655 243.42578 152.5332C238.47913 150.93306 224.14589 150.13281 200.42578 150.13281L158.94727 150.13281z"/></svg>
