<svg xmlns="http://www.w3.org/2000/svg" viewBox="0 0 448 512" height="16" class="icon icon-ror-square"><path d="M48 32C21.5 32 0 53.5 0 80L0 432C0 458.5 21.5 480 48 480L400 480C426.5 480 448 458.5 448 432L448 80C448 53.5 426.5 32 400 32L48 32zM 144.96875 141.94531L194.70508 141.94531L169.8457 180.02344L144.96875 141.94531zM 248.99219 141.94531L298.72852 141.94531L273.87305 180.02344L248.99219 141.94531zM 220.30078 188.73242C230.05561 188.73242 239.05366 190.26486 247.27148 193.31836C255.5098 196.37186 262.60092 200.75793 268.60547 206.45508C274.61001 212.15222 279.28263 219.06334 282.62305 227.1582C283.07389 228.26484 283.48171 229.36895 283.87109 230.49609L283.87109 191.90625L332.1543 191.90625C338.48673 191.90625 344.51378 192.52235 350.21094 193.75195C355.90808 194.98154 360.9044 197.05086 365.1875 199.91992C369.47061 202.80949 372.89338 206.68119 375.41406 211.55859C377.93475 216.43601 379.20508 222.50321 379.20508 229.79883C379.20508 238.59046 376.93035 246.09324 372.33984 252.26172C367.76982 258.43022 361.0719 262.341 352.25977 263.98047L384 316.67188L351.04688 316.67188L324.96094 266.79102L311.39258 266.79102L311.39258 316.67188L283.91016 316.67188L283.91016 278.08203C283.52078 279.20916 283.11297 280.33377 282.66211 281.41992C279.3012 289.51478 274.62857 296.42394 268.64453 302.12109C262.63999 307.81823 255.52837 312.20041 247.31055 315.25391C239.07224 318.3074 230.09662 319.8457 220.3418 319.8457C210.58698 319.8457 201.58892 318.3074 193.37109 315.25391C185.13277 312.20041 178.0231 307.81823 172.03906 302.12109C166.03451 296.42394 161.3619 289.51478 158.02148 281.41992C154.68108 273.32505 153.00195 264.26736 153.00195 254.28711C153.00195 253.30343 153.0215 252.34014 153.0625 251.37695C152.85756 251.66385 152.6737 251.97482 152.46875 252.26172C147.89875 258.43022 141.1969 262.34099 132.38477 263.98047L164.08984 316.67188L131.13477 316.67188L105.04688 266.79102L91.482422 266.79102L91.482422 316.67188L64 316.67188L64 191.90625L112.25977 191.90625C118.5922 191.90625 124.6173 192.52235 130.31445 193.75195C136.01159 194.98154 141.01379 197.05086 145.29688 199.91992C149.57999 202.80949 153.00277 206.68119 155.52344 211.55859C157.42932 215.24739 158.61459 219.63347 159.08594 224.69531C162.32388 217.64561 166.6288 211.55791 171.99805 206.45508C178.00259 200.75793 185.11421 196.37186 193.33203 193.31836C201.57035 190.26486 210.54596 188.73242 220.30078 188.73242zM 220.32227 214.10156C214.44069 214.10156 209.13336 215.10591 204.37891 217.09375C199.60396 219.10211 195.52493 221.89023 192.12305 225.47656C188.70067 229.0629 186.0993 233.30525 184.27539 238.24414C182.45148 243.18303 181.54883 248.52849 181.54883 254.28711C181.54883 260.16869 182.45149 265.54056 184.27539 270.41797C186.0993 275.29539 188.72115 279.51522 192.12305 283.10156C195.54544 286.68789 199.62445 289.49457 204.37891 291.48242C209.13335 293.47027 214.44068 294.47656 220.32227 294.47656C226.18336 294.47656 231.50922 293.49076 236.26367 291.48242C241.03861 289.47407 245.11765 286.68789 248.51953 283.10156C251.94194 279.51522 254.54522 275.29539 256.36914 270.41797C258.19303 265.54056 259.0957 260.16869 259.0957 254.28711C259.0957 248.52849 258.19303 243.18303 256.36914 238.24414C254.54522 233.32574 251.92143 229.06289 248.51953 225.47656C245.09716 221.89023 241.01812 219.08162 236.26367 217.09375C231.50923 215.1059 226.20385 214.10156 220.32227 214.10156zM 91.501953 215.16602L91.501953 243.52734L107.71289 243.52734C110.19258 243.52734 112.7959 243.44811 115.5625 243.26367C118.3086 243.09972 120.80529 242.56872 123.03906 241.6875C125.27283 240.80629 127.11823 239.4303 128.59375 237.54492C130.06927 235.65952 130.80859 233.01616 130.80859 229.63477C130.80859 226.4583 130.15046 223.94007 128.85938 222.05469C127.5683 220.16931 125.90777 218.73073 123.91992 217.72656C121.93207 216.72239 119.63684 216.04956 117.05469 215.70117C114.47253 215.35277 111.93382 215.16602 109.47461 215.16602L91.501953 215.16602zM 311.37305 215.16602L311.37305 243.52734L327.58398 243.52734C330.06367 243.52734 332.66699 243.44811 335.43359 243.26367C338.17969 243.09972 340.68029 242.56872 342.91406 241.6875C345.14783 240.80629 346.98932 239.4303 348.46484 237.54492C349.94034 235.65952 350.67969 233.01616 350.67969 229.63477C350.67969 226.4583 350.02546 223.94007 348.73438 222.05469C347.44331 220.16931 345.78277 218.73073 343.79492 217.72656C341.80706 216.72239 339.51185 216.04956 336.92969 215.70117C334.34753 215.35277 331.8049 215.16602 329.3457 215.16602L311.37305 215.16602zM 169.8457 331.95703L194.70508 370.05469L144.96875 370.05469L169.8457 331.95703zM 273.87305 331.95703L298.72852 370.05469L248.99219 370.05469L273.87305 331.95703z"/></svg>
