<svg xmlns="http://www.w3.org/2000/svg" viewBox="0 0 448 512" height="16" class="icon icon-scirate-square"><path d="M48 32C21.5 32 0 53.5 0 80L0 432C0 458.5 21.5 480 48 480L400 480C426.5 480 448 458.5 448 432L448 80C448 53.5 426.5 32 400 32L48 32zM 160.49805 133.08398L287.50195 133.08398L287.50195 140.55664C271.04324 141.16877 260.09384 143.63021 254.70312 147.91406C249.32591 152.22342 246.65625 160.73957 246.65625 173.46094L246.65625 338.38281C246.65625 351.07761 249.41739 359.71064 254.80664 364.16406C260.25059 368.68156 271.17605 371.11693 287.50391 371.46875L287.07422 378.91602L160.49805 378.91602L160.49805 371.46875C177.25535 371.11654 188.27053 368.85193 193.58398 364.64648C198.90941 360.47968 201.52734 351.70287 201.52734 338.38281L201.52734 173.46094C201.52734 160.73956 198.90941 152.22342 193.58398 147.91406C188.27053 143.63021 177.25535 141.16877 160.49805 140.55664L160.49805 133.08398zM 83.595703 141.94922C101.00488 141.94922 113.47845 146.8345 120.95312 156.625C128.45331 166.39035 132.17773 183.20047 132.17773 207.09375L132.17773 242.17188C132.17773 267.84904 136.47308 285.41339 145.01562 294.85352C150.18505 300.56944 158.28479 304.56799 168.7793 307.30273L168.7793 320.21875C146.76071 316.91088 129.46966 310.02321 116.9043 299.47656C100.12039 285.41388 91.787109 264.88077 91.787109 237.91406L91.787109 194.37305C91.787109 176.66491 90.276733 165.31086 87.216797 160.34961C84.169989 155.41499 78.673886 152.9668 70.783203 152.9668L64 152.9668L64 143.5C66.82552 142.99177 69.83303 142.60156 73.0625 142.32812C76.291596 142.09331 79.781079 141.94922 83.595703 141.94922zM 364.4043 141.94922C368.21892 141.94922 371.70842 142.09331 374.9375 142.32812C378.16698 142.60156 381.17447 142.99177 384 143.5L384 152.9668L377.2168 152.9668C369.32614 152.9668 363.83003 155.41499 360.7832 160.34961C357.72325 165.31086 356.21289 176.6649 356.21289 194.37305L356.21289 237.91406C356.21289 264.88076 347.8796 285.41388 331.0957 299.47656C318.53037 310.02321 301.23929 316.91087 279.2207 320.21875L279.2207 307.30273C289.71521 304.56799 297.81497 300.56944 302.98438 294.85352C311.52693 285.41338 315.82227 267.84904 315.82227 242.17188L315.82227 207.09375C315.82227 183.20047 319.54665 166.39035 327.04688 156.625C334.52152 146.83451 346.99512 141.94922 364.4043 141.94922z"/></svg>
