<svg xmlns="http://www.w3.org/2000/svg" viewBox="0 0 512 512" height="16" class="icon icon-scirate"><path d="M132.62426,316.69067C119.2805,301.94483 112.56962,274.5073 112.56962,234.39862v-54.79191c0,-37.32217-5.81677,-63.58084-17.532347,-78.83466-11.6757,-15.293118-31.159702,-22.922596-58.353466,-22.922596-5.958581,0-11.409226,.22492-16.45319,.5917-5.04455,.427121-9.742846,1.037046-14.1564111,1.83092V95.057199H16.671281c12.325533,0 20.908335,3.82414 25.667559,11.532201 4.77973,7.74964 7.139712,25.48587 7.139712,53.14663v68.01321c0,42.12298 13.016861,74.19672 39.233939,96.16314 19.627549,16.47424 46.636229,27.23363 81.030059,32.40064v-20.17708c-16.3928,-4.27176-29.04346,-10.51565-37.11829,-19.44413zm 246.75144,0c13.34377,-14.74584 20.05466,-42.18337 20.05466,-82.29205v-54.79191c0,-37.32217 5.81673,-63.58084 17.53235,-78.83466 11.67568,-15.293118 31.15971,-22.922596 58.35348,-22.922596 5.95858,0 11.40922,.22492 16.45315,.5917 5.04457,.427121 9.74287,1.037046 14.15645,1.83092v14.785125h-10.59712c-12.32549,0-20.90826,3.82414-25.66752,11.532201-4.77974,7.74964-7.13972,25.48587-7.13972,53.14663v68.01321c0,42.12298-13.01688,74.19672-39.23394,96.16314-19.6275,16.47424-46.63622,27.23363-81.03006,32.40064v-20.17708c16.39279,-4.27176 29.04347,-10.51565 37.11827,-19.44413zM 303.95857,87.165762c8.42049,-6.691524 25.52576,-10.536158 51.23486,-11.492333V63.999997H156.80716v11.673432c26.1755,.956175 43.38268,4.800809 51.68248,11.492333 8.31852,6.73139 12.40691,20.033568 12.40691,39.904818V384.6851c0,20.80641-4.08839,34.5146-12.40691,41.02332-8.2998,6.56905-25.50698,10.10729-51.68248,10.65744V448h197.71597l.67087,-11.63414c-25.50471,-.54955-42.56835,-4.35266-51.07201,-11.40918-8.4182,-6.95638-12.73153,-20.44184-12.73153,-40.27158V127.07058c0,-19.87125 4.16983,-33.173428 12.56922,-39.904818z"/></svg>
