<svg xmlns="http://www.w3.org/2000/svg" viewBox="0 0 448 512" height="16" class="icon icon-scopus-square"><path d="M48 32C21.5 32 0 53.5 0 80L0 432C0 458.5 21.5 480 48 480L400 480C426.5 480 448 458.5 448 432L448 80C448 53.5 426.5 32 400 32L48 32zM 64 96L384 96L384 416L64 416L64 96zM 161.3457 179.27148C134.86029 179.27148 118.71289 196.49751 118.71289 218.46094C118.71289 240.42442 138.09122 249.89962 155.74805 260.66602C168.88304 268.63317 182.66211 274.01693 182.66211 288.22852C182.66211 302.00953 170.39032 311.91602 155.74805 311.91602C141.32122 311.91602 131.84701 308.68293 120.86523 302.00781L118.2793 319.01953C129.47652 324.18737 140.88836 326.55664 156.60742 326.55664C178.57101 326.55664 201.61133 312.99217 201.61133 286.07617C201.61133 265.61999 183.52341 256.3592 166.08203 246.02344C152.51617 237.84099 138.08984 232.24286 138.08984 217.16992C138.08984 205.97285 146.27233 193.70117 162.42188 193.70117C176.41823 193.70117 186.10917 195.85063 198.38281 203.17188L199.45898 186.16406C188.04631 181.42684 179.86388 179.27148 161.3457 179.27148zM 296.09961 179.27148C254.32594 179.27148 222.67383 211.78591 222.67383 253.12891C222.67383 300.28572 260.35646 326.12695 295.45508 326.12695C313.11191 326.12695 327.75313 323.75717 339.38086 317.94336L338.08984 301.57812C324.95485 308.68392 310.95729 311.48438 296.96094 311.48438C266.38414 311.48438 242.05273 285.85971 242.05273 251.83789C242.05273 215.87814 265.95258 193.70117 293.94531 193.70117C311.60214 193.70117 325.1699 196.49951 338.08984 203.60547L339.38086 187.45508C327.53771 181.85658 317.84775 179.27148 296.09961 179.27148z"/></svg>
