<svg xmlns="http://www.w3.org/2000/svg" viewBox="0 0 448 512" height="16" class="icon icon-semantic-scholar-square"><path d="M48 32C21.5 32 0 53.5 0 80L0 432C0 458.5 21.5 480 48 480L400 480C426.5 480 448 458.5 448 432L448 80C448 53.5 426.5 32 400 32L48 32zM 119.56445 139.35547L303.41016 139.35547C315.13153 165.60335 319.88398 193.4779 324.32812 221.42578C323.51162 221.6574 322.69739 221.89177 321.88086 222.125C321.29319 220.4904 320.59928 218.8865 320.13281 217.2168C316.76632 205.18207 313.37257 193.15428 310.15039 181.08008C308.99141 176.7364 306.25795 174.5727 302.34766 172.44531C296.60458 169.32201 291.17708 165.29669 286.41797 160.80469C283.38074 157.93974 280.7832 156.19089 276.47461 156.23633C247.79035 156.53974 219.10297 156.57005 190.41992 156.83398C188.50822 156.85298 186.14219 157.55827 184.78906 158.81055C179.57066 163.63942 174.67888 168.82058 168.24609 175.29883C185.21336 216.61544 193.7428 261.64768 190.08008 309.52148C181.93412 304.30587 175.62828 300.17838 175.25391 289.25C173.38049 234.63004 156.53044 185.23556 121.33008 142.73047C120.53829 141.77402 120.14494 140.48694 119.56445 139.35547zM 102.5332 160.38281C106.61814 160.38047 110.70205 160.40714 114.7832 160.52734C116.40306 160.57394 118.66917 161.60462 119.47852 162.90234C143.88926 202.12226 162.91927 243.3124 165.38477 290.43945C165.39627 290.62604 165.20264 290.82232 164.50586 292.19141C149.91793 242.32458 123.60002 200.10378 89.75 162.26172C89.926565 161.64774 90.100725 161.03315 90.277344 160.41797C94.362077 160.41797 98.448269 160.38516 102.5332 160.38281zM 95.414062 193.69531C96.408388 193.67631 97.581595 194.99028 98.414062 195.91602C117.67057 217.33622 135.14784 239.96798 145.91992 267.03516C147.96997 272.18339 149.37261 277.58997 151.07422 282.87695C128.76174 247.76428 97.711675 221.50865 64 194.72852C75.670333 194.30432 85.541797 193.8791 95.414062 193.69531zM 382.5332 212.66406C382.96916 212.62743 383.44822 212.65948 384 212.79883C310.69484 255.37091 240.75974 301.98583 189.4668 372.64453C169.15613 340.34415 149.59321 309.23098 130.0293 278.11914C130.26851 277.81136 130.50925 277.50662 130.74805 277.19922C132.38826 278.52007 167.27771 306.49602 182.94727 319.32812C187.31248 322.90316 190.61015 322.83978 195.15039 319.15234C248.43037 275.87141 307.88344 243.11224 371.00977 216.69531C374.37948 215.28556 377.87563 214.16737 381.32227 212.94141C381.70501 212.80585 382.09724 212.70069 382.5332 212.66406z"/></svg>
