<svg xmlns="http://www.w3.org/2000/svg" viewBox="0 0 512 512" height="16" class="icon icon-semantic-scholar"><path d="m379.0868,75.20191c18.16812,40.68422 25.53302,83.89034 32.42143,127.20955-1.26557,.35902-2.52865,.72116-3.79427,1.08267-.9109,-2.53364-1.98432,-5.02156-2.70735,-7.60959-5.21805,-18.65384-10.47938,-37.29655-15.47376,-56.01156-1.79641,-6.7327-6.03443,-10.08392-12.09539,-13.38137-8.90177,-4.84112-17.31343,-11.08316-24.69005,-18.04576-4.70771,-4.44068-8.73494,-7.14859-15.41325,-7.07815-44.46061,.47028-88.92553,.51538-133.38426,.92448-2.96314,.0295-6.63075,1.12345-8.72809,3.06448-8.08853,7.48476-15.67094,15.51457-25.64177,25.55586 26.29927,64.04074 39.52245,133.8403 33.84523,208.04469-12.62623,-8.0842-22.40117,-14.47949-22.98144,-31.41848C177.54002,222.87779 151.42365,146.31401 96.863089,80.431113 95.635828,78.948619 95.025884,76.955074 94.126122,75.20129H379.0868ZM 48.729955,107.84705c12.662672,0 25.33214,-.20085 37.983708,.17178 2.510789,.0723 6.022658,1.66788 7.277148,3.67935 37.836649,60.79088 67.333839,124.63574 71.155359,197.68268 .0178,.28921-.2826,.59448-1.36262,2.71657-22.61129,-77.29358-63.40364,-142.73587-115.871175,-201.39106 .273676,-.95167 .544426,-1.90519 .818185,-2.85871zm-40.7293523,53.1819c18.0890173,-.65752 33.3891773,-1.3175 48.6911883,-1.60238 1.541204,-.0295 3.360468,2.009 4.650795,3.4439 29.847587,33.20131 56.935394,68.2806 73.632114,110.23473 3.17758,7.97976 5.35158,16.35996 7.98907,24.55477C108.37943,243.23533 60.253096,202.53752 7.9999987,161.02833ZM 202.47422,436.79811c-31.48153,-50.06559-61.80372,-98.28894-92.12778,-146.5123 .37077,-.47706 .74155,-.95165 1.11169,-1.42811 2.54233,2.04731 56.62149,45.41225 80.9093,65.30201 6.76608,5.54129 11.87848,5.44178 18.91585,-.27375 82.58396,-67.08545 174.73706,-117.86224 272.58287,-158.80848 5.22305,-2.18511 10.64009,-3.91664 15.98238,-5.81688 1.18651,-.42022 2.44093,-.65319 4.15147,-.22122C390.37701,255.0261 281.97764,327.27773 202.47359,436.79871Z"/></svg>
