<svg xmlns="http://www.w3.org/2000/svg" viewBox="0 0 448 512" height="16" class="icon icon-springer-square"><path d="M48 32C21.5 32 0 53.5 0 80L0 432C0 458.5 21.5 480 48 480L400 480C426.5 480 448 458.5 448 432L448 80C448 53.5 426.5 32 400 32L48 32zM 203.54297 96.003906C220.88839 96.226393 227.50013 106.98293 230.77344 118.86328C236.64434 119.31501 242.06599 120.20832 247.03125 121.10156C247.93688 118.41091 250.64788 116.14062 253.80664 116.14062C257.8692 116.14062 260.58203 119.31537 260.58203 122.91016L260.58203 124.7168C270.06342 127.87921 279.09255 132.39145 287.22461 137.36328C288.58048 135.55529 290.38399 134.65039 292.64258 134.65039C296.7066 134.65039 299.41992 137.81536 299.41992 141.44336C299.41992 143.22981 298.96777 144.58411 298.0625 145.48828C305.74247 151.82841 312.06552 159.49168 317.9375 167.61719C318.83622 167.1651 320.19152 166.71289 321.0957 166.71289C325.15826 166.71289 328.32422 169.87818 328.32422 173.49414C328.32422 176.21686 326.96905 178.45413 324.70898 179.35938C329.22874 187.50712 332.83825 196.53819 335.54492 205.99805C335.99701 205.55655 336.90143 205.55469 337.35352 205.55469C341.41759 205.55469 344.12891 208.71886 344.12891 212.32422C344.12891 215.94055 341.86928 218.65483 339.16406 219.10547C340.97093 228.57737 342.3219 238.06934 343.22461 248.00391C347.28719 248.00391 350.45312 251.15718 350.45312 254.78516C350.45313 258.84116 347.2886 261.5432 343.67773 262.00586C343.67773 271.48834 343.22498 281.87402 342.32227 291.80859C345.93821 292.26031 348.64453 295.41449 348.64453 299.04102C348.64453 302.64639 345.48408 305.8125 341.41602 305.8125L340.9707 305.8125C339.16273 315.74598 337.35421 325.67926 335.09961 336.06445L335.09766 336.06641L354.0625 336.06641L354.0625 349.16406L140.90625 349.16406L140.90625 336.06641L158.97266 336.06641C162.13142 293.61856 202.77725 277.83134 225.35742 243.49805L199.16602 243.49805C186.5182 248.00724 167.55078 276.02216 167.55078 292.26367L134.58398 292.26367L135.03516 278.71289L124.19727 287.75391L95.292969 254.3457C95.292969 254.3457 93.9375 252.52502 93.9375 251.1582C93.9375 249.81288 94.390625 248.91016 94.390625 248.91016L140.00195 187.05664L148.13477 162.66797L160.32812 158.13672L172.9707 140.54102L168.45312 109.8125C180.64666 105.30187 192.39146 109.35983 198.27148 115.23438C198.71152 106.21674 197.80664 96.283203 197.80664 96.283203C199.8389 96.070331 201.74862 95.98089 203.54297 96.003906zM 210.91016 110.26367C210.91016 110.26367 210.90893 126.52445 207.29297 142.78711L195.09961 140.53906C195.09961 129.24679 190.13215 124.71805 183.35742 121.55273L186.51953 143.68164L178.8418 154.97266L182.45703 165.36719L158.52148 173.49414L151.74609 192.91016L109.74609 250.7168L125.55469 269.68164L143.16797 254.78711L147.23047 257.48633L147.23047 279.61719L156.71094 279.61719C160.77496 263.81721 173.8718 245.29442 186.06641 236.26367L179.29297 228.13672L189.22656 219.57031L198.71289 231.30273C198.71289 231.30273 232.58398 231.30284 232.58398 230.86133C237.55179 220.01312 240.70898 206.90259 240.70898 191.55469L253.80859 191.55469C253.80859 243.05371 228.07006 263.35261 196.00195 294.97266C184.2605 306.70316 173.87346 319.36169 172.51758 336.51758L321.54883 336.51758C347.73985 228.57869 317.03443 142.78781 233.49023 132.84375C233.93683 137.36389 233.93555 140.99259 233.93555 144.58594C233.93555 150.01132 233.49023 154.51953 233.49023 154.51953L220.39062 152.28125C220.85473 147.74949 221.74888 117.04385 210.91016 110.26367zM 184.71289 178.45508L185.16406 186.60352L164.84375 197.44141L163.48828 180.71484L184.71289 178.45508zM 125.10352 236.25977L133.22852 236.71289C133.68171 242.5889 132.77596 251.61972 129.61719 256.12891L129.61719 256.13086L120.13672 252.52539C123.29403 248.00526 125.10352 241.68516 125.10352 236.25977zM 140.9082 389.82617L353.61328 389.82617L353.61328 416L140.9082 416L140.9082 389.82617z"/></svg>
