<svg xmlns="http://www.w3.org/2000/svg" viewBox="0 0 448 512" height="16" class="icon icon-stackoverflow-square"><path d="M48 32C21.5 32 0 53.5 0 80L0 432C0 458.5 21.5 480 48 480L400 480C426.5 480 448 458.5 448 432L448 80C448 53.5 426.5 32 400 32L48 32zM 274.06836 96L359.05859 210.55078L336.15039 227.54688L251.16211 112.99609L274.06836 96zM 221.23242 141.82227L330.97656 233.08984L312.86719 254.89258L203.125 163.61719L221.23242 141.82227zM 179.10547 200.94336L308.4375 261.53906L296.61523 287.40625L167.28516 227.17773L179.10547 200.94336zM 154.71875 265.60938L294.39258 294.79492L288.48047 322.88477L148.80859 293.69141L154.71875 265.60938zM 88.941406 301.81836L117.40039 301.81836L117.40039 387.55078L317.30664 387.55078L317.30664 301.81836L345.75586 301.81836L345.75586 416L88.941406 416L88.941406 301.81836zM 145.84961 330.27539L288.48047 330.27539L288.48047 358.72461L145.84961 358.72461L145.84961 330.27539z"/></svg>
