<svg xmlns="http://www.w3.org/2000/svg" viewBox="0 0 448 512" height="16" class="icon icon-viaf-square"><path d="M48 32C21.500027 32 0 53.500027 0 80L0 432C0 458.49997 21.500027 480 48 480L400 480C426.49997 480 448 458.49997 448 432L448 80C448 53.500027 426.49997 32 400 32L48 32zM 199.00781 96C225.53576 96 229.34312 96.257364 228.70312 98.193359C228.27113 99.409357 226.35172 100.36914 224.51172 100.36914C219.23173 100.36914 214.78359 106.27124 213.18359 115.19922C212.04759 121.88721 208.41605 198.83207 209.24805 199.66406C209.76005 200.24006 269.8085 126.00046 273.3125 120.48047C275.3576 117.21495 276.83837 113.6296 277.69531 109.87305C278.39931 105.12105 278.14373 104.67261 272.92773 102.22461C263.00776 97.472623 266.75221 96 288.57617 96C304.16014 96 308.54297 96.383923 308.54297 97.919922C308.54298 98.959919 306.44828 100.88016 303.9043 102.16016L232.01562 186.24023C197.79169 228.25614 180.75216 248.09602 178.57617 248.41602C175.47216 248.86402 175.47111 248.8642 176.28711 232.24023L178.96094 162.80078C181.05694 104.41691 180.99151 103.64917 173.10352 101.20117C170.62352 100.43317 168.5918 98.895468 168.5918 97.855469C168.5918 96.383472 175.08785 96 199.00781 96zM 349.39258 96C380.2405 96 384.63955 96.257363 383.93555 98.193359C383.48755 99.409357 381.45628 100.36914 379.48828 100.36914C374.27229 100.36914 367.32778 105.3125 364.5918 110.89648C361.5358 117.13647 332.14453 226.19177 332.14453 231.34375C332.14453 236.09574 336.28717 239.55121 343.53516 240.7832C356.70312 243.0232 345.90494 244.24023 312.625 244.24023C279.34506 244.24023 269.6794 243.0872 283.35938 240.7832C289.71442 239.63958 295.15749 235.56757 298.04688 229.79297C300.15887 225.55298 328.59328 122.14373 330.11328 113.34375C331.26528 106.52776 327.69567 102.28931 319.67969 100.94531C316.30369 100.36931 314.08008 99.215997 314.08008 98C314.08008 96.320004 320.44865 96 349.39258 96zM 193.98242 263.32812C196.63842 263.32812 196.70272 264.03261 195.88672 284.97656C191.74272 390.81636 191.55042 402.3847 193.98242 406.30469C195.24642 408.41669 197.91977 410.54269 199.75977 411.05469C201.67976 411.50269 203.26367 412.84763 203.26367 414.01562C203.26367 415.67962 197.72825 416 171.9043 416C147.53634 416 140.73642 415.61503 141.23242 414.20703C141.48842 413.16703 144.03203 411.95191 146.83203 411.50391C156.88002 409.77591 159.37694 404.49555 160.96094 381.18359L161.85547 367.56641L140.60742 367.56641L119.35938 367.63281L108.28906 382.22461C95.185089 399.42457 93.088983 404.83324 97.792969 408.86523C99.568967 410.41723 102.12799 411.63086 103.58398 411.63086C105.03998 411.63086 106.19141 412.59222 106.19141 413.82422C106.19141 415.68022 102.87992 416 84.751953 416C66.864001 416 63.440454 415.68112 64.064453 413.95312C64.512443 412.78513 66.431939 411.43973 68.335938 410.92773L139.00781 329.16797C175.64774 282.91207 191.99842 263.32812 193.98242 263.32812zM 312.75195 267.75977C353.58387 267.75977 370.96094 268.20738 370.96094 269.35938L363.9043 300.38477C362.9443 304.24075 361.72717 305.9043 359.95117 305.9043C357.9832 305.9043 357.21617 304.3666 356.57617 298.97461C354.41617 281.75864 345.69434 276.11192 321.15039 275.91992L305.31055 275.85742L297.98438 301.53516C294.04838 315.67912 290.67188 328.38311 290.67188 329.87109C290.54388 332.30309 291.43981 332.43266 300.5918 331.47266C315.93576 329.93666 324.19255 324.79914 332.14453 311.95117C333.36053 310.07917 335.26297 308.73664 336.54297 309.05664C338.38297 309.50464 337.55331 313.80671 330.94531 338.22266C324.89733 360.2546 322.54312 366.9285 320.70312 367.3125C318.65513 367.6965 318.28906 366.67184 318.28906 360.25586C318.28906 351.45588 315.6801 345.27905 310.91211 343.03906C309.05611 342.14306 303.0725 340.91194 297.72852 340.33594L288 339.3125L285.20117 349.39258C271.0732 400.33647 270.25562 405.40814 275.59961 409.32812C277.31161 410.60812 281.07155 411.63086 283.93555 411.63086C287.67953 411.63086 289.15234 412.27222 289.15234 413.82422C289.15234 415.74422 284.23974 416 253.00781 416C224.95987 416 217.00903 415.61503 217.45703 414.20703C217.77703 413.23103 220.688 411.8885 224 411.3125C230.94398 410.0325 235.20077 406.30273 238.38477 398.71875C242.19276 389.59877 268.46292 292.47925 269.29492 284.44727C269.99892 277.77528 269.74486 276.75059 266.88086 274.55859C264.50074 272.98938 261.84633 271.88436 259.05664 271.29688C256.57664 270.76888 254.54492 269.74501 254.54492 269.04102L312.75195 267.75977zM 163.69727 313.55273L127.18555 358.06445L161.02344 358.44727C161.59944 357.87127 164.20927 314.12873 163.69727 313.55273z"/></svg>
