<svg xmlns="http://www.w3.org/2000/svg" viewBox="0 0 448 512" height="16" class="icon icon-wiley-square"><path d="M48 32C21.500027 32 0 53.500027 0 80L0 432C0 458.49997 21.500027 480 48 480L400 480C426.49997 480 448 458.49997 448 432L448 80C448 53.500027 426.49997 32 400 32L48 32zM 224.25781 96C260.03494 96 294.41998 104.39231 324.35742 128.5957C352.97464 151.72282 372.58594 192.15913 372.58594 255.13867C372.58594 324.36936 351.85701 363.25011 317.44727 388.71094C292.58266 407.11854 260.57195 416 223.36523 416C187.11835 416 151.62737 407.24265 124.68555 384.46289C96.366915 360.50098 75.414064 323.91228 75.414062 255.54688C75.414063 198.47205 89.715705 161.93086 115.38867 136.01953C146.19514 104.9105 188.54974 96 224.25781 96zM 224.25781 112.97852C170.09443 112.97852 143.76568 124.84902 125.01953 145.37695C114.24097 157.18331 106.58951 171.46851 101.63086 189.50781A3.3492921 3.3492921 0 0 1 102.31055 188.82812L140.69727 188.82812A3.3492921 3.3492921 0 0 1 144.05273 192.18359L144.05273 194.0293A3.3492921 3.3492921 0 0 1 141.42188 197.29492C139.9346 197.62428 138.37215 198.56678 137.53711 199.77344C136.18157 201.72335 135.17986 204.65098 138.12695 210.68945C139.28144 213.07129 147.38777 229.71937 155.64844 246.77734C163.9091 263.83532 172.25837 281.1595 174.21484 285.54102C176.59858 290.88437 176.73452 292.28136 177.41992 294.6875C178.07445 293.68713 178.22239 293.33264 179.40039 291.54297C179.96172 290.68585 181.01997 289.28494 182.86328 286.85742C184.70659 284.4299 187.20659 281.17636 190.16406 277.36328C196.079 269.73711 203.82959 259.85486 211.875 249.83203A3.3492921 3.3492921 0 0 1 211.89062 249.83203C212.89341 248.59241 213.32838 248.13769 213.90039 247.51758C213.18202 246.76984 212.53667 246.13251 211.85938 245.31055C194.83792 224.5908 180.00575 206.77617 177.82812 204.14258C172.82048 198.05501 169.27148 195.66211 169.27148 195.66211A3.3492921 3.3492921 0 0 1 167.80469 192.89453L167.80469 192.19922A3.3492921 3.3492921 0 0 1 171.16016 188.84375L216.00195 188.84375C215.99472 187.23909 215.98633 185.47486 215.98633 184.15625C215.98631 168.14556 220.97854 159.73079 226.52539 153.26953C223.97097 153.6273 221.5523 154.04102 218.11914 154.04102C213.10892 154.04102 196.99249 153.58594 190.67773 153.58594C184.38027 153.58593 180.25089 154.03637 175.43945 155.64258C171.97239 156.79621 168.27935 159.86711 166.95703 161.28125A3.3492921 3.3492921 0 0 1 162.66406 161.79688L161.37891 160.94922A3.3492921 3.3492921 0 0 1 160.00391 157.24609C160.30798 156.1738 160.67724 155.45654 161.30273 154.20703C161.92822 152.95753 162.76135 151.44745 163.72266 149.83789C165.64527 146.61879 168.01047 143.07156 170.82812 140.58398C176.28878 135.75748 183.80807 133.16211 194.58008 133.16211C204.94399 133.16211 227.85591 133.58398 234.75 133.58398C238.21528 133.58398 241.51502 133.49958 244.21289 133.23633C246.91076 132.97308 249.05293 132.43212 249.76172 132.05859A3.3492921 3.3492921 0 0 1 254.4043 133.7207C254.4043 133.7207 254.49131 133.93625 254.93359 134.71875A3.3492921 3.3492921 0 0 1 253.82812 139.17773C253.82812 139.17773 251.23901 140.82205 248.18945 144.28906C241.97855 151.33928 241.08793 155.26594 240.53906 167.7832C240.41577 170.55116 240.39605 179.44796 240.34375 188.82812L276.25 188.82812A3.3492921 3.3492921 0 0 1 279.60547 192.18359L279.60547 192.84961A3.3492921 3.3492921 0 0 1 278.01953 195.69141C277.57331 195.96891 274.47072 198.98449 271.39648 202.85742C271.00355 203.35124 267.42979 208.04746 262.17383 214.86328C256.91786 221.67909 249.84648 230.78519 242.00586 240.71484C241.46673 241.40064 240.80758 242.06481 240.26758 242.69531C240.83858 243.30848 241.46914 243.91501 241.94531 244.48047A3.3492921 3.3492921 0 0 1 241.96094 244.49414C249.81173 253.85856 257.57934 263.15465 263.70117 270.54492C269.823 277.9352 274.1424 283.18631 275.64453 285.30078C276.93067 287.11396 278.82288 289.83992 280.46875 292.33008C280.5622 292.47146 280.61731 292.58308 280.70898 292.72266C281.49417 290.16972 281.8593 288.07587 283.18945 285.40625C287.09128 277.55942 311.12469 222.8094 314.28906 214.03125C317.18624 205.98444 316.38723 202.66262 314.34961 200.06055A3.3492921 3.3492921 0 0 1 314.33398 200.04688C312.50572 197.70062 309.50977 197.31055 309.50977 197.31055A3.3492921 3.3492921 0 0 1 306.48633 193.98438L306.48633 192.19922A3.3492921 3.3492921 0 0 1 309.84375 188.84375L345.08398 188.84375C338.67198 166.45108 328.8963 149.28908 315.39258 137.95312C294.79624 120.6727 272.42342 112.97851 224.25781 112.97852zM 100.4668 195.87305C96.600087 212.49324 94.464844 231.64701 94.464844 255.32031C94.464845 299.18765 100.7187 342.35348 126.22852 367.86328C148.78532 390.41257 175.42097 398.70508 223.66797 398.70508C268.47033 398.70508 294.94062 393.46427 318.29492 370.55273C343.36884 345.94453 353.44531 312.71351 353.44531 255.32031C353.44531 232.66534 350.8654 214.00086 346.99023 197.32422C346.21013 197.52528 344.85465 198.41259 343.64844 199.48633A3.3492921 3.3492921 0 0 0 343.64844 199.48828A3.3492921 3.3492921 0 0 0 343.64844 199.49023A3.3492921 3.3492921 0 0 0 343.64844 199.49219A3.3492921 3.3492921 0 0 0 343.64844 199.49414A3.3492921 3.3492921 0 0 0 343.64844 199.49609A3.3492921 3.3492921 0 0 0 343.64844 199.49805A3.3492921 3.3492921 0 0 0 343.64844 199.5A3.3492921 3.3492921 0 0 0 343.64844 199.50195C343.36187 199.75668 342.20612 201.22592 341.16992 202.96484C340.13371 204.70376 339.05784 206.76338 338.20508 208.57227C337.91308 209.19242 334.84472 216.04435 330.57031 225.5957C326.29591 235.14705 320.71413 247.61943 315.08984 260.1875C303.84507 285.31516 292.59234 310.47254 290.74805 314.28125L290.73438 314.29688C287.76295 320.4672 285.25977 328.00977 285.25977 328.00977A3.3492921 3.3492921 0 0 1 282.08594 330.32227L281.08789 330.32227A3.3492921 3.3492921 0 0 1 278.29102 328.81055C278.29102 328.81055 275.64817 324.79178 268.50977 315.6582C266.61573 313.24145 254.50269 298.14273 240.53906 280.82422C240.85751 299.81424 241.16016 320.62183 241.16016 327.69141C241.16016 339.04937 241.27123 345.63319 240.58594 353.0918C240.11324 358.2399 238.27572 365.97188 233.10156 372.74609C227.92741 379.52031 219.1752 385.07731 206.2207 385.21875C195.29054 385.33896 187.65304 381.75664 182.96875 376.84375C178.28446 371.93086 176.55859 365.99857 176.55859 361.3457C176.55859 355.81849 178.2386 350.89478 181.34961 347.30078C184.46062 343.70678 189.02913 341.56171 194.0957 341.49609C203.60565 341.36403 209.587 348.97342 209.48633 356.37305C209.41136 362.61204 206.07338 367.09679 201.66992 368.98047C202.68022 369.43575 203.91211 370.03906 205.50977 370.03906C210.08874 370.03906 212.32939 369.12211 214.24805 365.95703C216.16671 362.79196 217.45697 356.58213 217.34766 346.5293C217.16993 330.41764 216.7597 300.46523 216.57617 272.55469C202.3781 290.90465 189.96725 307.84279 187.38281 311.0918C179.51077 320.98349 174.36523 328.81055 174.36523 328.81055A3.3492921 3.3492921 0 0 1 171.56836 330.32227L170.79688 330.32227A3.3492921 3.3492921 0 0 1 167.53125 327.72266C167.53125 327.72266 167.2472 326.3232 163.75195 318.63672C163.32907 317.70906 159.72666 310.23501 154.69727 299.88867C149.66787 289.54233 143.12559 276.11086 136.50781 262.5918C129.89003 249.07274 123.19298 235.46441 117.88281 224.75C112.57263 214.03559 108.50314 205.96529 107.61719 204.41602A3.3492921 3.3492921 0 0 1 107.60156 204.40039C106.97055 203.29041 106.14225 201.86412 105.33398 200.60547C104.52572 199.34682 103.60673 198.20102 103.45898 198.06641C103.37322 197.98823 101.64453 197.31055 101.64453 197.31055A3.3492921 3.3492921 0 0 1 100.4668 195.87305zM 244.96875 203.49219C242.57138 203.49446 241.7843 203.50523 240.25195 203.50781C240.22026 207.1605 240.19978 210.79063 240.17773 214.36328C244.58012 208.90756 248.13257 204.55158 249.02148 203.49219C247.41157 203.4899 246.85111 203.49041 244.96875 203.49219zM 207.61133 203.50781C208.714 204.88057 211.21762 207.87927 216.44141 214.10547C216.40365 210.37098 216.35496 206.86232 216.32031 203.50781L207.61133 203.50781z"/></svg>
