<svg xmlns="http://www.w3.org/2000/svg" viewBox="0 0 512 512" height="16" class="icon icon-wiley"><path d="m25.033203,4.3300781c-4.613024,0-10.084654,1.151035-14.064453,5.1699219-3.3166172,3.347411-5.1640624,8.068073-5.1640625,15.441406 2e-7,8.831931 2.7068314,13.558726 6.3652345,16.654297 3.480537,2.942852 8.065416,4.074219 12.748047,4.074219 4.806629,0 8.94211,-1.147365 12.154297,-3.525391 4.445296,-3.289212 7.123046,-8.312144 7.123046,-17.255859 0,-8.136147-2.533492,-13.35993-6.230468,-16.3476564C34.097312,5.4142487 29.655148,4.3300781 25.033203,4.3300781Zm 0,2.1933594c6.222377,-2e-7 9.112656,.9941539 11.773438,3.2265625 1.744507,1.464459 3.007589,3.681374 3.835937,6.574219h-4.552734a.43268504,.43268504 0 0 0-.433594,.433593v.230469a.43268504,.43268504 0 0 0 .390625,.429688c0,0 .386859,.05041 .623047,.353515a.43268504,.43268504 0 0 0 .002,.002c.263235,.336154 .366465,.765143-.0078,1.804687-.408796,1.134024-3.513512,8.206993-4.017578,9.220703-.171839,.34488-.218876,.615506-.320312,.945313-.01184,-.01803-.01918,-.03252-.03125,-.05078-.212625,-.321696-.456895,-.673963-.623047,-.908203-.194056,-.273162-.752107,-.951521-1.542969,-1.90625-.790862,-.954728-1.794373,-2.155471-2.808594,-3.365234a.43268504,.43268504 0 0 0-.002,-.002c-.06151,-.07305-.143031,-.151255-.216797,-.230469 .06976,-.08145 .154962,-.167263 .22461,-.255859 1.012908,-1.282783 1.926465,-2.459329 2.605469,-3.339844 .679003,-.880516 1.140644,-1.486986 1.191406,-1.550781 .397152,-.500333 .797823,-.889932 .855469,-.925782a.43268504,.43268504 0 0 0 .205078,-.367187v-.08594A.43268504,.43268504 0 0 0 31.75,16.322266h-4.638672c.0068,-1.211797 .0095,-2.361166 .02539,-2.71875 .07091,-1.61707 .185912,-2.124359 .988281,-3.035157 .393964,-.447893 .728516,-.6601559 .728516,-.6601559A.43268504,.43268504 0 0 0 28.996094,9.3320312C28.938957,9.2309428 28.927734,9.203125 28.927734,9.203125A.43268504,.43268504 0 0 0 28.328125,8.9882812c-.09157,.048255-.368267,.1183356-.716797,.1523438-.34853,.034008-.774986,.044922-1.222656,.044922-.890628,0-3.850569,-.054687-5.189453,-.054687-1.391605,0-2.362914,.3354621-3.06836,.9589846-.364005,.321363-.669591,.779445-.917968,1.195312-.124189,.207934-.231695,.403033-.3125,.564453-.08081,.16142-.128686,.254052-.167969,.392579a.43268504,.43268504 0 0 0 .177734,.478515l.166016,.109375a.43268504,.43268504 0 0 0 .554687,-.06641c.170827,-.182689 .647803,-.579481 1.095703,-.728516 .621576,-.207501 1.155199,-.265626 1.96875,-.265625 .815785,0 2.897666,.05859 3.544922,.05859 .44352,0 .75594,-.05339 1.085938,-.09961-.716582,.834711-1.36133,1.921859-1.361328,3.990234 0,.170348 .001,.398168 .002,.605469h-5.792969a.43268504,.43268504 0 0 0-.433594,.433593v.08984a.43268504,.43268504 0 0 0 .189454,.357422c0,0 .458545,.309267 1.105468,1.095703 .281321,.340226 2.197532,2.641635 4.396485,5.31836 .0875,.106187 .170867,.188558 .263671,.285156-.0739,.08011-.130218,.138685-.259765,.298828a.43268504,.43268504 0 0 0-.002,0c-1.039363,1.294821-2.040554,2.571438-2.804688,3.556641-.382067,.492601-.705227,.912958-.943359,1.226562-.238132,.313604-.374749,.49474-.447266,.605469-.152182,.231203-.171302,.277015-.255859,.40625-.08854,-.310842-.106115,-.491348-.414063,-1.181641-.252751,-.566036-1.331266,-2.804141-2.398437,-5.007812-1.067172,-2.203671-2.114527,-4.354407-2.263672,-4.66211-.380727,-.780093-.25129,-1.158253-.07617,-1.410156 .107876,-.155885 .309816,-.277763 .501953,-.320312a.43268504,.43268504 0 0 0 .339844,-.421875V16.755859A.43268504,.43268504 0 0 0 14.238281,16.322266H9.2792969a.43268504,.43268504 0 0 0-.087891,.08789C9.8319997,14.07971 10.820439,12.234213 12.212891,10.708984 14.634653,8.0570385 18.035991,6.5234375 25.033203,6.5234375ZM 9.0410156,17.232422a.43268504,.43268504 0 0 0 .1523438,.185547c0,0 .2232947,.08756 .234375,.09766 .019087,.01739 .1377702,.165524 .2421875,.328125 .1044173,.162601 .2114494,.346839 .2929687,.490234a.43268504,.43268504 0 0 0 .00195,.002c.1144542,.200146 .6401652,1.242789 1.3261722,2.626953 .686006,1.384164 1.551317,3.142183 2.40625,4.888671 .854932,1.746489 1.699876,3.481746 2.349609,4.81836 .649733,1.336614 1.115291,2.302034 1.169922,2.421875 .451541,.992995 .488281,1.173828 .488281,1.173828a.43268504,.43268504 0 0 0 .421875,.335937h.09961a.43268504,.43268504 0 0 0 .361329,-.195312c0,0 .664673,-1.011183 1.68164,-2.289062 .333876,-.41973 1.937277,-2.607937 3.771485,-4.978516 .02371,3.605683 .07665,7.475221 .09961,9.55664 .01412,1.298697-.152524,2.100879-.400391,2.509766-.247866,.408887-.537361,.527344-1.128906,.527344-.206397,0-.365577,-.0779-.496094,-.136719 .56887,-.243347 1.000081,-.822908 1.009766,-1.628906 .01301,-.955937-.759718,-1.938936-1.988281,-1.921875-.654536,.0085-1.244582,.285701-1.646485,.75-.401903,.464299-.619141,1.100408-.61914,1.814453 0,.60109 .222975,1.367271 .828125,2.001953 .60515,.634682 1.591869,1.09756 3.003906,1.082031 1.673554,-.01827 2.804222,-.736186 3.472656,-1.611328 .668434,-.875141 .905731,-1.873993 .966797,-2.539062 .08853,-.963556 .07422,-1.813947 .07422,-3.28125 0,-.913298-.03894,-3.601421-.08008,-6.054688 1.803921,2.237329 3.368596,4.187786 3.613281,4.5 .92219,1.179941 1.263672,1.699219 1.263672,1.699219A.43268504,.43268504 0 0 0 32.375,34.601562h.128906a.43268504,.43268504 0 0 0 .410156,-.298828c0,0 .323162,-.974357 .707032,-1.771484l.002,-.002c.238259,-.492037 1.691851,-3.742111 3.144531,-6.988281 .726585,-1.623633 1.447802,-3.234839 2,-4.46875 .552199,-1.233912 .948606,-2.119103 .986328,-2.199219 .110166,-.233685 .248948,-.499964 .382813,-.724609 .133864,-.224646 .283291,-.414359 .320312,-.447266a.43268504,.43268504 0 0 0 0,-.002c.155827,-.138713 .330862,-.253323 .431641,-.279297 .500622,2.154408 .833984,4.565456 .833984,7.492187 0,7.414463-1.301787,11.707656-4.541015,14.886719-3.017076,2.959876-6.436721,3.636719-12.22461,3.636719-6.232892,0-9.673841,-1.071297-12.58789,-3.984375-3.2955401,-3.295538-4.1035159,-8.871967-4.103516,-14.539063 0,-3.058286 .2758614,-5.532572 .7753906,-7.679687zm 18.6679684,.984375c.243177,-2.3e-4 .315458,-2.96e-4 .523438,0-.114836,.13686-.573847,.699488-1.142578,1.404297 .0028,-.461541 .0057,-.930464 .0098,-1.402344 .19796,-3.34e-4 .299666,-.0017 .609375,-.002zm-4.826172,.002h1.125c.0045,.433359 .01075,.886693 .01563,1.369141-.674846,-.804345-.998175,-1.191799-1.140626,-1.369141zm 1.921876,7.855469c-6.52e-4,.002-.01237,.01758-.01758,.02344 .0051,-.01042 .01264,-.01277 .01758,-.02344z" transform="translate(-43.953 -43.953) scale(11.99811)"/></svg>
